<svg xmlns="http://www.w3.org/2000/svg" xmlns:xlink="http://www.w3.org/1999/xlink" width="128" zoomAndPan="magnify" viewBox="0 0 96 95.999999" height="128" preserveAspectRatio="xMidYMid meet" version="1.0"><defs><clipPath id="b223a92b7c"><path d="M 53 39 L 82.351562 39 L 82.351562 83.90625 L 53 83.90625 Z M 53 39 " clip-rule="nonzero"/></clipPath><clipPath id="61e7558d40"><path d="M 78 39 L 82.351562 39 L 82.351562 44 L 78 44 Z M 78 39 " clip-rule="nonzero"/></clipPath><clipPath id="dfeec2102e"><path d="M 13.351562 20 L 43 20 L 43 66 L 13.351562 66 Z M 13.351562 20 " clip-rule="nonzero"/></clipPath><clipPath id="b4776167b2"><path d="M 13.351562 20 L 18 20 L 18 25 L 13.351562 25 Z M 13.351562 20 " clip-rule="nonzero"/></clipPath></defs><g clip-path="url(#b223a92b7c)"><path fill="#009ddb" d="M 65.457031 83.859375 C 58.96875 83.859375 57.238281 78.894531 57.238281 75.957031 C 57.238281 72.503906 58.796875 70.714844 60.171875 69.132812 C 61.414062 67.703125 62.492188 66.46875 62.492188 63.886719 C 62.492188 62.015625 60.734375 60.253906 58.875 58.390625 C 56.5 56.007812 53.808594 53.3125 53.808594 49.445312 C 53.808594 42.773438 58.230469 39.386719 66.949219 39.386719 C 74.460938 39.386719 82.5 45.960938 82.5 55.75 C 82.5 59.757812 81.675781 66.492188 79.355469 72.289062 C 76.320312 79.859375 71.515625 83.859375 65.457031 83.859375 Z M 65.457031 83.859375 " fill-opacity="1" fill-rule="nonzero"/></g><path fill="#009ddb" d="M 54.738281 30.78125 C 54.316406 30.78125 53.898438 30.851562 53.492188 31.007812 C 51.320312 31.828125 50.347656 34.640625 51.3125 37.285156 C 52.097656 39.441406 53.925781 40.820312 55.75 40.820312 C 56.167969 40.820312 56.589844 40.75 56.996094 40.59375 C 59.164062 39.773438 60.140625 36.960938 59.175781 34.316406 C 58.386719 32.160156 56.558594 30.78125 54.738281 30.78125 Z M 54.738281 30.78125 " fill-opacity="1" fill-rule="nonzero"/><path fill="#009ddb" d="M 63.609375 30.84375 C 63.546875 30.84375 63.484375 30.847656 63.417969 30.855469 C 61.9375 30.992188 60.886719 32.679688 61.0625 34.625 C 61.234375 36.488281 62.472656 37.914062 63.875 37.914062 C 63.9375 37.914062 64 37.910156 64.066406 37.902344 C 65.542969 37.769531 66.597656 36.078125 66.417969 34.132812 C 66.246094 32.269531 65.011719 30.84375 63.609375 30.84375 Z M 63.609375 30.84375 " fill-opacity="1" fill-rule="nonzero"/><path fill="#009ddb" d="M 71.058594 32.5 C 69.996094 32.5 68.992188 33.617188 68.757812 35.121094 C 68.511719 36.734375 69.238281 38.183594 70.382812 38.355469 C 70.460938 38.367188 70.535156 38.375 70.613281 38.375 C 71.675781 38.375 72.675781 37.257812 72.910156 35.753906 C 73.164062 34.140625 72.433594 32.691406 71.289062 32.519531 C 71.210938 32.507812 71.136719 32.5 71.058594 32.5 Z M 71.058594 32.5 " fill-opacity="1" fill-rule="nonzero"/><path fill="#009ddb" d="M 76.890625 35.617188 C 76.136719 35.617188 75.308594 36.109375 74.796875 36.945312 C 74.085938 38.101562 74.238281 39.480469 75.128906 40.027344 C 75.378906 40.175781 75.65625 40.246094 75.941406 40.246094 C 76.699219 40.246094 77.523438 39.753906 78.039062 38.917969 C 78.746094 37.761719 78.597656 36.382812 77.699219 35.839844 C 77.453125 35.6875 77.179688 35.617188 76.890625 35.617188 Z M 76.890625 35.617188 " fill-opacity="1" fill-rule="nonzero"/><g clip-path="url(#61e7558d40)"><path fill="#009ddb" d="M 81.125 39.144531 C 80.449219 39.144531 79.707031 39.589844 79.238281 40.34375 C 78.589844 41.382812 78.703125 42.621094 79.492188 43.105469 C 79.707031 43.238281 79.953125 43.300781 80.207031 43.300781 C 80.878906 43.300781 81.625 42.859375 82.09375 42.101562 C 82.738281 41.0625 82.625 39.824219 81.835938 39.339844 C 81.625 39.207031 81.378906 39.144531 81.125 39.144531 Z M 81.125 39.144531 " fill-opacity="1" fill-rule="nonzero"/></g><g clip-path="url(#dfeec2102e)"><path fill="#009ddb" d="M 30.679688 65.210938 C 24.621094 65.210938 19.816406 61.210938 16.785156 53.640625 C 14.460938 47.84375 13.636719 41.109375 13.636719 37.101562 C 13.636719 27.3125 21.679688 20.738281 29.191406 20.738281 C 37.910156 20.738281 42.332031 24.121094 42.332031 30.792969 C 42.332031 34.660156 39.640625 37.359375 37.261719 39.742188 C 35.402344 41.605469 33.648438 43.367188 33.648438 45.238281 C 33.648438 47.820312 34.722656 49.054688 35.964844 50.484375 C 37.339844 52.066406 38.902344 53.855469 38.902344 57.308594 C 38.902344 60.242188 37.167969 65.210938 30.679688 65.210938 Z M 30.679688 65.210938 " fill-opacity="1" fill-rule="nonzero"/></g><path fill="#009ddb" d="M 41.402344 12.128906 C 39.578125 12.128906 37.75 13.511719 36.964844 15.664062 C 36 18.3125 36.972656 21.125 39.144531 21.945312 C 39.554688 22.097656 39.972656 22.171875 40.390625 22.171875 C 42.214844 22.171875 44.039062 20.789062 44.828125 18.636719 C 45.792969 15.988281 44.816406 13.175781 42.644531 12.355469 C 42.238281 12.203125 41.820312 12.128906 41.402344 12.128906 Z M 41.402344 12.128906 " fill-opacity="1" fill-rule="nonzero"/><path fill="#009ddb" d="M 32.527344 12.195312 C 31.128906 12.195312 29.890625 13.621094 29.71875 15.480469 C 29.539062 17.429688 30.59375 19.117188 32.070312 19.253906 C 32.136719 19.257812 32.199219 19.261719 32.261719 19.261719 C 33.664062 19.261719 34.902344 17.839844 35.074219 15.976562 C 35.253906 14.027344 34.199219 12.339844 32.71875 12.203125 C 32.65625 12.199219 32.59375 12.195312 32.527344 12.195312 Z M 32.527344 12.195312 " fill-opacity="1" fill-rule="nonzero"/><path fill="#009ddb" d="M 25.078125 13.851562 C 25 13.851562 24.925781 13.855469 24.851562 13.867188 C 23.703125 14.042969 22.976562 15.488281 23.226562 17.101562 C 23.460938 18.605469 24.460938 19.722656 25.523438 19.722656 C 25.601562 19.722656 25.675781 19.71875 25.753906 19.707031 C 26.898438 19.53125 27.628906 18.082031 27.378906 16.472656 C 27.144531 14.96875 26.140625 13.851562 25.078125 13.851562 Z M 25.078125 13.851562 " fill-opacity="1" fill-rule="nonzero"/><path fill="#009ddb" d="M 19.246094 16.96875 C 18.960938 16.96875 18.683594 17.039062 18.4375 17.1875 C 17.542969 17.730469 17.390625 19.109375 18.101562 20.265625 C 18.613281 21.105469 19.441406 21.597656 20.195312 21.597656 C 20.484375 21.597656 20.757812 21.527344 21.007812 21.375 C 21.902344 20.832031 22.050781 19.453125 21.34375 18.296875 C 20.828125 17.460938 20.003906 16.96875 19.246094 16.96875 Z M 19.246094 16.96875 " fill-opacity="1" fill-rule="nonzero"/><g clip-path="url(#b4776167b2)"><path fill="#009ddb" d="M 15.015625 20.496094 C 14.761719 20.496094 14.515625 20.558594 14.300781 20.691406 C 13.511719 21.175781 13.398438 22.410156 14.046875 23.453125 C 14.515625 24.207031 15.257812 24.652344 15.933594 24.652344 C 16.1875 24.652344 16.429688 24.589844 16.644531 24.457031 C 17.433594 23.972656 17.546875 22.734375 16.902344 21.695312 C 16.429688 20.9375 15.6875 20.496094 15.015625 20.496094 Z M 15.015625 20.496094 " fill-opacity="1" fill-rule="nonzero"/></g></svg>