<svg xmlns="http://www.w3.org/2000/svg" xmlns:xlink="http://www.w3.org/1999/xlink" width="500" zoomAndPan="magnify" viewBox="0 0 375 281.999989" height="376" preserveAspectRatio="xMidYMid meet" version="1.0"><defs><clipPath id="822dd6abfc"><path d="M 210 107 L 322.890625 107 L 322.890625 282 L 210 282 Z M 210 107 " clip-rule="nonzero"/></clipPath><clipPath id="9d60f6692c"><path d="M 307 106 L 322.890625 106 L 322.890625 123 L 307 123 Z M 307 106 " clip-rule="nonzero"/></clipPath></defs><g clip-path="url(#822dd6abfc)"><path fill="#fdfdfb" d="M 255.714844 281.117188 C 255.707031 281.117188 255.707031 281.117188 255.714844 281.117188 C 230.363281 281.117188 223.597656 261.710938 223.597656 250.246094 C 223.597656 236.753906 229.691406 229.757812 235.058594 223.582031 C 239.917969 218 244.117188 213.179688 244.117188 203.085938 C 244.117188 195.769531 237.257812 188.898438 229.992188 181.613281 C 220.71875 172.308594 210.195312 161.765625 210.195312 146.660156 C 210.195312 120.59375 227.472656 107.371094 261.53125 107.371094 C 290.878906 107.371094 322.292969 133.058594 322.292969 171.300781 C 322.292969 186.949219 319.078125 213.261719 310.003906 235.914062 C 298.152344 265.484375 279.382812 281.117188 255.714844 281.117188 Z M 255.714844 281.117188 " fill-opacity="1" fill-rule="nonzero"/></g><path fill="#fdfdfb" d="M 213.828125 73.742188 C 212.1875 73.742188 210.554688 74.027344 208.96875 74.628906 C 200.484375 77.832031 196.671875 88.820312 200.445312 99.164062 C 203.511719 107.578125 210.65625 112.976562 217.785156 112.976562 C 219.417969 112.976562 221.058594 112.691406 222.644531 112.089844 C 231.121094 108.882812 234.9375 97.898438 231.171875 87.550781 C 228.09375 79.140625 220.945312 73.742188 213.828125 73.742188 Z M 213.828125 73.742188 " fill-opacity="1" fill-rule="nonzero"/><path fill="#fdfdfb" d="M 248.488281 74 C 248.242188 74 247.996094 74.011719 247.742188 74.03125 C 241.964844 74.566406 237.847656 81.167969 238.546875 88.769531 C 239.214844 96.042969 244.050781 101.609375 249.527344 101.609375 C 249.777344 101.609375 250.019531 101.597656 250.273438 101.574219 C 256.050781 101.042969 260.171875 94.445312 259.46875 86.839844 C 258.796875 79.558594 253.964844 74 248.488281 74 Z M 248.488281 74 " fill-opacity="1" fill-rule="nonzero"/><path fill="#fdfdfb" d="M 277.59375 80.46875 C 273.441406 80.46875 269.523438 84.828125 268.609375 90.707031 C 267.636719 97.007812 270.476562 102.664062 274.957031 103.339844 C 275.253906 103.386719 275.550781 103.40625 275.847656 103.40625 C 280.003906 103.40625 283.917969 99.046875 284.832031 93.167969 C 285.8125 86.867188 282.96875 81.214844 278.492188 80.535156 C 278.195312 80.488281 277.898438 80.46875 277.59375 80.46875 Z M 277.59375 80.46875 " fill-opacity="1" fill-rule="nonzero"/><path fill="#fdfdfb" d="M 300.378906 92.640625 C 297.425781 92.640625 294.203125 94.5625 292.191406 97.835938 C 289.421875 102.355469 290.011719 107.742188 293.503906 109.863281 C 294.472656 110.449219 295.546875 110.726562 296.675781 110.726562 C 299.621094 110.726562 302.851562 108.804688 304.863281 105.53125 C 307.625 101.015625 307.042969 95.628906 303.539062 93.503906 C 302.578125 92.921875 301.5 92.640625 300.378906 92.640625 Z M 300.378906 92.640625 " fill-opacity="1" fill-rule="nonzero"/><g clip-path="url(#9d60f6692c)"><path fill="#fdfdfb" d="M 316.917969 106.421875 C 314.28125 106.421875 311.382812 108.15625 309.542969 111.109375 C 307.015625 115.171875 307.464844 120.003906 310.539062 121.898438 C 311.382812 122.417969 312.335938 122.660156 313.332031 122.660156 C 315.964844 122.660156 318.871094 120.929688 320.703125 117.976562 C 323.230469 113.910156 322.789062 109.082031 319.703125 107.1875 C 318.871094 106.671875 317.910156 106.421875 316.917969 106.421875 Z M 316.917969 106.421875 " fill-opacity="1" fill-rule="nonzero"/></g><path fill="#fdfdfb" d="M 119.839844 208.253906 C 96.171875 208.253906 77.402344 192.625 65.550781 163.054688 C 56.476562 140.40625 53.261719 114.089844 53.261719 98.4375 C 53.261719 60.195312 84.675781 34.507812 114.023438 34.507812 C 148.085938 34.507812 165.359375 47.722656 165.359375 73.796875 C 165.359375 88.902344 154.84375 99.449219 145.5625 108.753906 C 138.296875 116.035156 131.4375 122.914062 131.4375 130.226562 C 131.4375 140.320312 135.636719 145.140625 140.496094 150.722656 C 145.863281 156.902344 151.957031 163.894531 151.957031 177.386719 C 151.957031 188.847656 145.191406 208.253906 119.839844 208.253906 C 119.847656 208.253906 119.839844 208.253906 119.839844 208.253906 Z M 119.839844 208.253906 " fill-opacity="1" fill-rule="nonzero"/><path fill="#fdfdfb" d="M 161.726562 0.878906 C 154.601562 0.878906 147.460938 6.277344 144.390625 14.6875 C 140.617188 25.035156 144.429688 36.019531 152.914062 39.226562 C 154.507812 39.828125 156.136719 40.113281 157.773438 40.113281 C 164.898438 40.113281 172.039062 34.714844 175.109375 26.300781 C 178.886719 15.957031 175.070312 4.96875 166.585938 1.765625 C 165 1.164062 163.367188 0.878906 161.726562 0.878906 Z M 161.726562 0.878906 " fill-opacity="1" fill-rule="nonzero"/><path fill="#fdfdfb" d="M 127.066406 1.136719 C 121.589844 1.136719 116.757812 6.703125 116.085938 13.976562 C 115.386719 21.582031 119.5 28.179688 125.277344 28.710938 C 125.53125 28.734375 125.777344 28.746094 126.023438 28.746094 C 131.5 28.746094 136.332031 23.1875 137.003906 15.90625 C 137.703125 8.300781 133.589844 1.703125 127.8125 1.167969 C 127.566406 1.148438 127.3125 1.136719 127.066406 1.136719 Z M 127.066406 1.136719 " fill-opacity="1" fill-rule="nonzero"/><path fill="#fdfdfb" d="M 97.953125 7.605469 C 97.65625 7.605469 97.359375 7.625 97.0625 7.671875 C 92.585938 8.351562 89.742188 14.003906 90.71875 20.304688 C 91.632812 26.183594 95.542969 30.546875 99.703125 30.546875 C 100 30.546875 100.296875 30.523438 100.59375 30.476562 C 105.074219 29.800781 107.914062 24.136719 106.9375 17.84375 C 106.03125 11.964844 102.113281 7.605469 97.953125 7.605469 Z M 97.953125 7.605469 " fill-opacity="1" fill-rule="nonzero"/><path fill="#fdfdfb" d="M 75.175781 19.777344 C 74.054688 19.777344 72.972656 20.050781 72.007812 20.640625 C 68.511719 22.765625 67.921875 28.152344 70.691406 32.667969 C 72.699219 35.949219 75.925781 37.863281 78.878906 37.863281 C 80 37.863281 81.082031 37.589844 82.046875 37 C 85.546875 34.882812 86.132812 29.496094 83.363281 24.980469 C 81.351562 21.699219 78.128906 19.777344 75.175781 19.777344 Z M 75.175781 19.777344 " fill-opacity="1" fill-rule="nonzero"/><path fill="#fdfdfb" d="M 58.636719 33.558594 C 57.644531 33.558594 56.695312 33.808594 55.851562 34.324219 C 52.769531 36.21875 52.324219 41.046875 54.851562 45.113281 C 56.691406 48.066406 59.59375 49.804688 62.230469 49.804688 C 63.222656 49.804688 64.167969 49.558594 65.015625 49.042969 C 68.097656 47.148438 68.539062 42.316406 66.011719 38.25 C 64.167969 35.296875 61.265625 33.558594 58.636719 33.558594 Z M 58.636719 33.558594 " fill-opacity="1" fill-rule="nonzero"/></svg>