<svg xmlns="http://www.w3.org/2000/svg" xmlns:xlink="http://www.w3.org/1999/xlink" width="500" zoomAndPan="magnify" viewBox="0 0 375 281.999989" height="376" preserveAspectRatio="xMidYMid meet" version="1.0"><defs><clipPath id="b32042c93b"><path d="M 171 208 L 272 208 L 272 281.8125 L 171 281.8125 Z M 171 208 " clip-rule="nonzero"/></clipPath><clipPath id="8e59e092b2"><path d="M 103 208 L 184 208 L 184 281.8125 L 103 281.8125 Z M 103 208 " clip-rule="nonzero"/></clipPath></defs><path fill="#009ddb" d="M 136.808594 88.90625 C 143.566406 81.597656 152.816406 76.527344 164.351562 73.738281 C 161.519531 69.808594 157.761719 66.558594 153.15625 64.023438 C 145.550781 59.925781 135.625 57.8125 123.628906 57.8125 L 123.207031 57.8125 C 105.800781 57.8125 92.917969 62.121094 84.976562 70.65625 C 78.425781 77.710938 76.820312 86.074219 76.484375 90.507812 L 135.371094 90.507812 C 135.835938 89.960938 136.34375 89.410156 136.851562 88.863281 Z M 136.808594 88.90625 " fill-opacity="1" fill-rule="nonzero"/><path fill="#009ddb" d="M 238.613281 88.90625 C 239.121094 89.453125 239.628906 90.003906 240.09375 90.550781 L 298.980469 90.550781 C 298.644531 86.117188 297.039062 77.753906 290.488281 70.699219 C 282.546875 62.164062 269.664062 57.855469 252.257812 57.855469 L 251.835938 57.855469 C 239.839844 57.855469 229.914062 59.925781 222.308594 64.066406 C 217.703125 66.558594 213.945312 69.808594 211.113281 73.78125 C 222.648438 76.527344 231.855469 81.597656 238.65625 88.945312 Z M 238.613281 88.90625 " fill-opacity="1" fill-rule="nonzero"/><path fill="#009ddb" d="M 210.226562 31.875 C 210.226562 32.613281 210.191406 33.347656 210.117188 34.082031 C 210.046875 34.816406 209.9375 35.542969 209.792969 36.269531 C 209.652344 36.992188 209.472656 37.707031 209.257812 38.410156 C 209.042969 39.117188 208.796875 39.8125 208.511719 40.492188 C 208.230469 41.171875 207.917969 41.839844 207.570312 42.488281 C 207.222656 43.140625 206.84375 43.769531 206.433594 44.382812 C 206.023438 44.996094 205.585938 45.589844 205.117188 46.160156 C 204.648438 46.730469 204.152344 47.273438 203.632812 47.796875 C 203.109375 48.316406 202.566406 48.8125 201.996094 49.28125 C 201.425781 49.75 200.832031 50.1875 200.21875 50.597656 C 199.605469 51.007812 198.976562 51.386719 198.324219 51.734375 C 197.675781 52.082031 197.007812 52.394531 196.328125 52.675781 C 195.644531 52.960938 194.953125 53.207031 194.246094 53.421875 C 193.542969 53.636719 192.828125 53.816406 192.105469 53.957031 C 191.378906 54.101562 190.652344 54.210938 189.917969 54.28125 C 189.183594 54.355469 188.449219 54.390625 187.710938 54.390625 C 186.972656 54.390625 186.238281 54.355469 185.503906 54.28125 C 184.769531 54.210938 184.042969 54.101562 183.320312 53.957031 C 182.59375 53.816406 181.882812 53.636719 181.175781 53.421875 C 180.46875 53.207031 179.777344 52.960938 179.09375 52.675781 C 178.414062 52.394531 177.746094 52.082031 177.097656 51.734375 C 176.445312 51.386719 175.816406 51.007812 175.203125 50.597656 C 174.589844 50.1875 173.996094 49.75 173.425781 49.28125 C 172.855469 48.8125 172.3125 48.316406 171.789062 47.796875 C 171.269531 47.273438 170.773438 46.730469 170.304688 46.160156 C 169.839844 45.589844 169.398438 44.996094 168.988281 44.382812 C 168.582031 43.769531 168.203125 43.140625 167.855469 42.488281 C 167.507812 41.839844 167.191406 41.171875 166.910156 40.492188 C 166.628906 39.8125 166.378906 39.117188 166.164062 38.410156 C 165.949219 37.707031 165.773438 36.992188 165.628906 36.269531 C 165.484375 35.542969 165.375 34.816406 165.304688 34.082031 C 165.230469 33.347656 165.195312 32.613281 165.195312 31.875 C 165.195312 31.136719 165.230469 30.402344 165.304688 29.667969 C 165.375 28.933594 165.484375 28.207031 165.628906 27.484375 C 165.773438 26.757812 165.949219 26.046875 166.164062 25.339844 C 166.378906 24.632812 166.628906 23.941406 166.910156 23.257812 C 167.191406 22.578125 167.507812 21.910156 167.855469 21.261719 C 168.203125 20.609375 168.582031 19.980469 168.988281 19.367188 C 169.398438 18.753906 169.839844 18.160156 170.304688 17.589844 C 170.773438 17.019531 171.269531 16.476562 171.789062 15.953125 C 172.3125 15.433594 172.855469 14.9375 173.425781 14.46875 C 173.996094 14.003906 174.589844 13.5625 175.203125 13.152344 C 175.816406 12.746094 176.445312 12.367188 177.097656 12.019531 C 177.746094 11.671875 178.414062 11.355469 179.09375 11.074219 C 179.777344 10.792969 180.46875 10.542969 181.175781 10.328125 C 181.882812 10.113281 182.59375 9.9375 183.320312 9.792969 C 184.042969 9.648438 184.769531 9.539062 185.503906 9.46875 C 186.238281 9.394531 186.972656 9.359375 187.710938 9.359375 C 188.449219 9.359375 189.183594 9.394531 189.917969 9.46875 C 190.652344 9.539062 191.378906 9.648438 192.105469 9.792969 C 192.828125 9.9375 193.542969 10.113281 194.246094 10.328125 C 194.953125 10.542969 195.644531 10.792969 196.328125 11.074219 C 197.007812 11.355469 197.675781 11.671875 198.324219 12.019531 C 198.976562 12.367188 199.605469 12.746094 200.21875 13.152344 C 200.832031 13.5625 201.425781 14.003906 201.996094 14.46875 C 202.566406 14.9375 203.109375 15.433594 203.632812 15.953125 C 204.152344 16.476562 204.648438 17.019531 205.117188 17.589844 C 205.585938 18.160156 206.023438 18.753906 206.433594 19.367188 C 206.84375 19.980469 207.222656 20.609375 207.570312 21.261719 C 207.917969 21.910156 208.230469 22.578125 208.511719 23.257812 C 208.796875 23.941406 209.042969 24.632812 209.257812 25.339844 C 209.472656 26.046875 209.652344 26.757812 209.792969 27.484375 C 209.9375 28.207031 210.046875 28.933594 210.117188 29.667969 C 210.191406 30.402344 210.226562 31.136719 210.226562 31.875 Z M 210.226562 31.875 " fill-opacity="1" fill-rule="nonzero"/><path fill="#009ddb" d="M 270.550781 18.273438 C 270.550781 18.878906 270.519531 19.484375 270.460938 20.089844 C 270.402344 20.695312 270.3125 21.296875 270.195312 21.890625 C 270.074219 22.488281 269.929688 23.074219 269.753906 23.65625 C 269.574219 24.238281 269.371094 24.808594 269.140625 25.371094 C 268.90625 25.929688 268.648438 26.480469 268.359375 27.015625 C 268.074219 27.550781 267.761719 28.070312 267.425781 28.574219 C 267.089844 29.082031 266.726562 29.566406 266.339844 30.039062 C 265.957031 30.507812 265.546875 30.957031 265.121094 31.386719 C 264.691406 31.816406 264.242188 32.222656 263.769531 32.609375 C 263.300781 32.992188 262.8125 33.355469 262.308594 33.691406 C 261.804688 34.03125 261.285156 34.34375 260.746094 34.628906 C 260.210938 34.914062 259.664062 35.171875 259.101562 35.40625 C 258.542969 35.640625 257.96875 35.84375 257.390625 36.019531 C 256.808594 36.195312 256.21875 36.34375 255.625 36.460938 C 255.027344 36.582031 254.429688 36.667969 253.824219 36.730469 C 253.21875 36.789062 252.613281 36.816406 252.007812 36.816406 C 251.398438 36.816406 250.792969 36.789062 250.1875 36.730469 C 249.582031 36.667969 248.984375 36.582031 248.386719 36.460938 C 247.792969 36.34375 247.203125 36.195312 246.621094 36.019531 C 246.042969 35.84375 245.46875 35.640625 244.910156 35.40625 C 244.347656 35.171875 243.800781 34.914062 243.265625 34.628906 C 242.726562 34.34375 242.207031 34.03125 241.703125 33.691406 C 241.199219 33.355469 240.710938 32.992188 240.242188 32.609375 C 239.773438 32.222656 239.320312 31.816406 238.894531 31.386719 C 238.464844 30.957031 238.054688 30.507812 237.671875 30.039062 C 237.285156 29.566406 236.925781 29.082031 236.585938 28.574219 C 236.25 28.070312 235.9375 27.550781 235.652344 27.015625 C 235.363281 26.480469 235.105469 25.929688 234.871094 25.371094 C 234.640625 24.808594 234.4375 24.238281 234.257812 23.65625 C 234.082031 23.074219 233.9375 22.488281 233.816406 21.890625 C 233.699219 21.296875 233.609375 20.695312 233.550781 20.089844 C 233.492188 19.484375 233.460938 18.878906 233.460938 18.273438 C 233.460938 17.664062 233.492188 17.058594 233.550781 16.457031 C 233.609375 15.851562 233.699219 15.25 233.816406 14.65625 C 233.9375 14.058594 234.082031 13.472656 234.257812 12.890625 C 234.4375 12.308594 234.640625 11.738281 234.871094 11.175781 C 235.105469 10.613281 235.363281 10.066406 235.652344 9.53125 C 235.9375 8.996094 236.25 8.476562 236.585938 7.96875 C 236.925781 7.464844 237.285156 6.976562 237.671875 6.507812 C 238.054688 6.039062 238.464844 5.589844 238.894531 5.160156 C 239.320312 4.730469 239.773438 4.324219 240.242188 3.9375 C 240.710938 3.550781 241.199219 3.191406 241.703125 2.851562 C 242.207031 2.515625 242.726562 2.203125 243.265625 1.917969 C 243.800781 1.632812 244.347656 1.371094 244.910156 1.140625 C 245.46875 0.90625 246.042969 0.703125 246.621094 0.527344 C 247.203125 0.351562 247.792969 0.203125 248.386719 0.0859375 C 248.984375 -0.0351562 249.582031 -0.125 250.1875 -0.183594 C 250.792969 -0.242188 251.398438 -0.273438 252.007812 -0.273438 C 252.613281 -0.273438 253.21875 -0.242188 253.824219 -0.183594 C 254.429688 -0.125 255.027344 -0.0351562 255.625 0.0859375 C 256.21875 0.203125 256.808594 0.351562 257.390625 0.527344 C 257.96875 0.703125 258.542969 0.90625 259.101562 1.140625 C 259.664062 1.371094 260.210938 1.632812 260.746094 1.917969 C 261.285156 2.203125 261.804688 2.515625 262.308594 2.851562 C 262.8125 3.191406 263.300781 3.550781 263.769531 3.9375 C 264.242188 4.324219 264.691406 4.730469 265.121094 5.160156 C 265.546875 5.589844 265.957031 6.039062 266.339844 6.507812 C 266.726562 6.976562 267.089844 7.464844 267.425781 7.96875 C 267.761719 8.476562 268.074219 8.996094 268.359375 9.53125 C 268.648438 10.066406 268.90625 10.613281 269.140625 11.175781 C 269.371094 11.738281 269.574219 12.308594 269.753906 12.890625 C 269.929688 13.472656 270.074219 14.058594 270.195312 14.65625 C 270.3125 15.25 270.402344 15.851562 270.460938 16.457031 C 270.519531 17.058594 270.550781 17.664062 270.550781 18.273438 Z M 270.550781 18.273438 " fill-opacity="1" fill-rule="nonzero"/><path fill="#009ddb" d="M 187.964844 78.003906 L 187.5 78.003906 C 166.675781 78.003906 151.296875 83.203125 141.792969 93.464844 C 133.597656 102.335938 131.90625 112.773438 131.613281 117.839844 L 243.8125 117.839844 C 243.472656 112.730469 241.78125 102.167969 233.585938 93.382812 C 224.082031 83.160156 208.75 78.003906 187.964844 78.003906 Z M 187.964844 78.003906 " fill-opacity="1" fill-rule="nonzero"/><path fill="#009ddb" d="M 141.960938 18.273438 C 141.960938 18.878906 141.929688 19.484375 141.871094 20.089844 C 141.8125 20.695312 141.722656 21.296875 141.605469 21.890625 C 141.488281 22.488281 141.339844 23.074219 141.164062 23.65625 C 140.988281 24.238281 140.78125 24.808594 140.550781 25.371094 C 140.316406 25.929688 140.058594 26.480469 139.773438 27.015625 C 139.484375 27.550781 139.171875 28.070312 138.835938 28.574219 C 138.5 29.082031 138.136719 29.566406 137.75 30.039062 C 137.367188 30.507812 136.960938 30.957031 136.53125 31.386719 C 136.101562 31.816406 135.652344 32.222656 135.179688 32.609375 C 134.710938 32.992188 134.222656 33.355469 133.71875 33.691406 C 133.214844 34.03125 132.695312 34.34375 132.160156 34.628906 C 131.621094 34.914062 131.074219 35.171875 130.511719 35.40625 C 129.953125 35.640625 129.382812 35.84375 128.800781 36.019531 C 128.21875 36.195312 127.628906 36.34375 127.035156 36.460938 C 126.4375 36.582031 125.839844 36.667969 125.234375 36.730469 C 124.628906 36.789062 124.023438 36.816406 123.417969 36.816406 C 122.808594 36.816406 122.203125 36.789062 121.597656 36.730469 C 120.996094 36.667969 120.394531 36.582031 119.796875 36.460938 C 119.203125 36.34375 118.613281 36.195312 118.03125 36.019531 C 117.453125 35.84375 116.878906 35.640625 116.320312 35.40625 C 115.757812 35.171875 115.210938 34.914062 114.675781 34.628906 C 114.140625 34.34375 113.617188 34.03125 113.113281 33.691406 C 112.609375 33.355469 112.121094 32.992188 111.652344 32.609375 C 111.183594 32.222656 110.734375 31.816406 110.304688 31.386719 C 109.875 30.957031 109.464844 30.507812 109.082031 30.039062 C 108.695312 29.566406 108.335938 29.082031 107.996094 28.574219 C 107.660156 28.070312 107.347656 27.550781 107.0625 27.015625 C 106.773438 26.480469 106.515625 25.929688 106.28125 25.371094 C 106.050781 24.808594 105.847656 24.238281 105.671875 23.65625 C 105.492188 23.074219 105.347656 22.488281 105.226562 21.890625 C 105.109375 21.296875 105.019531 20.695312 104.960938 20.089844 C 104.902344 19.484375 104.871094 18.878906 104.871094 18.273438 C 104.871094 17.664062 104.902344 17.058594 104.960938 16.457031 C 105.019531 15.851562 105.109375 15.25 105.226562 14.65625 C 105.347656 14.058594 105.492188 13.472656 105.671875 12.890625 C 105.847656 12.308594 106.050781 11.738281 106.28125 11.175781 C 106.515625 10.613281 106.773438 10.066406 107.0625 9.53125 C 107.347656 8.996094 107.660156 8.476562 107.996094 7.96875 C 108.335938 7.464844 108.695312 6.976562 109.082031 6.507812 C 109.464844 6.039062 109.875 5.589844 110.304688 5.160156 C 110.734375 4.730469 111.183594 4.324219 111.652344 3.9375 C 112.121094 3.550781 112.609375 3.191406 113.113281 2.851562 C 113.617188 2.515625 114.140625 2.203125 114.675781 1.917969 C 115.210938 1.632812 115.757812 1.371094 116.320312 1.140625 C 116.878906 0.90625 117.453125 0.703125 118.03125 0.527344 C 118.613281 0.351562 119.203125 0.203125 119.796875 0.0859375 C 120.394531 -0.0351562 120.996094 -0.125 121.597656 -0.183594 C 122.203125 -0.242188 122.808594 -0.273438 123.417969 -0.273438 C 124.023438 -0.273438 124.628906 -0.242188 125.234375 -0.183594 C 125.839844 -0.125 126.4375 -0.0351562 127.035156 0.0859375 C 127.628906 0.203125 128.21875 0.351562 128.800781 0.527344 C 129.382812 0.703125 129.953125 0.90625 130.511719 1.140625 C 131.074219 1.371094 131.621094 1.632812 132.160156 1.917969 C 132.695312 2.203125 133.214844 2.515625 133.71875 2.851562 C 134.222656 3.191406 134.710938 3.550781 135.179688 3.9375 C 135.652344 4.324219 136.101562 4.730469 136.53125 5.160156 C 136.960938 5.589844 137.367188 6.039062 137.75 6.507812 C 138.136719 6.976562 138.5 7.464844 138.835938 7.96875 C 139.171875 8.476562 139.484375 8.996094 139.773438 9.53125 C 140.058594 10.066406 140.316406 10.613281 140.550781 11.175781 C 140.78125 11.738281 140.988281 12.308594 141.164062 12.890625 C 141.339844 13.472656 141.488281 14.058594 141.605469 14.65625 C 141.722656 15.25 141.8125 15.851562 141.871094 16.457031 C 141.929688 17.058594 141.960938 17.664062 141.960938 18.273438 Z M 141.960938 18.273438 " fill-opacity="1" fill-rule="nonzero"/><path fill="#009ddb" d="M 104.871094 213.734375 L 107.617188 222.265625 L 159.832031 204.484375 L 138.960938 160.378906 C 133.640625 149.144531 124.429688 140.316406 112.980469 135.457031 L 68.921875 116.742188 C 65.839844 115.433594 62.417969 115.433594 59.332031 116.742188 C 56.25 118.09375 53.925781 120.542969 52.742188 123.714844 C 50.671875 129.414062 53.121094 135.835938 58.53125 138.667969 L 98.871094 159.875 C 100.519531 160.761719 101.152344 162.789062 100.308594 164.4375 C 99.421875 166.082031 97.394531 166.71875 95.746094 165.871094 L 55.402344 144.664062 C 47.039062 140.273438 43.195312 130.261719 46.449219 121.390625 C 46.617188 120.96875 46.785156 120.542969 46.957031 120.164062 L 17.679688 96.71875 C 14.046875 93.804688 8.808594 93.890625 5.261719 96.886719 C 1.710938 99.886719 0.78125 105 3.0625 109.054688 L 42.054688 179.261719 C 45.605469 185.640625 51.304688 190.667969 58.066406 193.414062 L 102.929688 211.621094 C 103.859375 212.003906 104.574219 212.761719 104.871094 213.691406 Z M 104.871094 213.734375 " fill-opacity="1" fill-rule="nonzero"/><path fill="#009ddb" d="M 370.160156 96.886719 C 366.613281 93.847656 361.375 93.804688 357.742188 96.71875 L 328.46875 120.164062 C 328.636719 120.585938 328.804688 120.96875 328.972656 121.390625 C 332.226562 130.261719 328.382812 140.273438 320.019531 144.664062 L 279.675781 165.871094 C 278.027344 166.757812 276 166.082031 275.113281 164.4375 C 274.226562 162.789062 274.902344 160.761719 276.550781 159.875 L 316.890625 138.667969 C 322.257812 135.835938 324.75 129.414062 322.679688 123.714844 C 321.539062 120.542969 319.171875 118.050781 316.089844 116.742188 C 313.003906 115.390625 309.585938 115.390625 306.5 116.742188 L 262.441406 135.457031 C 250.992188 140.316406 241.78125 149.144531 236.460938 160.378906 L 215.59375 204.484375 L 267.804688 222.265625 L 270.550781 213.734375 C 270.847656 212.804688 271.566406 212.003906 272.496094 211.664062 L 317.355469 193.457031 C 324.117188 190.710938 329.820312 185.683594 333.367188 179.304688 L 372.359375 109.097656 C 374.597656 105.042969 373.667969 99.929688 370.160156 96.929688 Z M 370.160156 96.886719 " fill-opacity="1" fill-rule="nonzero"/><g clip-path="url(#b32042c93b)"><path fill="#009ddb" d="M 171.574219 282.085938 L 255.34375 282.085938 L 271.902344 230.800781 L 206.425781 208.496094 Z M 171.574219 282.085938 " fill-opacity="1" fill-rule="nonzero"/></g><g clip-path="url(#8e59e092b2)"><path fill="#009ddb" d="M 168.996094 208.496094 L 103.519531 230.800781 L 120.078125 282.085938 L 164.097656 282.085938 L 183.992188 240.179688 Z M 168.996094 208.496094 " fill-opacity="1" fill-rule="nonzero"/></g></svg>