<svg xmlns="http://www.w3.org/2000/svg" xmlns:xlink="http://www.w3.org/1999/xlink" width="434" zoomAndPan="magnify" viewBox="0 0 325.5 281.999989" height="376" preserveAspectRatio="xMidYMid meet" version="1.0"><defs><clipPath id="20ee5bf0d4"><path d="M 3 1.46875 L 322 1.46875 L 322 281.539062 L 3 281.539062 Z M 3 1.46875 " clip-rule="nonzero"/></clipPath></defs><g clip-path="url(#20ee5bf0d4)"><path fill="#009ddb" d="M 133.832031 1.46875 C 133.101562 1.46875 132.375 1.507812 131.648438 1.578125 C 130.921875 1.648438 130.199219 1.757812 129.484375 1.898438 C 128.765625 2.042969 128.058594 2.21875 127.359375 2.429688 C 126.660156 2.644531 125.976562 2.886719 125.300781 3.167969 C 124.625 3.449219 123.964844 3.757812 123.320312 4.101562 C 122.679688 4.449219 122.050781 4.824219 121.445312 5.226562 C 120.839844 5.632812 120.253906 6.070312 119.6875 6.53125 C 119.125 6.996094 118.582031 7.484375 118.066406 8 C 117.550781 8.515625 117.058594 9.058594 116.597656 9.621094 C 116.132812 10.1875 115.699219 10.773438 115.292969 11.378906 C 114.886719 11.988281 114.511719 12.613281 114.167969 13.257812 C 113.824219 13.902344 113.511719 14.558594 113.234375 15.234375 C 112.953125 15.910156 112.707031 16.597656 112.496094 17.296875 C 112.285156 17.992188 112.105469 18.703125 111.964844 19.417969 C 111.820312 20.132812 111.714844 20.855469 111.644531 21.582031 C 111.570312 22.308594 111.535156 23.039062 111.535156 23.765625 C 111.535156 24.496094 111.570312 25.226562 111.644531 25.953125 C 111.714844 26.679688 111.820312 27.402344 111.964844 28.117188 C 112.105469 28.832031 112.285156 29.542969 112.496094 30.238281 C 112.707031 30.9375 112.953125 31.625 113.234375 32.300781 C 113.511719 32.976562 113.824219 33.632812 114.167969 34.277344 C 114.511719 34.921875 114.886719 35.546875 115.292969 36.15625 C 115.699219 36.761719 116.132812 37.347656 116.597656 37.914062 C 117.058594 38.476562 117.550781 39.015625 118.066406 39.535156 C 118.582031 40.050781 119.125 40.539062 119.6875 41.003906 C 120.253906 41.464844 120.839844 41.902344 121.445312 42.308594 C 122.050781 42.710938 122.679688 43.085938 123.320312 43.429688 C 123.964844 43.777344 124.625 44.085938 125.300781 44.367188 C 125.976562 44.648438 126.660156 44.890625 127.359375 45.105469 C 128.058594 45.316406 128.765625 45.492188 129.484375 45.636719 C 130.199219 45.777344 130.921875 45.886719 131.648438 45.957031 C 132.375 46.027344 133.101562 46.0625 133.832031 46.0625 C 134.5625 46.0625 135.292969 46.027344 136.019531 45.957031 C 136.746094 45.886719 137.464844 45.777344 138.183594 45.636719 C 138.898438 45.492188 139.605469 45.316406 140.304688 45.105469 C 141.003906 44.890625 141.691406 44.648438 142.367188 44.367188 C 143.039062 44.085938 143.699219 43.777344 144.34375 43.429688 C 144.988281 43.085938 145.613281 42.710938 146.21875 42.308594 C 146.828125 41.902344 147.414062 41.464844 147.976562 41.003906 C 148.542969 40.539062 149.082031 40.050781 149.597656 39.535156 C 150.117188 39.015625 150.605469 38.476562 151.070312 37.914062 C 151.53125 37.347656 151.964844 36.761719 152.371094 36.15625 C 152.777344 35.546875 153.152344 34.921875 153.496094 34.277344 C 153.839844 33.632812 154.152344 32.976562 154.433594 32.300781 C 154.710938 31.625 154.957031 30.9375 155.167969 30.238281 C 155.382812 29.542969 155.558594 28.832031 155.703125 28.117188 C 155.84375 27.402344 155.949219 26.679688 156.023438 25.953125 C 156.09375 25.226562 156.128906 24.496094 156.128906 23.765625 C 156.128906 23.039062 156.09375 22.308594 156.023438 21.582031 C 155.949219 20.855469 155.84375 20.132812 155.703125 19.417969 C 155.558594 18.703125 155.382812 17.992188 155.167969 17.296875 C 154.957031 16.597656 154.710938 15.910156 154.433594 15.234375 C 154.152344 14.558594 153.839844 13.902344 153.496094 13.257812 C 153.152344 12.613281 152.777344 11.988281 152.371094 11.378906 C 151.964844 10.773438 151.53125 10.1875 151.070312 9.621094 C 150.605469 9.058594 150.117188 8.515625 149.597656 8 C 149.082031 7.484375 148.542969 6.996094 147.976562 6.53125 C 147.414062 6.070312 146.828125 5.632812 146.21875 5.226562 C 145.613281 4.824219 144.988281 4.449219 144.34375 4.101562 C 143.699219 3.757812 143.039062 3.449219 142.367188 3.167969 C 141.691406 2.886719 141.003906 2.644531 140.304688 2.429688 C 139.605469 2.21875 138.898438 2.042969 138.183594 1.898438 C 137.464844 1.757812 136.746094 1.648438 136.019531 1.578125 C 135.292969 1.507812 134.5625 1.46875 133.832031 1.46875 Z M 43.863281 33.335938 C 40.835938 33.5 37.914062 34.640625 35.539062 36.59375 L 8.460938 58.890625 C 2.351562 63.925781 1.476562 72.957031 6.507812 79.074219 C 11.542969 85.183594 20.570312 86.058594 26.679688 81.027344 L 47.542969 63.832031 L 62.996094 69.183594 L 37.515625 122.5 C 36.011719 125.644531 34.769531 128.953125 33.832031 132.304688 L 10.191406 216.960938 C 7.867188 225.300781 12.617188 233.96875 20.894531 236.484375 C 22.441406 236.957031 24 237.179688 25.535156 237.179688 C 32.230469 237.179688 38.441406 232.925781 40.652344 226.242188 L 64.9375 152.734375 L 81.710938 184.625 L 86.152344 223.070312 C 87.160156 231.804688 95.003906 238.09375 103.796875 237.070312 C 112.539062 236.0625 118.800781 228.164062 117.792969 219.425781 L 113.066406 178.378906 C 112.9375 176.988281 112.625 175.597656 112.109375 174.234375 L 93.84375 125.785156 L 105.726562 98.90625 C 105.726562 98.90625 116.300781 112.265625 116.300781 112.257812 C 117.601562 113.914062 119.230469 115.308594 121.140625 116.265625 L 141.757812 126.578125 C 141.835938 126.617188 141.917969 126.636719 141.996094 126.667969 C 141.523438 121.78125 142.300781 116.71875 144.65625 112.007812 C 147.015625 107.296875 150.605469 103.628906 154.796875 101.074219 C 154.714844 101.023438 154.652344 100.960938 154.574219 100.921875 L 138.535156 92.910156 L 132.625 79.695312 C 128.289062 69.980469 121.207031 61.886719 112.121094 56.316406 L 94.738281 45.652344 C 88.121094 41.582031 80.859375 38.902344 73.164062 37.679688 L 46.898438 33.496094 C 45.882812 33.332031 44.871094 33.28125 43.863281 33.335938 Z M 25.535156 237.179688 L 9.605469 237.179688 L 9.605469 281.773438 L 168.871094 281.773438 L 168.871094 243.550781 C 168.871094 240.035156 166.015625 237.179688 162.5 237.179688 Z M 159.316406 237.179688 C 163.148438 237.179688 166.988281 235.800781 170.039062 233.023438 L 197.625 207.890625 L 236.148438 203.859375 L 246.101562 232.578125 C 246.59375 234.082031 247.300781 235.476562 248.179688 236.734375 L 273.476562 274.683594 C 276.546875 279.28125 281.589844 281.773438 286.738281 281.773438 C 289.777344 281.773438 292.847656 280.910156 295.558594 279.097656 C 302.878906 274.21875 304.84375 264.332031 299.964844 257.015625 L 276.484375 221.777344 L 265.585938 146.722656 L 281.511719 152.113281 L 294.601562 178.289062 C 297.117188 183.316406 302.179688 186.230469 307.441406 186.230469 C 309.597656 186.230469 311.78125 185.738281 313.839844 184.710938 C 320.929688 181.167969 323.792969 172.550781 320.257812 165.476562 L 306.933594 138.824219 C 304.417969 133.796875 300.472656 129.734375 295.523438 127.078125 L 268.722656 112.707031 C 266.070312 111.277344 263.242188 110.207031 260.3125 109.546875 L 238.933594 104.679688 C 228.832031 102.394531 218.394531 103.191406 208.75 106.957031 C 208.304688 107.128906 207.871094 107.339844 207.441406 107.554688 L 187.894531 117.582031 L 175.292969 111.273438 C 168.195312 107.734375 159.597656 110.597656 156.054688 117.683594 C 152.511719 124.761719 155.386719 133.378906 162.464844 136.917969 L 181.574219 146.476562 C 183.59375 147.480469 185.792969 147.980469 187.984375 147.980469 L 187.984375 147.992188 C 187.996094 147.992188 188.007812 147.980469 188.019531 147.980469 C 188.03125 147.980469 188.042969 147.992188 188.058594 147.992188 L 188.058594 147.980469 C 189.453125 147.972656 190.878906 147.773438 192.289062 147.332031 L 214.160156 140.453125 L 225.109375 172.042969 C 208.179688 174.269531 188.691406 176.820312 188.691406 176.820312 C 185.476562 177.25 182.441406 178.617188 180.03125 180.816406 L 148.578125 209.484375 C 142.074219 215.410156 141.609375 225.492188 147.53125 231.992188 C 150.683594 235.4375 154.996094 237.179688 159.316406 237.179688 Z M 235.761719 46.0625 C 235.03125 46.0625 234.304688 46.101562 233.574219 46.171875 C 232.847656 46.242188 232.128906 46.351562 231.410156 46.492188 C 230.695312 46.636719 229.988281 46.8125 229.289062 47.023438 C 228.589844 47.238281 227.902344 47.480469 227.230469 47.761719 C 226.554688 48.042969 225.894531 48.351562 225.25 48.695312 C 224.605469 49.042969 223.980469 49.417969 223.375 49.820312 C 222.765625 50.226562 222.179688 50.664062 221.617188 51.125 C 221.050781 51.589844 220.511719 52.078125 219.996094 52.59375 C 219.480469 53.113281 218.988281 53.652344 218.527344 54.214844 C 218.0625 54.78125 217.628906 55.367188 217.222656 55.972656 C 216.816406 56.582031 216.441406 57.207031 216.097656 57.851562 C 215.753906 58.496094 215.441406 59.152344 215.160156 59.828125 C 214.882812 60.503906 214.636719 61.191406 214.425781 61.890625 C 214.210938 62.585938 214.035156 63.296875 213.894531 64.011719 C 213.75 64.726562 213.644531 65.449219 213.570312 66.175781 C 213.5 66.902344 213.464844 67.632812 213.464844 68.359375 C 213.464844 69.089844 213.5 69.820312 213.570312 70.546875 C 213.644531 71.273438 213.75 71.996094 213.894531 72.710938 C 214.035156 73.425781 214.210938 74.136719 214.425781 74.832031 C 214.636719 75.53125 214.882812 76.21875 215.160156 76.894531 C 215.441406 77.570312 215.753906 78.226562 216.097656 78.871094 C 216.441406 79.515625 216.816406 80.140625 217.222656 80.75 C 217.628906 81.355469 218.0625 81.941406 218.527344 82.507812 C 218.988281 83.070312 219.480469 83.609375 219.996094 84.128906 C 220.511719 84.644531 221.050781 85.132812 221.617188 85.597656 C 222.179688 86.058594 222.765625 86.496094 223.375 86.902344 C 223.980469 87.304688 224.605469 87.679688 225.25 88.023438 C 225.894531 88.371094 226.554688 88.679688 227.230469 88.960938 C 227.902344 89.242188 228.589844 89.484375 229.289062 89.699219 C 229.988281 89.910156 230.695312 90.085938 231.410156 90.230469 C 232.128906 90.371094 232.847656 90.480469 233.574219 90.550781 C 234.304688 90.621094 235.03125 90.65625 235.761719 90.65625 C 236.492188 90.65625 237.21875 90.621094 237.945312 90.550781 C 238.671875 90.480469 239.394531 90.371094 240.113281 90.230469 C 240.828125 90.085938 241.535156 89.910156 242.234375 89.699219 C 242.933594 89.484375 243.621094 89.242188 244.292969 88.960938 C 244.96875 88.679688 245.628906 88.371094 246.273438 88.023438 C 246.917969 87.679688 247.542969 87.304688 248.148438 86.902344 C 248.757812 86.496094 249.34375 86.058594 249.90625 85.597656 C 250.472656 85.132812 251.011719 84.644531 251.527344 84.128906 C 252.042969 83.609375 252.535156 83.070312 252.996094 82.507812 C 253.460938 81.941406 253.894531 81.355469 254.300781 80.75 C 254.707031 80.140625 255.082031 79.515625 255.425781 78.871094 C 255.769531 78.226562 256.082031 77.570312 256.359375 76.894531 C 256.640625 76.21875 256.886719 75.53125 257.097656 74.832031 C 257.308594 74.136719 257.488281 73.425781 257.628906 72.710938 C 257.773438 71.996094 257.878906 71.273438 257.949219 70.546875 C 258.023438 69.820312 258.058594 69.089844 258.058594 68.359375 C 258.058594 67.632812 258.023438 66.902344 257.949219 66.175781 C 257.878906 65.449219 257.773438 64.726562 257.628906 64.011719 C 257.488281 63.296875 257.308594 62.585938 257.097656 61.890625 C 256.886719 61.191406 256.640625 60.503906 256.359375 59.828125 C 256.082031 59.152344 255.769531 58.496094 255.425781 57.851562 C 255.082031 57.207031 254.707031 56.582031 254.300781 55.972656 C 253.894531 55.367188 253.460938 54.78125 252.996094 54.214844 C 252.535156 53.652344 252.042969 53.113281 251.527344 52.59375 C 251.011719 52.078125 250.472656 51.589844 249.90625 51.125 C 249.34375 50.664062 248.757812 50.226562 248.148438 49.820312 C 247.542969 49.417969 246.917969 49.042969 246.273438 48.695312 C 245.628906 48.351562 244.96875 48.042969 244.292969 47.761719 C 243.621094 47.480469 242.933594 47.238281 242.234375 47.023438 C 241.535156 46.8125 240.828125 46.636719 240.113281 46.492188 C 239.394531 46.351562 238.671875 46.242188 237.945312 46.171875 C 237.21875 46.101562 236.492188 46.0625 235.761719 46.0625 Z M 235.761719 46.0625 " fill-opacity="1" fill-rule="nonzero"/></g></svg>