<svg xmlns="http://www.w3.org/2000/svg" xmlns:xlink="http://www.w3.org/1999/xlink" width="327" zoomAndPan="magnify" viewBox="0 0 245.25 281.999989" height="376" preserveAspectRatio="xMidYMid meet" version="1.0"><defs><clipPath id="b14e114571"><path d="M 0 0.53125 L 244.503906 0.53125 L 244.503906 281.570312 L 0 281.570312 Z M 0 0.53125 " clip-rule="nonzero"/></clipPath></defs><g clip-path="url(#b14e114571)"><path fill="#009ddb" d="M 0.171875 34.207031 C 34.304688 31.492188 64.035156 16.570312 86.507812 0.53125 L 158.050781 0.53125 C 180.523438 16.570312 210.253906 31.492188 244.386719 34.207031 L 244.386719 140.894531 C 244.386719 209.730469 174.5 267.574219 122.28125 281.566406 C 70.058594 267.574219 0.171875 209.730469 0.171875 140.894531 Z M 77.316406 129.34375 L 102.601562 161.351562 C 105.035156 164.433594 109.507812 164.957031 112.585938 162.523438 C 112.808594 162.351562 113.011719 162.164062 113.207031 161.972656 L 113.226562 161.992188 L 166.714844 108.507812 C 169.5 105.71875 169.5 101.199219 166.714844 98.410156 C 163.925781 95.625 159.40625 95.625 156.617188 98.410156 L 108.785156 146.242188 L 88.472656 120.53125 C 86.039062 117.449219 81.566406 116.925781 78.488281 119.359375 C 75.40625 121.792969 74.882812 126.261719 77.316406 129.34375 Z M 122.28125 57.785156 C 82.285156 57.785156 49.863281 90.207031 49.863281 130.203125 C 49.863281 170.195312 82.285156 202.617188 122.28125 202.617188 C 162.273438 202.617188 194.695312 170.195312 194.695312 130.203125 C 194.695312 90.207031 162.273438 57.785156 122.28125 57.785156 Z M 122.28125 57.785156 " fill-opacity="1" fill-rule="evenodd"/></g></svg>