<svg xmlns="http://www.w3.org/2000/svg" xmlns:xlink="http://www.w3.org/1999/xlink" width="376" zoomAndPan="magnify" viewBox="0 0 282 281.999989" height="376" preserveAspectRatio="xMidYMid meet" version="1.0"><rect x="-28.2" width="338.4" fill="#fd9d24" y="-28.199999" height="338.399986" fill-opacity="1"/><path fill="#ffffff" d="M 16.351562 29.730469 L 16.351562 40.09375 L 23.441406 32.820312 L 23.441406 77.90625 L 33.441406 77.90625 L 33.441406 19.003906 L 25.441406 19.003906 Z M 38.894531 29.730469 L 38.894531 40.09375 L 39.074219 40.09375 L 45.984375 32.820312 L 45.984375 77.90625 L 55.980469 77.90625 L 55.980469 19.003906 L 47.984375 19.003906 Z M 38.894531 29.730469 " fill-opacity="1" fill-rule="nonzero"/><path fill="#ffffff" d="M 43.621094 217.15625 L 87.613281 217.15625 C 88.160156 217.15625 88.703125 216.609375 88.703125 216.066406 C 88.703125 215.703125 88.523438 215.519531 88.339844 215.339844 L 66.523438 186.980469 L 66.34375 186.796875 C 66.160156 186.617188 65.796875 186.433594 65.617188 186.433594 C 65.433594 186.433594 65.070312 186.617188 64.890625 186.796875 L 64.527344 187.160156 L 43.074219 215.15625 L 42.710938 215.519531 C 42.527344 215.703125 42.527344 215.882812 42.527344 216.066406 C 42.527344 216.609375 43.074219 217.15625 43.621094 217.15625 Z M 87.429688 221.15625 L 43.257812 221.15625 C 42.710938 221.15625 42.164062 221.699219 42.164062 222.246094 L 42.164062 256.785156 C 42.164062 257.332031 42.710938 257.878906 43.257812 257.878906 L 57.4375 257.878906 L 57.4375 236.246094 C 57.4375 235.699219 57.980469 235.152344 58.527344 235.152344 L 71.617188 235.152344 C 72.160156 235.152344 72.707031 235.699219 72.707031 236.246094 L 72.707031 257.878906 L 87.25 257.878906 C 87.792969 257.878906 88.339844 257.332031 88.339844 256.785156 L 88.339844 222.246094 C 88.523438 221.699219 88.160156 221.15625 87.429688 221.15625 Z M 239.769531 212.066406 L 196.140625 212.066406 C 195.597656 212.066406 195.050781 212.613281 195.050781 213.15625 L 195.050781 257.148438 C 195.050781 257.695312 195.597656 258.242188 196.140625 258.242188 L 239.769531 258.242188 C 240.316406 258.242188 240.863281 257.695312 240.863281 257.148438 L 240.863281 213.15625 C 240.863281 212.613281 240.5 212.066406 239.769531 212.066406 M 215.957031 240.972656 C 215.957031 241.515625 215.410156 242.0625 214.867188 242.0625 L 201.777344 242.0625 C 201.230469 242.0625 200.6875 241.515625 200.6875 240.972656 L 200.6875 232.972656 C 200.6875 232.425781 201.230469 231.882812 201.777344 231.882812 L 214.867188 231.882812 C 215.410156 231.882812 215.957031 232.425781 215.957031 232.972656 Z M 215.957031 226.246094 C 215.957031 226.792969 215.410156 227.335938 214.867188 227.335938 L 201.777344 227.335938 C 201.230469 227.335938 200.6875 226.792969 200.6875 226.246094 L 200.6875 218.246094 C 200.6875 217.703125 201.230469 217.15625 201.777344 217.15625 L 214.867188 217.15625 C 215.410156 217.15625 215.957031 217.703125 215.957031 218.246094 Z M 235.953125 240.972656 C 235.953125 241.515625 235.40625 242.0625 234.863281 242.0625 L 221.773438 242.0625 C 221.230469 242.0625 220.683594 241.515625 220.683594 240.972656 L 220.683594 232.972656 C 220.683594 232.425781 221.230469 231.882812 221.773438 231.882812 L 234.863281 231.882812 C 235.40625 231.882812 235.953125 232.425781 235.953125 232.972656 Z M 235.953125 226.246094 C 235.953125 226.792969 235.40625 227.335938 234.863281 227.335938 L 221.773438 227.335938 C 221.230469 227.335938 220.683594 226.792969 220.683594 226.246094 L 220.683594 218.246094 C 220.683594 217.703125 221.230469 217.15625 221.773438 217.15625 L 234.863281 217.15625 C 235.40625 217.15625 235.953125 217.703125 235.953125 218.246094 Z M 138.332031 109.898438 L 95.792969 109.898438 C 95.25 109.898438 94.703125 110.445312 94.703125 110.992188 L 94.703125 256.96875 C 94.703125 257.511719 95.25 258.058594 95.792969 258.058594 L 138.515625 258.058594 C 139.058594 258.058594 139.605469 257.511719 139.605469 256.96875 L 139.605469 110.992188 C 139.421875 110.265625 139.058594 109.898438 138.332031 109.898438 M 113.0625 241.335938 C 113.0625 241.699219 112.882812 241.878906 112.519531 241.878906 L 102.703125 241.878906 C 102.339844 241.878906 102.15625 241.699219 102.15625 241.335938 L 102.15625 230.425781 C 102.15625 230.0625 102.339844 229.882812 102.703125 229.882812 L 112.519531 229.882812 C 112.882812 229.882812 113.0625 230.0625 113.0625 230.425781 Z M 113.0625 216.246094 C 113.0625 216.609375 112.882812 216.792969 112.519531 216.792969 L 102.703125 216.792969 C 102.339844 216.792969 102.15625 216.609375 102.15625 216.246094 L 102.15625 205.339844 C 102.15625 204.976562 102.339844 204.792969 102.703125 204.792969 L 112.519531 204.792969 C 112.882812 204.792969 113.0625 204.976562 113.0625 205.339844 Z M 113.0625 191.160156 C 113.0625 191.523438 112.882812 191.707031 112.519531 191.707031 L 102.703125 191.707031 C 102.339844 191.707031 102.15625 191.523438 102.15625 191.160156 L 102.15625 180.253906 C 102.15625 179.890625 102.339844 179.707031 102.703125 179.707031 L 112.519531 179.707031 C 112.882812 179.707031 113.0625 179.890625 113.0625 180.253906 Z M 113.0625 166.253906 C 113.0625 166.617188 112.882812 166.800781 112.519531 166.800781 L 102.703125 166.800781 C 102.339844 166.800781 102.15625 166.617188 102.15625 166.253906 L 102.15625 155.347656 C 102.15625 154.984375 102.339844 154.800781 102.703125 154.800781 L 112.519531 154.800781 C 112.882812 154.800781 113.0625 154.984375 113.0625 155.347656 Z M 113.0625 141.167969 C 113.0625 141.53125 112.882812 141.714844 112.519531 141.714844 L 102.703125 141.714844 C 102.339844 141.714844 102.15625 141.53125 102.15625 141.167969 L 102.15625 130.261719 C 102.15625 129.898438 102.339844 129.714844 102.703125 129.714844 L 112.519531 129.714844 C 112.882812 129.714844 113.0625 129.898438 113.0625 130.261719 Z M 132.152344 241.335938 C 132.152344 241.699219 131.96875 241.878906 131.605469 241.878906 L 121.789062 241.878906 C 121.425781 241.878906 121.242188 241.699219 121.242188 241.335938 L 121.242188 230.425781 C 121.242188 230.0625 121.425781 229.882812 121.789062 229.882812 L 131.605469 229.882812 C 131.96875 229.882812 132.152344 230.0625 132.152344 230.425781 Z M 132.152344 216.246094 C 132.152344 216.609375 131.96875 216.792969 131.605469 216.792969 L 121.789062 216.792969 C 121.425781 216.792969 121.242188 216.609375 121.242188 216.246094 L 121.242188 205.339844 C 121.242188 204.976562 121.425781 204.792969 121.789062 204.792969 L 131.605469 204.792969 C 131.96875 204.792969 132.152344 204.976562 132.152344 205.339844 Z M 132.152344 191.160156 C 132.152344 191.523438 131.96875 191.707031 131.605469 191.707031 L 121.789062 191.707031 C 121.425781 191.707031 121.242188 191.523438 121.242188 191.160156 L 121.242188 180.253906 C 121.242188 179.890625 121.425781 179.707031 121.789062 179.707031 L 131.605469 179.707031 C 131.96875 179.707031 132.152344 179.890625 132.152344 180.253906 Z M 132.152344 166.253906 C 132.152344 166.617188 131.96875 166.800781 131.605469 166.800781 L 121.789062 166.800781 C 121.425781 166.800781 121.242188 166.617188 121.242188 166.253906 L 121.242188 155.347656 C 121.242188 154.984375 121.425781 154.800781 121.789062 154.800781 L 131.605469 154.800781 C 131.96875 154.800781 132.152344 154.984375 132.152344 155.347656 Z M 132.152344 141.167969 C 132.152344 141.53125 131.96875 141.714844 131.605469 141.714844 L 121.789062 141.714844 C 121.425781 141.714844 121.242188 141.53125 121.242188 141.167969 L 121.242188 130.261719 C 121.242188 129.898438 121.425781 129.714844 121.789062 129.714844 L 131.605469 129.714844 C 131.96875 129.714844 132.152344 129.898438 132.152344 130.261719 Z M 240.863281 207.703125 C 240.863281 208.25 240.5 208.613281 239.953125 208.613281 L 195.960938 208.613281 C 195.414062 208.613281 195.050781 208.25 195.050781 207.703125 L 195.050781 198.976562 C 195.050781 198.433594 195.414062 198.066406 195.960938 198.066406 L 239.953125 198.066406 C 240.5 198.066406 240.863281 198.433594 240.863281 198.976562 Z M 189.960938 137.351562 C 189.777344 136.804688 189.414062 136.625 188.871094 136.625 C 188.6875 136.625 188.507812 136.625 188.324219 136.804688 L 187.960938 137.167969 L 145.96875 190.433594 L 145.785156 190.613281 C 145.605469 190.796875 145.421875 191.160156 145.421875 191.523438 L 145.421875 256.96875 C 145.421875 257.511719 145.96875 258.058594 146.511719 258.058594 L 189.234375 258.058594 C 189.777344 258.058594 190.324219 257.511719 190.324219 256.96875 L 190.324219 137.714844 C 190.140625 137.714844 190.140625 137.53125 189.960938 137.351562 Z M 172.328125 166.253906 L 172.691406 165.890625 C 175.597656 162.253906 180.324219 156.257812 182.6875 153.347656 L 183.050781 152.984375 C 183.234375 152.800781 183.597656 152.621094 183.960938 152.621094 C 184.507812 152.621094 185.050781 152.984375 185.050781 153.53125 L 185.050781 166.980469 C 185.050781 167.710938 184.507812 168.074219 183.960938 168.253906 L 173.417969 168.253906 C 172.691406 168.253906 172.328125 167.710938 172.328125 166.980469 C 172.144531 166.800781 172.144531 166.4375 172.328125 166.253906 Z M 165.601562 240.789062 C 165.601562 241.335938 165.054688 241.878906 164.511719 241.878906 L 151.785156 241.878906 C 151.238281 241.878906 150.695312 241.335938 150.695312 240.789062 L 150.695312 232.789062 C 150.695312 232.246094 151.238281 231.699219 151.785156 231.699219 L 164.511719 231.699219 C 165.054688 231.699219 165.601562 232.246094 165.601562 232.789062 Z M 165.601562 226.246094 C 165.601562 226.792969 165.054688 227.335938 164.511719 227.335938 L 151.785156 227.335938 C 151.238281 227.335938 150.695312 226.792969 150.695312 226.246094 L 150.695312 218.246094 C 150.695312 217.703125 151.238281 217.15625 151.785156 217.15625 L 164.511719 217.15625 C 165.054688 217.15625 165.601562 217.703125 165.601562 218.246094 Z M 165.601562 211.519531 C 165.601562 212.066406 165.054688 212.613281 164.511719 212.613281 L 151.785156 212.613281 C 151.238281 212.613281 150.695312 212.066406 150.695312 211.519531 L 150.695312 203.523438 C 150.695312 202.976562 151.238281 202.429688 151.785156 202.429688 L 164.511719 202.429688 C 165.054688 202.429688 165.601562 202.976562 165.601562 203.523438 Z M 165.78125 179.164062 L 165.78125 196.613281 C 165.78125 197.160156 165.238281 197.703125 164.691406 197.703125 L 151.964844 197.703125 C 151.421875 197.703125 150.875 197.160156 150.875 196.613281 L 150.875 193.886719 C 150.875 193.886719 150.875 193.707031 151.058594 193.707031 C 151.058594 193.707031 151.058594 193.523438 151.238281 193.523438 C 152.875 191.160156 160.148438 182.070312 163.238281 178.433594 L 163.601562 178.070312 C 163.78125 177.890625 164.148438 177.707031 164.511719 177.707031 C 165.054688 177.707031 165.601562 178.070312 165.601562 178.617188 L 165.601562 179.164062 Z M 185.234375 240.789062 C 185.234375 241.335938 184.6875 241.878906 184.144531 241.878906 L 171.417969 241.878906 C 170.871094 241.878906 170.328125 241.335938 170.328125 240.789062 L 170.328125 232.789062 C 170.328125 232.246094 170.871094 231.699219 171.417969 231.699219 L 184.144531 231.699219 C 184.6875 231.699219 185.234375 232.246094 185.234375 232.789062 Z M 185.234375 226.246094 C 185.234375 226.792969 184.6875 227.335938 184.144531 227.335938 L 171.417969 227.335938 C 170.871094 227.335938 170.328125 226.792969 170.328125 226.246094 L 170.328125 218.246094 C 170.328125 217.703125 170.871094 217.15625 171.417969 217.15625 L 184.144531 217.15625 C 184.6875 217.15625 185.234375 217.703125 185.234375 218.246094 Z M 185.234375 211.519531 C 185.234375 212.066406 184.6875 212.613281 184.144531 212.613281 L 171.417969 212.613281 C 170.871094 212.613281 170.328125 212.066406 170.328125 211.519531 L 170.328125 203.523438 C 170.328125 202.976562 170.871094 202.429688 171.417969 202.429688 L 184.144531 202.429688 C 184.6875 202.429688 185.234375 202.976562 185.234375 203.523438 Z M 185.234375 196.796875 C 185.234375 197.339844 184.6875 197.886719 184.144531 197.886719 L 171.417969 197.886719 C 170.871094 197.886719 170.328125 197.339844 170.328125 196.796875 L 170.328125 188.796875 C 170.328125 188.25 170.871094 187.707031 171.417969 187.707031 L 184.144531 187.707031 C 184.6875 187.707031 185.234375 188.25 185.234375 188.796875 Z M 185.234375 182.070312 C 185.234375 182.617188 184.6875 183.160156 184.144531 183.160156 L 171.417969 183.160156 C 170.871094 183.160156 170.328125 182.617188 170.328125 182.070312 L 170.328125 174.070312 C 170.328125 173.527344 170.871094 172.980469 171.417969 172.980469 L 184.144531 172.980469 C 184.6875 172.980469 185.234375 173.527344 185.234375 174.070312 Z M 185.234375 182.070312 " fill-opacity="1" fill-rule="nonzero"/><path fill="#ffffff" d="M 75.25 37.730469 L 75.25 34.457031 L 79.070312 34.457031 L 79.070312 37.730469 C 79.070312 39.003906 79.613281 39.910156 81.070312 39.910156 C 82.339844 39.910156 82.886719 39.003906 82.886719 37.730469 L 82.886719 36.820312 C 82.886719 35.367188 82.339844 34.640625 81.070312 33.367188 L 78.707031 31.003906 C 76.34375 28.820312 75.433594 27.367188 75.433594 24.640625 L 75.433594 23.914062 C 75.433594 21.003906 77.25 18.640625 81.070312 18.640625 C 85.066406 18.640625 86.703125 20.640625 86.703125 24.09375 L 86.703125 26.09375 L 83.066406 26.09375 L 83.066406 24.09375 C 83.066406 22.640625 82.523438 22.09375 81.25 22.09375 C 80.160156 22.09375 79.433594 22.640625 79.433594 24.09375 L 79.433594 24.640625 C 79.433594 25.914062 80.160156 26.820312 81.25 27.914062 L 83.796875 30.457031 C 85.976562 32.640625 87.066406 34.09375 87.066406 36.640625 L 87.066406 37.730469 C 87.066406 41 85.25 43.363281 81.25 43.363281 C 77.25 43.363281 75.25 40.820312 75.25 37.730469 Z M 100.15625 19.003906 L 100.15625 37.003906 C 100.15625 40.636719 98.519531 43.183594 94.519531 43.183594 C 90.339844 43.183594 88.523438 40.820312 88.523438 37.003906 L 88.523438 19.003906 L 92.519531 19.003906 L 92.519531 37.546875 C 92.519531 39.003906 93.066406 39.910156 94.519531 39.910156 C 95.976562 39.910156 96.519531 39.003906 96.519531 37.546875 L 96.519531 19.003906 Z M 102.339844 37.730469 L 102.339844 34.457031 L 106.15625 34.457031 L 106.15625 37.730469 C 106.15625 39.003906 106.699219 39.910156 108.15625 39.910156 C 109.429688 39.910156 109.972656 39.003906 109.972656 37.730469 L 109.972656 36.820312 C 109.972656 35.367188 109.429688 34.640625 108.15625 33.367188 L 105.792969 31.003906 C 103.429688 28.820312 102.519531 27.367188 102.519531 24.640625 L 102.519531 23.914062 C 102.519531 21.003906 104.15625 18.640625 108.15625 18.640625 C 112.15625 18.640625 113.789062 20.640625 113.789062 24.09375 L 113.789062 26.09375 L 110.15625 26.09375 L 110.15625 24.09375 C 110.15625 22.640625 109.609375 22.09375 108.335938 22.09375 C 107.246094 22.09375 106.519531 22.640625 106.519531 24.09375 L 106.519531 24.640625 C 106.519531 25.914062 107.246094 26.820312 108.335938 27.914062 L 110.882812 30.457031 C 113.0625 32.640625 114.15625 34.09375 114.15625 36.640625 L 114.15625 37.730469 C 114.15625 41 112.335938 43.363281 108.335938 43.363281 C 103.792969 43.183594 102.339844 40.820312 102.339844 37.730469 Z M 114.699219 19.003906 L 125.425781 19.003906 L 125.425781 22.277344 L 122.152344 22.277344 L 122.152344 42.820312 L 118.152344 42.820312 L 118.152344 22.277344 L 114.882812 22.277344 L 114.882812 19.003906 Z M 124.699219 42.820312 L 129.242188 19.003906 L 133.789062 19.003906 L 138.332031 42.820312 L 134.152344 42.820312 L 133.425781 38.457031 L 129.242188 38.457031 L 128.515625 42.820312 Z M 129.789062 35.183594 L 133.058594 35.183594 L 131.425781 25.550781 Z M 139.96875 19.003906 L 143.96875 19.003906 L 143.96875 42.820312 L 139.96875 42.820312 Z M 149.601562 27.730469 L 149.601562 42.820312 L 146.148438 42.820312 L 146.148438 19.003906 L 150.148438 19.003906 L 154.511719 32.640625 L 154.511719 19.003906 L 157.785156 19.003906 L 157.785156 42.820312 L 154.328125 42.820312 Z M 159.238281 42.820312 L 163.78125 19.003906 L 168.328125 19.003906 L 172.871094 42.820312 L 168.691406 42.820312 L 167.964844 38.457031 L 163.78125 38.457031 L 163.054688 42.820312 Z M 164.328125 35.183594 L 167.601562 35.183594 L 165.964844 25.550781 Z M 174.144531 19.003906 L 179.960938 19.003906 C 183.960938 19.003906 185.234375 20.824219 185.234375 24.277344 L 185.234375 26.640625 C 185.234375 28.640625 184.507812 29.914062 182.871094 30.457031 C 184.871094 31.003906 185.78125 32.277344 185.78125 34.457031 L 185.78125 37.546875 C 185.78125 41 184.324219 42.820312 180.324219 42.820312 L 174.144531 42.820312 Z M 178.144531 29.003906 L 179.597656 29.003906 C 180.871094 29.003906 181.417969 28.277344 181.417969 27.003906 L 181.417969 24.09375 C 181.417969 22.824219 180.871094 22.09375 179.417969 22.09375 L 177.960938 22.09375 Z M 178.144531 32.09375 L 178.144531 39.546875 L 179.960938 39.546875 C 181.234375 39.546875 181.960938 38.820312 181.960938 37.546875 L 181.960938 33.910156 C 181.960938 32.640625 181.417969 31.914062 179.960938 31.914062 L 178.144531 31.914062 Z M 187.597656 19.003906 L 191.597656 19.003906 L 191.597656 39.546875 L 196.324219 39.546875 L 196.324219 42.820312 L 187.597656 42.820312 Z M 197.960938 19.003906 L 207.59375 19.003906 L 207.59375 22.277344 L 201.957031 22.277344 L 201.957031 29.183594 L 205.957031 29.183594 L 205.957031 32.457031 L 201.957031 32.457031 L 201.957031 39.730469 L 207.59375 39.730469 L 207.59375 43 L 197.960938 43 Z M 214.320312 36.640625 L 214.320312 25.003906 C 214.320312 21.1875 216.136719 18.640625 220.320312 18.640625 C 224.683594 18.640625 225.957031 21.1875 225.957031 24.640625 L 225.957031 27.550781 L 222.320312 27.550781 L 222.320312 24.277344 C 222.320312 22.824219 221.773438 21.914062 220.320312 21.914062 C 218.867188 21.914062 218.320312 23.003906 218.320312 24.457031 L 218.320312 37.367188 C 218.320312 38.820312 218.867188 39.910156 220.320312 39.910156 C 221.773438 39.910156 222.320312 39.003906 222.320312 37.546875 L 222.320312 33.183594 L 225.957031 33.183594 L 225.957031 37.367188 C 225.957031 40.820312 224.5 43.363281 220.320312 43.363281 C 215.957031 43.183594 214.320312 40.273438 214.320312 36.640625 Z M 227.773438 19.003906 L 231.773438 19.003906 L 231.773438 42.820312 L 227.773438 42.820312 Z M 233.226562 19.003906 L 243.953125 19.003906 L 243.953125 22.277344 L 240.679688 22.277344 L 240.679688 42.820312 L 236.679688 42.820312 L 236.679688 22.277344 L 233.410156 22.277344 L 233.410156 19.003906 Z M 245.589844 19.003906 L 249.585938 19.003906 L 249.585938 42.820312 L 245.589844 42.820312 Z M 251.769531 19.003906 L 261.402344 19.003906 L 261.402344 22.277344 L 255.769531 22.277344 L 255.769531 29.183594 L 259.769531 29.183594 L 259.769531 32.457031 L 255.769531 32.457031 L 255.769531 39.730469 L 261.402344 39.730469 L 261.402344 43 L 251.769531 43 Z M 262.3125 37.730469 L 262.3125 34.457031 L 266.128906 34.457031 L 266.128906 37.730469 C 266.128906 39.003906 266.675781 39.910156 268.128906 39.910156 C 269.402344 39.910156 269.949219 39.003906 269.949219 37.730469 L 269.949219 36.820312 C 269.949219 35.367188 269.402344 34.640625 268.128906 33.367188 L 265.765625 31.003906 C 263.402344 28.820312 262.496094 27.367188 262.496094 24.640625 L 262.496094 23.914062 C 262.496094 21.003906 264.3125 18.640625 268.128906 18.640625 C 272.128906 18.640625 273.765625 20.640625 273.765625 24.09375 L 273.765625 26.09375 L 270.128906 26.09375 L 270.128906 24.09375 C 270.128906 22.640625 269.585938 22.09375 268.3125 22.09375 C 267.222656 22.09375 266.496094 22.640625 266.496094 24.09375 L 266.496094 24.640625 C 266.496094 25.914062 267.222656 26.820312 268.3125 27.914062 L 270.855469 30.457031 C 273.039062 32.640625 274.128906 34.09375 274.128906 36.640625 L 274.128906 37.730469 C 274.128906 41 272.3125 43.363281 268.3125 43.363281 C 264.3125 43.363281 262.3125 40.820312 262.3125 37.730469 Z M 262.3125 37.730469 " fill-opacity="1" fill-rule="nonzero"/><path fill="#ffffff" d="M 75.25 77.90625 L 79.796875 54.089844 L 84.339844 54.089844 L 88.886719 77.90625 L 84.886719 77.90625 L 84.160156 73.542969 L 79.976562 73.542969 L 79.25 77.90625 Z M 80.339844 70.453125 L 83.613281 70.453125 L 81.976562 60.816406 Z M 93.976562 63 L 93.976562 78.085938 L 90.523438 78.085938 L 90.523438 54.273438 L 94.519531 54.273438 L 98.882812 67.90625 L 98.882812 54.273438 L 102.15625 54.273438 L 102.15625 78.085938 L 98.703125 78.085938 Z M 116.515625 60.453125 L 116.515625 71.542969 C 116.515625 75.179688 115.0625 77.90625 110.699219 77.90625 L 104.519531 77.90625 L 104.519531 54.089844 L 110.699219 54.089844 C 114.882812 54.089844 116.515625 56.816406 116.515625 60.453125 Z M 110.15625 74.632812 C 111.792969 74.632812 112.519531 73.722656 112.519531 72.269531 L 112.519531 59.726562 C 112.519531 58.273438 111.972656 57.363281 110.15625 57.363281 L 108.519531 57.363281 L 108.519531 74.632812 Z M 122.335938 71.722656 L 122.335938 60.089844 C 122.335938 56.273438 124.152344 53.726562 128.332031 53.726562 C 132.695312 53.726562 133.96875 56.273438 133.96875 59.726562 L 133.96875 62.636719 L 130.332031 62.636719 L 130.332031 59.542969 C 130.332031 58.089844 129.789062 57.179688 128.332031 57.179688 C 126.878906 57.179688 126.335938 58.273438 126.335938 59.726562 L 126.335938 72.632812 C 126.335938 74.085938 126.878906 75.179688 128.332031 75.179688 C 129.789062 75.179688 130.332031 74.269531 130.332031 72.816406 L 130.332031 68.453125 L 133.96875 68.453125 L 133.96875 72.632812 C 133.96875 76.085938 132.515625 78.632812 128.332031 78.632812 C 123.972656 78.269531 122.335938 75.542969 122.335938 71.722656 Z M 136.152344 71.722656 L 136.152344 60.089844 C 136.152344 56.273438 137.96875 53.726562 142.148438 53.726562 C 146.332031 53.726562 148.332031 56.453125 148.332031 60.089844 L 148.332031 71.722656 C 148.332031 75.359375 146.511719 78.085938 142.148438 78.085938 C 137.96875 78.269531 136.152344 75.542969 136.152344 71.722656 Z M 144.148438 72.453125 L 144.148438 59.542969 C 144.148438 58.089844 143.605469 57 142.148438 57 C 140.695312 57 140.148438 58.089844 140.148438 59.542969 L 140.148438 72.453125 C 140.148438 73.90625 140.695312 74.996094 142.148438 74.996094 C 143.605469 74.816406 144.148438 73.90625 144.148438 72.453125 Z M 161.601562 62.453125 L 158.691406 77.90625 L 156.875 77.90625 L 153.964844 62.453125 L 153.964844 77.90625 L 150.695312 77.90625 L 150.695312 54.089844 L 155.421875 54.089844 L 157.964844 67.542969 L 160.328125 54.089844 L 165.417969 54.089844 L 165.417969 77.90625 L 161.785156 77.90625 Z M 178.507812 62.453125 L 175.597656 77.90625 L 173.78125 77.90625 L 170.871094 62.453125 L 170.871094 77.90625 L 167.601562 77.90625 L 167.601562 54.089844 L 172.328125 54.089844 L 174.871094 67.542969 L 177.234375 54.089844 L 182.324219 54.089844 L 182.324219 77.90625 L 178.691406 77.90625 L 178.691406 62.453125 Z M 196.140625 54.089844 L 196.140625 72.085938 C 196.140625 75.722656 194.503906 78.269531 190.507812 78.269531 C 186.324219 78.269531 184.507812 75.90625 184.507812 72.085938 L 184.507812 54.089844 L 188.507812 54.089844 L 188.507812 72.632812 C 188.507812 74.085938 189.050781 74.996094 190.507812 74.996094 C 191.960938 74.996094 192.503906 74.085938 192.503906 72.632812 L 192.503906 54.089844 Z M 201.59375 63 L 201.59375 78.085938 L 198.140625 78.085938 L 198.140625 54.273438 L 202.140625 54.273438 L 206.503906 67.90625 L 206.503906 54.273438 L 209.777344 54.273438 L 209.777344 78.085938 L 206.320312 78.085938 Z M 212.140625 54.089844 L 216.136719 54.089844 L 216.136719 77.90625 L 212.140625 77.90625 Z M 217.957031 54.089844 L 228.683594 54.089844 L 228.683594 57.363281 L 225.410156 57.363281 L 225.410156 77.90625 L 221.230469 77.90625 L 221.230469 57.363281 L 217.957031 57.363281 Z M 230.5 54.089844 L 234.5 54.089844 L 234.5 77.90625 L 230.5 77.90625 Z M 236.679688 54.089844 L 246.316406 54.089844 L 246.316406 57.363281 L 240.679688 57.363281 L 240.679688 64.269531 L 244.679688 64.269531 L 244.679688 67.542969 L 240.679688 67.542969 L 240.679688 74.816406 L 246.316406 74.816406 L 246.316406 78.085938 L 236.679688 78.085938 Z M 247.953125 72.816406 L 247.953125 69.542969 L 251.769531 69.542969 L 251.769531 72.816406 C 251.769531 74.085938 252.316406 74.996094 253.769531 74.996094 C 255.042969 74.996094 255.585938 74.085938 255.585938 72.816406 L 255.585938 71.90625 C 255.585938 70.453125 255.042969 69.722656 253.769531 68.453125 L 251.40625 66.089844 C 249.042969 63.90625 248.132812 62.453125 248.132812 59.726562 L 248.132812 59 C 248.132812 56.089844 249.769531 53.726562 253.769531 53.726562 C 257.769531 53.726562 259.40625 55.726562 259.40625 59.179688 L 259.40625 61.179688 L 255.769531 61.179688 L 255.769531 59.179688 C 255.769531 57.726562 255.222656 57.179688 253.949219 57.179688 C 252.859375 57.179688 252.132812 57.726562 252.132812 59.179688 L 252.132812 59.726562 C 252.132812 61 252.859375 61.90625 253.949219 63 L 256.496094 65.542969 C 258.675781 67.726562 259.769531 69.179688 259.769531 71.722656 L 259.769531 72.816406 C 259.769531 76.085938 257.949219 78.449219 253.949219 78.449219 C 249.585938 78.269531 247.953125 75.90625 247.953125 72.816406 Z M 247.953125 72.816406 " fill-opacity="1" fill-rule="nonzero"/><path stroke-linecap="butt" transform="matrix(0.75, 0, 0, 0.75, -4.736836, -5.537046)" fill="none" stroke-linejoin="miter" d="M -0.0019274 0.00252002 L -0.0019274 389.955702 L 389.951255 389.955702 L 389.951255 0.00252002 L -0.0019274 0.00252002 " stroke="#ffffff" stroke-width="12" stroke-opacity="1" stroke-miterlimit="4"/></svg>