<svg xmlns="http://www.w3.org/2000/svg" xmlns:xlink="http://www.w3.org/1999/xlink" width="500" zoomAndPan="magnify" viewBox="0 0 375 281.999989" height="376" preserveAspectRatio="xMidYMid meet" version="1.0"><defs><clipPath id="44ed928334"><path d="M 72.132812 142 L 302.660156 142 L 302.660156 282 L 72.132812 282 Z M 72.132812 142 " clip-rule="nonzero"/></clipPath></defs><path fill="#fdfdfb" d="M 187.296875 97.039062 C 187.398438 97.039062 187.472656 97.039062 187.546875 97.039062 C 188.273438 97.0625 188.949219 97.289062 189.527344 97.714844 C 198.238281 104.121094 202.792969 114.738281 201.441406 125.453125 C 200.964844 129.433594 198.136719 132.738281 194.28125 133.863281 C 189.800781 135.167969 185.042969 135.167969 180.5625 133.863281 C 176.707031 132.738281 173.902344 129.433594 173.402344 125.453125 C 172.074219 114.738281 176.632812 104.121094 185.34375 97.714844 C 185.921875 97.289062 186.597656 97.0625 187.296875 97.039062 Z M 217.164062 70.050781 C 226.753906 69.800781 234.738281 77.359375 235.015625 86.949219 C 235.015625 87.125 235.015625 87.296875 235.015625 87.472656 C 235.015625 97.0625 227.230469 104.847656 217.640625 104.847656 C 208.027344 104.847656 200.265625 97.0625 200.265625 87.472656 C 200.242188 78.035156 207.726562 70.324219 217.164062 70.050781 Z M 156.753906 70.050781 C 166.34375 69.800781 174.328125 77.359375 174.605469 86.949219 C 174.605469 87.125 174.605469 87.296875 174.605469 87.472656 C 174.605469 97.0625 166.84375 104.847656 157.230469 104.847656 C 147.640625 104.847656 139.855469 97.0625 139.855469 87.472656 C 139.828125 78.035156 147.316406 70.324219 156.753906 70.050781 Z M 186.796875 0 C 176.433594 0.0742188 166.191406 2.152344 156.628906 6.109375 C 137.074219 14.195312 123.90625 32.796875 122.78125 53.925781 C 121.855469 71.074219 123.230469 88.273438 126.8125 105.074219 C 129.414062 117.140625 139.027344 126.480469 151.195312 128.65625 C 153.925781 129.15625 156.003906 131.386719 156.304688 134.140625 L 158.054688 150.363281 C 158.605469 155.59375 162.0625 160.078125 166.945312 161.980469 C 180.113281 167.136719 194.734375 167.136719 207.875 161.980469 C 212.785156 160.078125 216.214844 155.59375 216.789062 150.363281 L 218.566406 134.140625 C 218.867188 131.386719 220.945312 129.15625 223.675781 128.65625 C 235.839844 126.480469 245.453125 117.140625 248.058594 105.074219 C 251.636719 88.273438 252.992188 71.074219 252.089844 53.925781 C 250.960938 32.796875 237.792969 14.195312 218.214844 6.109375 C 208.253906 1.976562 197.5625 -0.101562 186.796875 0 " fill-opacity="1" fill-rule="nonzero"/><g clip-path="url(#44ed928334)"><path fill="#fdfdfb" d="M 261.128906 230.828125 C 260.601562 231.277344 259.875 231.402344 259.25 231.078125 L 227.128906 215.429688 L 272.820312 193.125 C 273.445312 192.824219 274.195312 192.921875 274.722656 193.398438 C 281.554688 199.609375 292.144531 199.105469 298.355469 192.273438 C 304.5625 185.4375 304.039062 174.847656 297.203125 168.640625 C 295.777344 167.335938 294.097656 166.285156 292.296875 165.535156 C 291.496094 165.210938 291.070312 164.332031 291.292969 163.507812 C 293.796875 154.59375 288.617188 145.355469 279.726562 142.851562 C 270.839844 140.347656 261.601562 145.53125 259.097656 154.417969 C 258.574219 156.296875 258.375 158.25 258.523438 160.203125 C 258.574219 160.902344 258.171875 161.554688 257.546875 161.855469 L 187.421875 196.078125 L 117.273438 161.855469 C 116.648438 161.554688 116.273438 160.902344 116.320312 160.203125 C 116.996094 150.988281 110.085938 142.953125 100.875 142.277344 C 91.660156 141.601562 83.625 148.511719 82.949219 157.722656 C 82.800781 159.675781 83 161.628906 83.523438 163.507812 C 83.777344 164.332031 83.324219 165.210938 82.523438 165.535156 C 73.988281 169.039062 69.878906 178.804688 73.386719 187.367188 C 76.890625 195.902344 86.65625 200.007812 95.191406 196.503906 C 97.019531 195.753906 98.671875 194.726562 100.097656 193.398438 C 100.625 192.921875 101.375 192.824219 102 193.125 L 147.691406 215.429688 L 115.59375 231.078125 C 114.96875 231.402344 114.21875 231.277344 113.691406 230.828125 C 106.859375 224.617188 96.292969 225.121094 90.085938 231.953125 C 83.851562 238.789062 84.375 249.378906 91.210938 255.585938 C 92.664062 256.890625 94.316406 257.941406 96.117188 258.691406 C 96.917969 259.015625 97.371094 259.894531 97.121094 260.71875 C 94.617188 269.605469 99.796875 278.871094 108.6875 281.375 C 117.574219 283.878906 126.8125 278.695312 129.316406 269.808594 C 129.839844 267.929688 130.042969 265.976562 129.890625 264.023438 C 129.867188 263.324219 130.242188 262.671875 130.867188 262.371094 L 187.421875 234.78125 L 243.953125 262.371094 C 244.578125 262.671875 244.980469 263.324219 244.929688 264.023438 C 244.226562 273.238281 251.164062 281.273438 260.375 281.949219 C 269.589844 282.625 277.601562 275.714844 278.277344 266.503906 C 278.425781 264.550781 278.226562 262.597656 277.699219 260.71875 C 277.476562 259.894531 277.902344 259.015625 278.703125 258.691406 C 287.265625 255.1875 291.34375 245.421875 287.839844 236.859375 C 284.335938 228.324219 274.570312 224.21875 266.035156 227.722656 C 264.230469 228.449219 262.554688 229.5 261.128906 230.828125 " fill-opacity="1" fill-rule="nonzero"/></g></svg>