<svg xmlns="http://www.w3.org/2000/svg" xmlns:xlink="http://www.w3.org/1999/xlink" width="128" zoomAndPan="magnify" viewBox="0 0 96 95.999999" height="128" preserveAspectRatio="xMidYMid meet" version="1.0"><defs><clipPath id="d0c464ff8c"><path d="M 31 11.90625 L 65 11.90625 L 65 55 L 31 55 Z M 31 11.90625 " clip-rule="nonzero"/></clipPath><clipPath id="fdd90305b9"><path d="M 18.472656 48 L 77.472656 48 L 77.472656 83.90625 L 18.472656 83.90625 Z M 18.472656 48 " clip-rule="nonzero"/></clipPath></defs><g clip-path="url(#d0c464ff8c)"><path fill="#009ddb" d="M 47.945312 36.742188 C 47.972656 36.742188 47.992188 36.742188 48.011719 36.742188 C 48.195312 36.75 48.371094 36.808594 48.515625 36.917969 C 50.746094 38.558594 51.914062 41.273438 51.566406 44.015625 C 51.445312 45.035156 50.722656 45.878906 49.734375 46.167969 C 48.585938 46.503906 47.371094 46.503906 46.222656 46.167969 C 45.234375 45.878906 44.519531 45.035156 44.390625 44.015625 C 44.050781 41.273438 45.21875 38.558594 47.445312 36.917969 C 47.59375 36.808594 47.765625 36.75 47.945312 36.742188 Z M 55.589844 29.835938 C 58.046875 29.773438 60.089844 31.707031 60.160156 34.160156 C 60.160156 34.207031 60.160156 34.25 60.160156 34.296875 C 60.160156 36.75 58.167969 38.742188 55.710938 38.742188 C 53.253906 38.742188 51.265625 36.75 51.265625 34.296875 C 51.257812 31.878906 53.175781 29.90625 55.589844 29.835938 Z M 40.128906 29.835938 C 42.582031 29.773438 44.628906 31.707031 44.699219 34.160156 C 44.699219 34.207031 44.699219 34.25 44.699219 34.296875 C 44.699219 36.75 42.710938 38.742188 40.25 38.742188 C 37.796875 38.742188 35.804688 36.75 35.804688 34.296875 C 35.796875 31.878906 37.714844 29.90625 40.128906 29.835938 Z M 47.820312 11.90625 C 45.164062 11.925781 42.546875 12.457031 40.097656 13.472656 C 35.09375 15.539062 31.722656 20.300781 31.433594 25.710938 C 31.195312 30.097656 31.550781 34.5 32.464844 38.800781 C 33.132812 41.890625 35.59375 44.277344 38.707031 44.835938 C 39.40625 44.964844 39.9375 45.535156 40.015625 46.238281 L 40.460938 50.390625 C 40.605469 51.730469 41.488281 52.878906 42.738281 53.363281 C 46.109375 54.683594 49.851562 54.683594 53.214844 53.363281 C 54.46875 52.878906 55.347656 51.730469 55.496094 50.390625 L 55.949219 46.238281 C 56.027344 45.535156 56.558594 44.964844 57.257812 44.835938 C 60.371094 44.277344 62.832031 41.890625 63.5 38.800781 C 64.414062 34.5 64.761719 30.097656 64.53125 25.710938 C 64.242188 20.300781 60.871094 15.539062 55.859375 13.472656 C 53.308594 12.414062 50.574219 11.882812 47.820312 11.90625 " fill-opacity="1" fill-rule="nonzero"/></g><g clip-path="url(#fdd90305b9)"><path fill="#009ddb" d="M 66.84375 70.984375 C 66.707031 71.101562 66.523438 71.132812 66.363281 71.050781 L 58.140625 67.046875 L 69.835938 61.335938 C 69.996094 61.257812 70.1875 61.285156 70.320312 61.40625 C 72.070312 62.996094 74.78125 62.867188 76.371094 61.117188 C 77.960938 59.367188 77.824219 56.660156 76.078125 55.070312 C 75.710938 54.734375 75.28125 54.46875 74.820312 54.273438 C 74.617188 54.191406 74.507812 53.96875 74.5625 53.753906 C 75.203125 51.472656 73.878906 49.109375 71.605469 48.46875 C 69.328125 47.828125 66.964844 49.15625 66.324219 51.429688 C 66.1875 51.910156 66.136719 52.410156 66.175781 52.910156 C 66.1875 53.089844 66.085938 53.257812 65.925781 53.332031 L 47.980469 62.09375 L 30.023438 53.332031 C 29.863281 53.257812 29.769531 53.089844 29.78125 52.910156 C 29.953125 50.550781 28.183594 48.496094 25.828125 48.320312 C 23.46875 48.148438 21.414062 49.917969 21.238281 52.277344 C 21.199219 52.773438 21.253906 53.273438 21.386719 53.753906 C 21.449219 53.96875 21.335938 54.191406 21.128906 54.273438 C 18.945312 55.171875 17.894531 57.671875 18.792969 59.863281 C 19.6875 62.046875 22.1875 63.097656 24.371094 62.199219 C 24.839844 62.007812 25.261719 61.746094 25.628906 61.40625 C 25.761719 61.285156 25.957031 61.257812 26.117188 61.335938 L 37.808594 67.046875 L 29.59375 71.050781 C 29.433594 71.132812 29.242188 71.101562 29.109375 70.984375 C 27.359375 69.398438 24.65625 69.523438 23.066406 71.273438 C 21.46875 73.023438 21.605469 75.734375 23.355469 77.324219 C 23.726562 77.65625 24.148438 77.925781 24.609375 78.117188 C 24.816406 78.199219 24.929688 78.425781 24.867188 78.636719 C 24.226562 80.910156 25.550781 83.28125 27.828125 83.921875 C 30.101562 84.5625 32.464844 83.238281 33.105469 80.960938 C 33.242188 80.480469 33.292969 79.980469 33.253906 79.484375 C 33.246094 79.304688 33.34375 79.136719 33.503906 79.058594 L 47.980469 72 L 62.445312 79.058594 C 62.605469 79.136719 62.710938 79.304688 62.695312 79.484375 C 62.519531 81.839844 64.292969 83.898438 66.652344 84.070312 C 69.007812 84.242188 71.058594 82.476562 71.230469 80.117188 C 71.269531 79.617188 71.21875 79.117188 71.085938 78.636719 C 71.027344 78.425781 71.136719 78.199219 71.339844 78.117188 C 73.53125 77.21875 74.578125 74.722656 73.679688 72.53125 C 72.78125 70.34375 70.285156 69.292969 68.097656 70.191406 C 67.636719 70.378906 67.207031 70.644531 66.84375 70.984375 " fill-opacity="1" fill-rule="nonzero"/></g></svg>