<svg xmlns="http://www.w3.org/2000/svg" xmlns:xlink="http://www.w3.org/1999/xlink" width="600" zoomAndPan="magnify" viewBox="0 0 450 74.999997" height="100" preserveAspectRatio="xMidYMid meet" version="1.0"><path fill="#fd9d24" d="M 119.476562 -4.574219 C 119.691406 -4.601562 119.90625 -4.628906 120.121094 -4.660156 C 120.128906 -2.167969 120.148438 0.324219 120.125 2.8125 C 120.0625 3.695312 120.367188 4.546875 120.375 5.417969 C 120.117188 6.628906 120.089844 7.867188 120.199219 9.097656 C 121.179688 9.132812 122.128906 9.382812 123.078125 9.605469 C 123.148438 10.101562 123.191406 10.601562 123.25 11.101562 C 123.691406 11.3125 124.136719 11.519531 124.582031 11.738281 C 124.785156 15.5 124.019531 53.039062 125.183594 56.628906 C 125.824219 58.382812 125.425781 60.289062 125.492188 62.113281 C 125.769531 62.109375 126.050781 62.105469 126.335938 62.105469 C 126.460938 59.996094 126.984375 62.1875 126.941406 53.792969 C 127.53125 53.738281 128.117188 53.6875 128.710938 53.625 C 128.753906 53.226562 128.808594 52.832031 128.867188 52.4375 C 129.457031 52.449219 130.042969 52.449219 130.636719 52.449219 C 130.796875 53.191406 131.316406 53.703125 132.0625 53.863281 C 132.128906 55.695312 132.019531 57.53125 132.132812 59.363281 C 132.28125 59.359375 132.582031 59.355469 132.730469 59.351562 C 132.722656 54.414062 132.730469 49.480469 132.773438 44.542969 C 135.1875 44.441406 137.605469 44.457031 140.019531 44.574219 C 140.105469 48.800781 139.609375 48.652344 141.109375 49.546875 C 141.449219 23.40625 140.242188 29.207031 142.871094 27 C 143.046875 25.070312 142.742188 23.117188 142.972656 21.191406 C 143.3125 20.398438 143.839844 19.691406 144.148438 18.882812 C 144.382812 19.324219 144.617188 19.773438 144.851562 20.222656 C 146.167969 20.175781 147.480469 20.207031 148.792969 20.230469 C 148.824219 20.601562 148.855469 20.976562 148.886719 21.347656 C 149.078125 21.34375 149.269531 21.34375 149.460938 21.339844 C 149.523438 20.949219 149.589844 20.558594 149.664062 20.167969 C 149.980469 20.160156 150.300781 20.160156 150.621094 20.152344 C 150.761719 22.605469 150.539062 34.320312 150.664062 39.175781 C 151.242188 39.191406 151.824219 39.183594 152.40625 39.175781 C 152.433594 43.171875 152.304688 47.175781 152.464844 51.171875 C 153.160156 51.179688 153.855469 51.171875 154.554688 51.160156 C 154.582031 51.878906 154.609375 52.601562 154.632812 53.320312 C 155.238281 53.34375 155.84375 53.351562 156.449219 53.359375 C 155.675781 50.910156 156.410156 53.105469 156.03125 41.28125 C 156.347656 36.167969 155.828125 31.039062 156.152344 25.933594 C 159.476562 25.882812 162.800781 25.921875 166.125 25.894531 C 166.375 28.988281 166.027344 32.089844 166.148438 35.1875 C 167.082031 35.292969 167.960938 34.972656 168.855469 34.78125 C 172.824219 35.679688 171.878906 35.09375 171.902344 39.539062 C 173.5 39.496094 175.101562 39.503906 176.699219 39.617188 C 176.710938 39.945312 176.730469 40.273438 176.746094 40.605469 C 178.796875 41.964844 177.710938 41.605469 179.847656 41.800781 C 179.875 50.730469 179.589844 50.988281 180.363281 51.109375 C 180.527344 46.710938 180.316406 42.304688 180.421875 37.90625 C 182 37.707031 183.410156 36.832031 184.988281 36.691406 C 186.78125 37.0625 188.617188 36.945312 190.433594 36.96875 C 190.511719 40.652344 190.382812 44.335938 190.507812 48.011719 C 191.753906 47.804688 190.566406 31.847656 191.082031 27.304688 C 191.257812 27.265625 195.75 26.191406 196.285156 25.832031 C 196.523438 25.398438 196.691406 24.933594 196.890625 24.480469 C 197.128906 24.820312 197.371094 25.15625 197.617188 25.492188 C 200.347656 25.246094 203.078125 25.453125 205.808594 25.480469 C 205.964844 31.511719 205.742188 37.554688 205.863281 43.589844 C 206.578125 43.617188 207.292969 43.636719 208.007812 43.671875 C 208.050781 44.09375 208.09375 44.519531 208.140625 44.941406 C 209.796875 44.984375 211.453125 44.992188 213.113281 44.945312 C 213.105469 43.453125 213.015625 41.964844 213.125 40.476562 C 214.191406 40.496094 215.261719 40.515625 216.328125 40.445312 C 216.347656 39.300781 216.234375 38.136719 216.523438 37.019531 C 216.863281 35.742188 216.808594 34.382812 217.238281 33.125 C 217.710938 32.246094 217.703125 33.144531 219.546875 28.542969 C 220 27.496094 219.785156 26.316406 220.03125 25.222656 C 220.171875 24.601562 220.289062 23.972656 220.375 23.339844 C 220.722656 23.796875 220.933594 24.335938 220.882812 24.917969 C 220.699219 28.390625 222.703125 31.136719 223.492188 32.789062 C 224.300781 35.46875 224.167969 34.757812 224.144531 49.277344 C 224.589844 49.28125 225.039062 49.285156 225.492188 49.285156 C 225.554688 44.917969 225.550781 40.546875 225.546875 36.179688 C 225.519531 35.28125 225.949219 34.453125 225.972656 33.558594 C 226.003906 32.695312 225.933594 31.808594 226.191406 30.96875 C 226.589844 29.726562 226.402344 28.40625 226.496094 27.125 C 226.476562 26.582031 226.972656 26.25 227.234375 25.824219 C 227.847656 25.019531 227.609375 23.859375 228.261719 23.082031 C 229.125 22.070312 228.992188 20.644531 229.328125 19.429688 C 229.792969 17.9375 229.53125 16.363281 229.566406 14.832031 C 229.609375 14.832031 229.699219 14.835938 229.746094 14.839844 C 229.578125 22.558594 230.269531 20.398438 228.90625 22.636719 C 229.585938 22.769531 230.273438 22.867188 230.96875 22.929688 C 231.160156 23.71875 231.347656 24.503906 231.558594 25.289062 C 231.742188 25.953125 232.496094 26.375 232.433594 27.117188 C 232.4375 27.867188 232.511719 28.621094 232.753906 29.335938 C 234.761719 28.878906 236.851562 28.953125 238.886719 29.109375 C 240.070312 30.953125 241.71875 32.449219 243.4375 33.796875 C 243.445312 33.886719 243.453125 49.179688 243.453125 49.273438 C 244.320312 49.292969 245.21875 49.128906 246.054688 49.445312 C 247.308594 49.929688 248.679688 49.59375 249.988281 49.714844 C 250.320312 49.285156 250.660156 48.863281 251.027344 48.460938 C 251.59375 48.90625 252.207031 49.359375 252.972656 49.308594 C 253.042969 34.347656 252.171875 31.835938 256.101562 31.066406 C 256.101562 30.558594 256.097656 30.050781 256.097656 29.546875 C 256.476562 29.300781 256.859375 29.046875 257.28125 28.867188 C 257.859375 29.402344 257.429688 30.296875 257.710938 30.960938 C 257.878906 31.335938 258.105469 31.683594 258.28125 32.058594 C 258.558594 32.613281 258.597656 33.402344 259.355469 33.480469 C 259.597656 33.167969 259.6875 32.585938 260.183594 32.597656 C 263.671875 32.382812 261.484375 32.871094 265.542969 33.480469 C 265.546875 34.617188 265.539062 35.753906 265.546875 36.890625 C 266.441406 36.960938 267.335938 36.984375 268.234375 36.996094 C 268.320312 40.183594 268.214844 43.371094 268.28125 46.5625 C 268.714844 46.738281 269.152344 46.917969 269.589844 47.101562 C 269.691406 48.597656 269.652344 50.097656 269.707031 51.597656 C 269.957031 51.597656 270.207031 51.59375 270.460938 51.59375 C 271.582031 46.738281 271.539062 47.53125 276.75 47.589844 C 277.058594 47.621094 277.480469 47.566406 277.617188 47.925781 C 278.398438 49.851562 279.351562 51.773438 279.386719 53.894531 C 279.367188 54.660156 280.261719 55.082031 280.191406 55.859375 C 280.203125 60.597656 280.109375 65.335938 280.242188 70.074219 C 280.988281 70.09375 281.738281 70.09375 282.488281 70.074219 C 282.535156 68.011719 282.425781 65.941406 282.539062 63.878906 C 283.394531 63.839844 284.253906 63.828125 285.113281 63.8125 C 285.140625 63.109375 285.175781 62.410156 285.226562 61.710938 C 286.199219 61.714844 287.171875 61.714844 288.148438 61.726562 C 288.242188 72.476562 287.863281 72.683594 288.707031 72.769531 C 288.878906 69.460938 288.738281 47.339844 288.742188 47.316406 C 289.300781 46.324219 290.574219 46.742188 291.484375 46.511719 C 293.675781 45.796875 295.878906 46.210938 296.542969 46.664062 C 297.058594 46.945312 297.34375 47.476562 297.636719 47.964844 C 299.890625 47.820312 302.140625 48.074219 304.398438 48.023438 C 304.726562 49.183594 304.578125 55.320312 304.570312 55.496094 C 306.027344 55.421875 307.484375 55.492188 308.941406 55.441406 C 309.054688 54.71875 309.175781 54 309.355469 53.292969 C 310.085938 54.179688 309.945312 55.503906 310.785156 56.316406 C 311.914062 57.808594 311.496094 55.417969 311.625 69.207031 C 312.890625 69.34375 314.007812 68.605469 315.261719 68.628906 C 315.378906 65.199219 315.085938 52.511719 315.246094 47.0625 C 316.539062 46.984375 317.835938 47.050781 319.121094 47.207031 C 319.550781 46.667969 319.96875 46.113281 320.363281 45.539062 C 321.160156 46.070312 322.09375 46.296875 323.046875 46.269531 C 323.113281 46.558594 323.179688 46.847656 323.253906 47.140625 C 324.230469 47.152344 325.207031 47.199219 326.183594 47.289062 C 326.296875 48.53125 326.28125 49.78125 326.234375 51.023438 C 327.796875 51.035156 329.148438 51.972656 330.707031 52.078125 C 331.003906 52.496094 331.398438 52.820312 331.863281 53.042969 C 332.097656 54.621094 331.972656 56.214844 331.976562 57.800781 C 333.902344 57.710938 335.824219 57.570312 337.753906 57.691406 C 337.859375 54.664062 337.679688 40.789062 337.804688 33.800781 C 339.109375 33.746094 340.414062 33.761719 341.71875 33.757812 C 341.707031 32.4375 341.871094 31.128906 341.835938 29.8125 C 343.257812 29.757812 344.683594 29.804688 346.105469 29.78125 C 346.640625 27.972656 346.058594 28.28125 348.289062 28.015625 C 348.324219 24.449219 348.160156 20.863281 348.539062 17.316406 C 349.023438 18.347656 348.890625 24.441406 348.914062 27.9375 C 349.703125 28.039062 350.347656 28.488281 350.90625 29.027344 C 351.40625 29.527344 352.265625 29.597656 352.695312 30.117188 C 352.886719 31.554688 352.753906 50.96875 352.785156 71.941406 C 353.675781 71.96875 354.566406 71.96875 355.457031 71.945312 C 355.492188 69.734375 355.363281 54.671875 355.570312 52.476562 C 356.316406 52.449219 357.0625 52.410156 357.808594 52.347656 C 357.851562 51.046875 357.59375 49.679688 358.144531 48.449219 C 359.414062 48.433594 360.6875 48.429688 361.960938 48.484375 C 362.109375 49.734375 362.085938 50.992188 362.019531 52.25 C 363.65625 53.320312 363.238281 51.554688 363.265625 59.894531 C 364.613281 59.859375 365.96875 59.820312 367.316406 59.925781 C 367.480469 61.5 367.324219 63.082031 367.371094 64.660156 C 368.082031 64.894531 368.832031 65 369.554688 65.207031 C 369.554688 66.222656 369.488281 67.238281 369.554688 68.253906 C 370.464844 68.277344 371.378906 68.273438 372.292969 68.289062 C 372.273438 66.871094 372.148438 52.125 372.390625 50.695312 C 373.800781 50.742188 375.230469 50.617188 376.636719 50.808594 C 377.78125 51.117188 378.917969 51.515625 380.117188 51.550781 C 380.136719 51.972656 380.15625 52.394531 380.183594 52.820312 C 380.824219 52.804688 381.46875 52.785156 382.113281 52.765625 C 382.113281 52.078125 382.109375 51.390625 382.121094 50.707031 C 383.054688 50.558594 384 50.5625 384.945312 50.65625 C 384.996094 50.964844 385.054688 51.277344 385.121094 51.585938 C 385.996094 51.59375 386.878906 51.597656 387.761719 51.597656 C 387.796875 51.144531 387.824219 50.691406 387.855469 50.238281 C 388.816406 50.238281 389.777344 50.207031 390.738281 50.195312 C 390.738281 50.195312 390.890625 65.054688 390.804688 72.386719 C 391.117188 72.375 391.429688 72.371094 391.746094 72.363281 C 391.886719 69.449219 391.703125 40.9375 391.777344 40.011719 C 392.796875 39.945312 393.820312 39.953125 394.847656 39.992188 C 394.789062 37.742188 394.765625 24.109375 394.859375 22.328125 C 396.625 22.199219 398.390625 22.28125 400.152344 22.347656 C 400.195312 21.582031 400.167969 20.8125 400.171875 20.050781 C 400.136719 19.472656 400.65625 19.050781 400.691406 18.492188 C 400.570312 15.996094 400.605469 13.496094 400.539062 10.996094 C 400.597656 10.308594 400.359375 9.453125 400.945312 8.941406 C 403.355469 6.472656 401.957031 7.929688 402.429688 -2.835938 C 402.664062 -3.015625 402.910156 -3.199219 403.15625 -3.382812 C 403.214844 0.164062 403.027344 3.710938 403.175781 7.253906 C 403.066406 8.382812 404.5625 8.78125 404.535156 9.875 C 404.554688 12.683594 404.582031 15.5 404.410156 18.304688 C 404.316406 19.066406 405.328125 19.324219 405.304688 20.050781 C 405.332031 21.300781 405.226562 22.550781 405.238281 23.804688 C 405.621094 23.757812 406.011719 23.714844 406.40625 23.675781 C 406.429688 22.851562 406.351562 22.019531 406.492188 21.207031 C 406.816406 20.503906 407.667969 20.394531 408.304688 20.097656 C 409.296875 19.78125 409.902344 18.796875 412.820312 19.339844 C 415.03125 20.132812 413.054688 18.640625 413.75 62.125 C 416.089844 62.109375 418.433594 62.078125 420.769531 62.191406 C 420.847656 65.121094 420.707031 68.054688 420.792969 70.988281 C 421.019531 71.023438 421.25 71.0625 421.488281 71.101562 C 421.4375 69.601562 421.449219 68.105469 421.449219 66.609375 C 421.609375 66.613281 421.9375 66.617188 422.097656 66.621094 C 422.105469 68.21875 422.050781 69.816406 422.113281 71.410156 C 425.480469 71.585938 423.683594 71.433594 426.246094 70.828125 C 426.550781 65.992188 425.730469 46.355469 426.78125 45.863281 C 427.738281 45.722656 428.722656 45.78125 429.691406 45.722656 C 429.75 45.46875 429.816406 45.214844 429.886719 44.960938 C 430.621094 44.902344 431.273438 44.566406 431.761719 44.007812 C 432.039062 44.300781 432.316406 44.59375 432.605469 44.882812 C 436.78125 44.59375 436.753906 45.214844 438.585938 44.472656 C 439.09375 44.667969 439.613281 44.839844 440.140625 44.992188 C 440.28125 45.257812 440.417969 45.523438 440.601562 45.773438 C 441.148438 45.933594 441.226562 45.246094 441.460938 44.910156 C 441.621094 44.898438 441.789062 44.886719 441.960938 44.875 C 442.027344 45.136719 442.101562 45.398438 442.179688 45.660156 C 442.582031 45.710938 442.984375 45.757812 443.398438 45.808594 C 443.492188 47.476562 443.453125 60.949219 443.421875 62.996094 C 443.714844 62.992188 444.007812 62.988281 444.3125 62.980469 C 444.441406 61.84375 443.941406 60.417969 444.902344 59.539062 C 445.558594 58.792969 446.707031 58.429688 446.933594 57.359375 C 447.027344 56.1875 447.140625 54.941406 446.691406 53.824219 C 446.921875 53.539062 447.179688 53.269531 447.367188 52.945312 C 447.496094 52.203125 447.320312 51.417969 447.558594 50.699219 C 448.089844 50.136719 448.878906 49.945312 449.527344 49.546875 C 449.949219 48.144531 449.261719 46.679688 449.640625 45.257812 C 449.875 44.269531 449.144531 43.480469 448.828125 42.613281 C 449.042969 41.980469 449.328125 41.273438 449.90625 40.886719 C 451.367188 40.855469 450.957031 41.269531 450.964844 76.65625 L -1.382812 76.65625 L -1.382812 36.980469 C -1.046875 37.273438 -0.722656 37.605469 -0.292969 37.757812 C 0.0507812 37.613281 0.363281 37.410156 0.683594 37.222656 C 0.914062 37.542969 1.132812 37.871094 1.382812 38.175781 C 2.089844 38.074219 2.507812 37.386719 3.042969 36.976562 C 3.828125 37.835938 4.828125 38.417969 5.84375 38.957031 C 6.121094 39.605469 5.976562 40.359375 6.070312 41.054688 C 6.394531 40.972656 6.761719 40.902344 6.902344 40.550781 C 7.660156 39.125 8.585938 37.6875 8.574219 36.011719 C 8.664062 36.078125 8.839844 36.210938 8.933594 36.277344 C 9.175781 37.875 9.890625 39.339844 10.671875 40.742188 C 14.140625 47.050781 12.847656 44.121094 13.164062 47.007812 C 13.449219 47.070312 13.734375 47.125 14.015625 47.183594 C 14.15625 48.828125 14.085938 58.230469 14.0625 59.828125 C 14.4375 59.886719 14.816406 59.945312 15.195312 60.007812 C 15.351562 60.246094 15.417969 60.578125 15.675781 60.738281 C 16.488281 60.808594 17.308594 60.773438 18.125 60.789062 C 18.140625 60.105469 18.117188 59.421875 18.179688 58.738281 C 18.25 57.996094 18.605469 57.304688 18.617188 56.554688 C 18.695312 55.152344 18.371094 53.667969 19.019531 52.351562 C 19.203125 51.730469 19.851562 51.503906 20.375 51.238281 C 20.050781 46.851562 22.234375 44.828125 22.929688 44.976562 C 24.160156 45.132812 25.15625 46.046875 25.777344 47.078125 C 26.242188 47.910156 27.066406 48.433594 27.632812 49.179688 C 27.824219 50.015625 27.761719 50.886719 27.855469 51.734375 C 28.816406 51.613281 29.675781 51.03125 30.660156 51.109375 C 32.984375 51.082031 35.3125 51.160156 37.628906 51.015625 C 37.773438 49.351562 37.320312 47.507812 38.21875 46.003906 C 38.542969 45.832031 38.90625 45.753906 39.253906 45.644531 C 39.390625 41.957031 39.808594 45.050781 39.847656 39.941406 C 40.121094 39.722656 40.398438 39.503906 40.671875 39.289062 C 40.597656 37.976562 41.4375 36.765625 41.003906 35.460938 L 41.566406 35.460938 C 41.148438 36.765625 41.96875 37.984375 41.894531 39.292969 C 42.164062 39.511719 42.4375 39.730469 42.710938 39.949219 C 42.714844 41.027344 42.542969 42.148438 42.925781 43.1875 C 43.152344 43.832031 43.164062 44.523438 43.367188 45.167969 C 43.667969 45.78125 44.050781 46.355469 44.246094 47.015625 C 44.703125 48.261719 44.351562 49.605469 44.550781 50.886719 C 45.152344 51.949219 44.910156 51.523438 49.914062 51.515625 C 49.921875 45.476562 49.855469 39.4375 49.945312 33.398438 C 50.359375 33.359375 50.773438 33.320312 51.191406 33.28125 C 51.238281 32.886719 51.285156 32.496094 51.328125 32.105469 C 52.011719 31.925781 52.691406 31.75 53.386719 31.632812 C 53.472656 31.386719 53.554688 31.140625 53.640625 30.894531 C 54.035156 30.632812 54.625 30.472656 54.722656 29.941406 C 55.429688 27.511719 56.105469 28.996094 57.625 28.914062 C 59.058594 28.875 60.523438 29.160156 61.910156 28.675781 C 62.84375 28.382812 63.136719 29.578125 63.234375 30.257812 C 63.933594 30.304688 64.636719 30.328125 65.339844 30.335938 C 65.933594 31.074219 65.816406 32.03125 65.804688 32.917969 C 66.246094 32.917969 66.683594 32.917969 67.125 32.914062 C 67.1875 32.636719 67.25 32.359375 67.3125 32.082031 C 68.46875 32.148438 69.652344 31.96875 70.792969 32.164062 C 71.410156 32.597656 72.027344 33.074219 72.832031 33.039062 C 72.703125 38.636719 72.691406 61.277344 72.785156 63.914062 C 73.171875 63.96875 73.5625 64.019531 73.953125 64.070312 C 74.074219 64.269531 74.195312 64.46875 74.320312 64.667969 C 75.339844 64.960938 76.351562 65.421875 77.4375 65.210938 C 77.421875 57.308594 77.523438 49.40625 77.425781 41.503906 C 78.15625 41.09375 78.863281 40.640625 79.53125 40.140625 C 80.25 40.742188 81.097656 41.140625 81.90625 41.605469 C 82.078125 41.902344 81.972656 53.628906 81.972656 53.804688 C 83.183594 53.722656 84.398438 53.765625 85.617188 53.777344 C 85.636719 54.527344 85.554688 55.289062 85.699219 56.03125 C 85.945312 56.417969 86.453125 56.6875 86.429688 57.199219 C 86.476562 58.117188 86.433594 59.035156 86.492188 59.953125 C 87.914062 60.015625 89.335938 60.042969 90.757812 60.023438 C 90.722656 55.738281 90.78125 51.457031 90.722656 47.171875 C 91.578125 47.15625 92.433594 47.152344 93.292969 47.152344 C 93.351562 45.972656 93.222656 44.792969 93.277344 43.609375 C 93.605469 43.546875 93.929688 43.480469 94.261719 43.414062 C 93.960938 23.257812 94.550781 34.746094 94.777344 25.132812 C 96.457031 24.464844 98.441406 24.390625 100.089844 25.191406 C 100.304688 26.417969 100.125 27.675781 100.199219 28.914062 C 100.230469 29.523438 100.589844 30.054688 100.640625 30.660156 C 100.71875 31.917969 100.613281 33.179688 100.664062 34.441406 C 100.691406 35.410156 101.167969 36.304688 101.183594 37.28125 C 101.265625 39.375 101.160156 41.46875 101.210938 43.5625 C 101.546875 43.550781 101.878906 43.542969 102.214844 43.527344 C 102.242188 42.542969 102.265625 41.554688 102.257812 40.570312 C 102.816406 40.539062 103.375 40.511719 103.933594 40.480469 C 103.972656 39.960938 103.957031 39.429688 104.078125 38.921875 C 105.164062 36.804688 104.785156 41.984375 104.832031 18.453125 C 105.492188 18.238281 106.125 17.9375 106.800781 17.761719 C 107.28125 17.746094 107.746094 17.949219 108.234375 17.921875 C 109.535156 17.722656 110.832031 18.078125 112.140625 17.929688 C 112.1875 18.386719 112.25 18.84375 112.324219 19.296875 C 112.535156 19 112.726562 18.691406 112.910156 18.375 C 113.59375 18.359375 114.277344 18.367188 114.964844 18.355469 C 114.996094 16.011719 114.78125 13.660156 114.992188 11.320312 C 115.421875 11.144531 115.855469 10.972656 116.289062 10.808594 C 116.359375 10.40625 116.429688 10.003906 116.507812 9.605469 C 117.445312 9.414062 118.367188 9.164062 119.292969 8.941406 C 119.523438 4.441406 119.265625 -0.0742188 119.476562 -4.574219 Z M 119.476562 -4.574219 " fill-opacity="1" fill-rule="nonzero"/></svg>