<svg xmlns="http://www.w3.org/2000/svg" xmlns:xlink="http://www.w3.org/1999/xlink" width="400" zoomAndPan="magnify" viewBox="0 0 300 299.999988" height="400" preserveAspectRatio="xMidYMid meet" version="1.0"><defs><g/><clipPath id="593842e69b"><path d="M 56.25 0 L 243.75 0 C 258.667969 0 272.976562 5.925781 283.523438 16.476562 C 294.074219 27.023438 300 41.332031 300 56.25 L 300 243.75 C 300 258.667969 294.074219 272.976562 283.523438 283.523438 C 272.976562 294.074219 258.667969 300 243.75 300 L 56.25 300 C 41.332031 300 27.023438 294.074219 16.476562 283.523438 C 5.925781 272.976562 0 258.667969 0 243.75 L 0 56.25 C 0 41.332031 5.925781 27.023438 16.476562 16.476562 C 27.023438 5.925781 41.332031 0 56.25 0 Z M 56.25 0 " clip-rule="nonzero"/></clipPath></defs><g clip-path="url(#593842e69b)"><rect x="-30" width="360" fill="#fd9d24" y="-29.999999" height="359.999986" fill-opacity="1"/></g><g fill="#ffffff" fill-opacity="1"><g transform="translate(66.673462, 229.315842)"><g><path d="M 5.921875 -125.390625 L 5.921875 -160.3125 L 66.765625 -160.3125 L 66.765625 0 L 27.671875 0 L 27.671875 -125.390625 Z M 5.921875 -125.390625 "/></g></g></g><g fill="#ffffff" fill-opacity="1"><g transform="translate(149.24609, 229.315842)"><g><path d="M 5.921875 -125.390625 L 5.921875 -160.3125 L 66.765625 -160.3125 L 66.765625 0 L 27.671875 0 L 27.671875 -125.390625 Z M 5.921875 -125.390625 "/></g></g></g></svg>