<svg xmlns="http://www.w3.org/2000/svg" xmlns:xlink="http://www.w3.org/1999/xlink" width="434" zoomAndPan="magnify" viewBox="0 0 325.5 281.999989" height="376" preserveAspectRatio="xMidYMid meet" version="1.0"><defs><clipPath id="8e1556a61d"><path d="M 68 10.796875 L 325 10.796875 L 325 63 L 68 63 Z M 68 10.796875 " clip-rule="nonzero"/></clipPath><clipPath id="ac6322f073"><path d="M 0.417969 114.179688 L 324.566406 114.179688 L 324.566406 167.695312 L 0.417969 167.695312 Z M 0.417969 114.179688 " clip-rule="nonzero"/></clipPath><clipPath id="d8bef00ed0"><path d="M 123 219 L 324.566406 219 L 324.566406 271.246094 L 123 271.246094 Z M 123 219 " clip-rule="nonzero"/></clipPath></defs><g clip-path="url(#8e1556a61d)"><path fill="#fd9d24" d="M 94.464844 62.886719 L 298.523438 62.886719 C 312.90625 62.886719 324.566406 51.226562 324.566406 36.839844 C 324.566406 22.460938 312.90625 10.800781 298.523438 10.800781 L 94.464844 10.800781 C 80.078125 10.800781 68.421875 22.460938 68.421875 36.839844 C 68.421875 51.226562 80.078125 62.886719 94.464844 62.886719 " fill-opacity="1" fill-rule="nonzero"/></g><g clip-path="url(#ac6322f073)"><path fill="#fd9d24" d="M 26.46875 167.066406 L 298.523438 167.066406 C 312.90625 167.066406 324.566406 155.40625 324.566406 141.023438 C 324.566406 126.636719 312.90625 114.976562 298.523438 114.976562 L 26.46875 114.976562 C 12.082031 114.976562 0.425781 126.636719 0.425781 141.023438 C 0.425781 155.40625 12.082031 167.066406 26.46875 167.066406 " fill-opacity="1" fill-rule="nonzero"/></g><g clip-path="url(#d8bef00ed0)"><path fill="#fd9d24" d="M 149.382812 271.246094 L 298.523438 271.246094 C 312.90625 271.246094 324.566406 259.585938 324.566406 245.203125 C 324.566406 230.816406 312.90625 219.15625 298.523438 219.15625 L 149.382812 219.15625 C 134.996094 219.15625 123.335938 230.816406 123.335938 245.203125 C 123.335938 259.585938 134.996094 271.246094 149.382812 271.246094 " fill-opacity="1" fill-rule="nonzero"/></g></svg>