<svg xmlns="http://www.w3.org/2000/svg" xmlns:xlink="http://www.w3.org/1999/xlink" width="500" zoomAndPan="magnify" viewBox="0 0 375 281.999989" height="376" preserveAspectRatio="xMidYMid meet" version="1.0"><defs><clipPath id="d66a8af942"><path d="M 11.25 167 L 95 167 L 95 234 L 11.25 234 Z M 11.25 167 " clip-rule="nonzero"/></clipPath><clipPath id="f373a7f412"><path d="M 279 167 L 363.75 167 L 363.75 234 L 279 234 Z M 279 167 " clip-rule="nonzero"/></clipPath></defs><path fill="#fdfdfb" d="M 255.609375 68.707031 C 255.609375 69.832031 255.582031 70.957031 255.527344 72.078125 C 255.472656 73.203125 255.390625 74.324219 255.28125 75.441406 C 255.167969 76.5625 255.03125 77.675781 254.867188 78.789062 C 254.703125 79.902344 254.507812 81.007812 254.289062 82.113281 C 254.070312 83.214844 253.824219 84.3125 253.550781 85.402344 C 253.277344 86.492188 252.976562 87.578125 252.652344 88.652344 C 252.324219 89.726562 251.972656 90.796875 251.59375 91.855469 C 251.214844 92.914062 250.808594 93.960938 250.378906 95 C 249.949219 96.039062 249.496094 97.066406 249.011719 98.082031 C 248.53125 99.101562 248.027344 100.105469 247.496094 101.097656 C 246.96875 102.085938 246.414062 103.066406 245.835938 104.03125 C 245.257812 104.996094 244.65625 105.945312 244.03125 106.878906 C 243.40625 107.8125 242.757812 108.734375 242.089844 109.636719 C 241.417969 110.539062 240.726562 111.425781 240.015625 112.296875 C 239.300781 113.164062 238.566406 114.015625 237.8125 114.847656 C 237.054688 115.683594 236.28125 116.496094 235.484375 117.292969 C 234.691406 118.085938 233.875 118.863281 233.042969 119.617188 C 232.210938 120.371094 231.359375 121.105469 230.488281 121.820312 C 229.621094 122.53125 228.734375 123.222656 227.832031 123.894531 C 226.929688 124.5625 226.007812 125.210938 225.074219 125.835938 C 224.140625 126.460938 223.191406 127.0625 222.226562 127.640625 C 221.261719 128.21875 220.28125 128.773438 219.292969 129.300781 C 218.300781 129.832031 217.296875 130.335938 216.277344 130.820312 C 215.261719 131.300781 214.234375 131.753906 213.195312 132.183594 C 212.15625 132.617188 211.109375 133.019531 210.050781 133.398438 C 208.992188 133.777344 207.921875 134.128906 206.847656 134.457031 C 205.769531 134.78125 204.6875 135.082031 203.597656 135.355469 C 202.507812 135.628906 201.410156 135.875 200.308594 136.09375 C 199.203125 136.3125 198.097656 136.507812 196.984375 136.671875 C 195.871094 136.835938 194.757812 136.972656 193.636719 137.085938 C 192.519531 137.195312 191.398438 137.277344 190.273438 137.332031 C 189.152344 137.386719 188.027344 137.414062 186.902344 137.414062 C 185.777344 137.414062 184.652344 137.386719 183.53125 137.332031 C 182.40625 137.277344 181.285156 137.195312 180.167969 137.085938 C 179.050781 136.972656 177.933594 136.835938 176.820312 136.671875 C 175.707031 136.507812 174.601562 136.3125 173.5 136.09375 C 172.394531 135.875 171.296875 135.628906 170.207031 135.355469 C 169.117188 135.082031 168.035156 134.78125 166.957031 134.457031 C 165.882812 134.128906 164.8125 133.777344 163.753906 133.398438 C 162.695312 133.019531 161.648438 132.617188 160.609375 132.183594 C 159.570312 131.753906 158.542969 131.300781 157.527344 130.820312 C 156.507812 130.335938 155.503906 129.832031 154.515625 129.300781 C 153.523438 128.773438 152.542969 128.21875 151.578125 127.640625 C 150.613281 127.0625 149.664062 126.460938 148.730469 125.835938 C 147.796875 125.210938 146.875 124.5625 145.972656 123.894531 C 145.070312 123.222656 144.183594 122.53125 143.316406 121.820312 C 142.445312 121.105469 141.59375 120.371094 140.761719 119.617188 C 139.929688 118.863281 139.113281 118.085938 138.320312 117.292969 C 137.523438 116.496094 136.75 115.683594 135.992188 114.847656 C 135.238281 114.015625 134.503906 113.164062 133.789062 112.296875 C 133.078125 111.425781 132.386719 110.539062 131.714844 109.636719 C 131.046875 108.734375 130.398438 107.8125 129.773438 106.878906 C 129.148438 105.945312 128.546875 104.996094 127.96875 104.03125 C 127.390625 103.066406 126.835938 102.085938 126.308594 101.097656 C 125.777344 100.105469 125.273438 99.101562 124.792969 98.082031 C 124.3125 97.066406 123.855469 96.039062 123.425781 95 C 122.996094 93.960938 122.589844 92.914062 122.210938 91.855469 C 121.832031 90.796875 121.480469 89.726562 121.152344 88.652344 C 120.828125 87.578125 120.527344 86.492188 120.253906 85.402344 C 119.980469 84.3125 119.734375 83.214844 119.515625 82.113281 C 119.296875 81.007812 119.105469 79.902344 118.9375 78.789062 C 118.773438 77.675781 118.636719 76.5625 118.527344 75.441406 C 118.414062 74.324219 118.332031 73.203125 118.277344 72.078125 C 118.222656 70.957031 118.195312 69.832031 118.195312 68.707031 C 118.195312 67.582031 118.222656 66.460938 118.277344 65.335938 C 118.332031 64.214844 118.414062 63.09375 118.527344 61.972656 C 118.636719 60.855469 118.773438 59.738281 118.9375 58.625 C 119.105469 57.515625 119.296875 56.40625 119.515625 55.304688 C 119.734375 54.199219 119.980469 53.105469 120.253906 52.011719 C 120.527344 50.921875 120.828125 49.839844 121.152344 48.761719 C 121.480469 47.6875 121.832031 46.621094 122.210938 45.5625 C 122.589844 44.503906 122.996094 43.453125 123.425781 42.414062 C 123.855469 41.375 124.3125 40.347656 124.792969 39.332031 C 125.273438 38.316406 125.777344 37.3125 126.308594 36.320312 C 126.835938 35.328125 127.390625 34.347656 127.96875 33.386719 C 128.546875 32.421875 129.148438 31.46875 129.773438 30.535156 C 130.398438 29.601562 131.046875 28.683594 131.714844 27.777344 C 132.386719 26.875 133.078125 25.988281 133.789062 25.121094 C 134.503906 24.25 135.238281 23.398438 135.992188 22.566406 C 136.75 21.734375 137.523438 20.917969 138.320312 20.125 C 139.113281 19.328125 139.929688 18.554688 140.761719 17.796875 C 141.59375 17.042969 142.445312 16.308594 143.316406 15.597656 C 144.183594 14.882812 145.070312 14.191406 145.972656 13.519531 C 146.875 12.851562 147.796875 12.203125 148.730469 11.578125 C 149.664062 10.953125 150.613281 10.351562 151.578125 9.773438 C 152.542969 9.195312 153.523438 8.644531 154.515625 8.113281 C 155.503906 7.582031 156.507812 7.078125 157.527344 6.597656 C 158.542969 6.117188 159.570312 5.660156 160.609375 5.230469 C 161.648438 4.800781 162.695312 4.394531 163.753906 4.015625 C 164.8125 3.636719 165.882812 3.285156 166.957031 2.957031 C 168.035156 2.632812 169.117188 2.332031 170.207031 2.058594 C 171.296875 1.785156 172.394531 1.539062 173.5 1.320312 C 174.601562 1.101562 175.707031 0.910156 176.820312 0.742188 C 177.933594 0.578125 179.050781 0.441406 180.167969 0.332031 C 181.285156 0.21875 182.40625 0.136719 183.53125 0.0820312 C 184.652344 0.0273438 185.777344 0 186.902344 0 C 188.027344 0 189.152344 0.0273438 190.273438 0.0820312 C 191.398438 0.136719 192.519531 0.21875 193.636719 0.332031 C 194.757812 0.441406 195.871094 0.578125 196.984375 0.742188 C 198.097656 0.910156 199.203125 1.101562 200.308594 1.320312 C 201.410156 1.539062 202.507812 1.785156 203.597656 2.058594 C 204.6875 2.332031 205.769531 2.632812 206.847656 2.957031 C 207.921875 3.285156 208.992188 3.636719 210.050781 4.015625 C 211.109375 4.394531 212.15625 4.800781 213.195312 5.230469 C 214.234375 5.660156 215.261719 6.117188 216.277344 6.597656 C 217.296875 7.078125 218.300781 7.582031 219.292969 8.113281 C 220.28125 8.644531 221.261719 9.195312 222.226562 9.773438 C 223.191406 10.351562 224.140625 10.953125 225.074219 11.578125 C 226.007812 12.203125 226.929688 12.851562 227.832031 13.519531 C 228.734375 14.191406 229.621094 14.882812 230.488281 15.597656 C 231.359375 16.308594 232.210938 17.042969 233.042969 17.796875 C 233.875 18.554688 234.691406 19.328125 235.484375 20.125 C 236.28125 20.917969 237.054688 21.734375 237.8125 22.566406 C 238.566406 23.398438 239.300781 24.25 240.015625 25.121094 C 240.726562 25.988281 241.417969 26.875 242.089844 27.777344 C 242.757812 28.683594 243.40625 29.601562 244.03125 30.535156 C 244.65625 31.46875 245.257812 32.421875 245.835938 33.386719 C 246.414062 34.347656 246.96875 35.328125 247.496094 36.320312 C 248.027344 37.3125 248.53125 38.316406 249.011719 39.332031 C 249.496094 40.347656 249.949219 41.375 250.378906 42.414062 C 250.808594 43.453125 251.214844 44.503906 251.59375 45.5625 C 251.972656 46.621094 252.324219 47.6875 252.652344 48.761719 C 252.976562 49.839844 253.277344 50.921875 253.550781 52.011719 C 253.824219 53.105469 254.070312 54.199219 254.289062 55.304688 C 254.507812 56.40625 254.703125 57.515625 254.867188 58.625 C 255.03125 59.738281 255.167969 60.855469 255.28125 61.972656 C 255.390625 63.09375 255.472656 64.214844 255.527344 65.335938 C 255.582031 66.460938 255.609375 67.582031 255.609375 68.707031 Z M 255.609375 68.707031 " fill-opacity="1" fill-rule="nonzero"/><path fill="#fdfdfb" d="M 112.21875 104.554688 C 112.21875 106.023438 112.148438 107.488281 112.003906 108.945312 C 111.859375 110.40625 111.644531 111.859375 111.359375 113.296875 C 111.074219 114.734375 110.71875 116.15625 110.289062 117.5625 C 109.863281 118.96875 109.371094 120.347656 108.808594 121.703125 C 108.246094 123.058594 107.621094 124.382812 106.929688 125.679688 C 106.238281 126.972656 105.484375 128.230469 104.667969 129.449219 C 103.851562 130.671875 102.980469 131.847656 102.050781 132.980469 C 101.117188 134.117188 100.132812 135.203125 99.097656 136.238281 C 98.058594 137.277344 96.972656 138.261719 95.835938 139.191406 C 94.703125 140.125 93.527344 140.996094 92.304688 141.8125 C 91.085938 142.628906 89.828125 143.382812 88.535156 144.074219 C 87.238281 144.765625 85.914062 145.390625 84.558594 145.953125 C 83.203125 146.515625 81.824219 147.007812 80.417969 147.433594 C 79.015625 147.859375 77.59375 148.21875 76.152344 148.503906 C 74.714844 148.789062 73.261719 149.003906 71.804688 149.148438 C 70.34375 149.292969 68.878906 149.363281 67.410156 149.363281 C 65.945312 149.363281 64.480469 149.292969 63.019531 149.148438 C 61.558594 149.003906 60.109375 148.789062 58.667969 148.503906 C 57.230469 148.21875 55.808594 147.859375 54.402344 147.433594 C 53 147.007812 51.617188 146.515625 50.261719 145.953125 C 48.90625 145.390625 47.582031 144.765625 46.289062 144.074219 C 44.992188 143.382812 43.738281 142.628906 42.515625 141.8125 C 41.296875 140.996094 40.117188 140.125 38.984375 139.191406 C 37.851562 138.261719 36.765625 137.277344 35.726562 136.238281 C 34.6875 135.203125 33.703125 134.117188 32.773438 132.980469 C 31.84375 131.847656 30.96875 130.671875 30.152344 129.449219 C 29.339844 128.230469 28.585938 126.972656 27.894531 125.679688 C 27.199219 124.382812 26.574219 123.058594 26.011719 121.703125 C 25.449219 120.347656 24.957031 118.96875 24.53125 117.5625 C 24.105469 116.15625 23.75 114.734375 23.460938 113.296875 C 23.175781 111.859375 22.960938 110.40625 22.816406 108.945312 C 22.671875 107.488281 22.601562 106.023438 22.601562 104.554688 C 22.601562 103.085938 22.671875 101.625 22.816406 100.164062 C 22.960938 98.703125 23.175781 97.253906 23.460938 95.8125 C 23.75 94.375 24.105469 92.953125 24.53125 91.546875 C 24.957031 90.144531 25.449219 88.761719 26.011719 87.40625 C 26.574219 86.050781 27.199219 84.726562 27.894531 83.433594 C 28.585938 82.136719 29.339844 80.878906 30.152344 79.660156 C 30.96875 78.441406 31.84375 77.261719 32.773438 76.128906 C 33.703125 74.992188 34.6875 73.90625 35.726562 72.871094 C 36.765625 71.832031 37.851562 70.847656 38.984375 69.917969 C 40.117188 68.984375 41.296875 68.113281 42.515625 67.296875 C 43.738281 66.480469 44.992188 65.730469 46.289062 65.035156 C 47.582031 64.34375 48.90625 63.71875 50.261719 63.15625 C 51.617188 62.59375 53 62.101562 54.402344 61.675781 C 55.808594 61.25 57.230469 60.894531 58.667969 60.605469 C 60.109375 60.320312 61.558594 60.105469 63.019531 59.960938 C 64.480469 59.816406 65.945312 59.746094 67.410156 59.746094 C 68.878906 59.746094 70.34375 59.816406 71.804688 59.960938 C 73.261719 60.105469 74.714844 60.320312 76.152344 60.605469 C 77.59375 60.894531 79.015625 61.25 80.417969 61.675781 C 81.824219 62.101562 83.203125 62.59375 84.558594 63.15625 C 85.914062 63.71875 87.238281 64.34375 88.535156 65.035156 C 89.828125 65.730469 91.085938 66.480469 92.304688 67.296875 C 93.527344 68.113281 94.703125 68.984375 95.835938 69.917969 C 96.972656 70.847656 98.058594 71.832031 99.097656 72.871094 C 100.132812 73.90625 101.117188 74.992188 102.050781 76.128906 C 102.980469 77.261719 103.851562 78.441406 104.667969 79.660156 C 105.484375 80.878906 106.238281 82.136719 106.929688 83.433594 C 107.621094 84.726562 108.246094 86.050781 108.808594 87.40625 C 109.371094 88.761719 109.863281 90.144531 110.289062 91.546875 C 110.71875 92.953125 111.074219 94.375 111.359375 95.8125 C 111.644531 97.253906 111.859375 98.703125 112.003906 100.164062 C 112.148438 101.625 112.21875 103.085938 112.21875 104.554688 Z M 112.21875 104.554688 " fill-opacity="1" fill-rule="nonzero"/><path fill="#fdfdfb" d="M 351.203125 104.554688 C 351.203125 106.023438 351.132812 107.488281 350.988281 108.945312 C 350.84375 110.40625 350.628906 111.859375 350.34375 113.296875 C 350.054688 114.734375 349.699219 116.15625 349.273438 117.5625 C 348.847656 118.96875 348.355469 120.347656 347.792969 121.703125 C 347.230469 123.058594 346.605469 124.382812 345.914062 125.679688 C 345.21875 126.972656 344.46875 128.230469 343.652344 129.449219 C 342.835938 130.671875 341.964844 131.847656 341.03125 132.980469 C 340.101562 134.117188 339.117188 135.203125 338.078125 136.238281 C 337.042969 137.277344 335.957031 138.261719 334.820312 139.191406 C 333.6875 140.125 332.507812 140.996094 331.289062 141.8125 C 330.070312 142.628906 328.8125 143.382812 327.515625 144.074219 C 326.222656 144.765625 324.898438 145.390625 323.542969 145.953125 C 322.1875 146.515625 320.804688 147.007812 319.402344 147.433594 C 317.996094 147.859375 316.574219 148.21875 315.136719 148.503906 C 313.695312 148.789062 312.246094 149.003906 310.785156 149.148438 C 309.324219 149.292969 307.863281 149.363281 306.394531 149.363281 C 304.925781 149.363281 303.460938 149.292969 302.003906 149.148438 C 300.542969 149.003906 299.089844 148.789062 297.652344 148.503906 C 296.210938 148.21875 294.789062 147.859375 293.386719 147.433594 C 291.980469 147.007812 290.601562 146.515625 289.246094 145.953125 C 287.890625 145.390625 286.566406 144.765625 285.269531 144.074219 C 283.976562 143.382812 282.71875 142.628906 281.5 141.8125 C 280.277344 140.996094 279.101562 140.125 277.96875 139.191406 C 276.832031 138.261719 275.746094 137.277344 274.710938 136.238281 C 273.671875 135.203125 272.6875 134.117188 271.757812 132.980469 C 270.824219 131.847656 269.953125 130.671875 269.136719 129.449219 C 268.320312 128.230469 267.566406 126.972656 266.875 125.679688 C 266.183594 124.382812 265.558594 123.058594 264.996094 121.703125 C 264.433594 120.347656 263.941406 118.96875 263.515625 117.5625 C 263.089844 116.15625 262.730469 114.734375 262.445312 113.296875 C 262.160156 111.859375 261.945312 110.40625 261.800781 108.945312 C 261.65625 107.488281 261.585938 106.023438 261.585938 104.554688 C 261.585938 103.085938 261.65625 101.625 261.800781 100.164062 C 261.945312 98.703125 262.160156 97.253906 262.445312 95.8125 C 262.730469 94.375 263.089844 92.953125 263.515625 91.546875 C 263.941406 90.144531 264.433594 88.761719 264.996094 87.40625 C 265.558594 86.050781 266.183594 84.726562 266.875 83.433594 C 267.566406 82.136719 268.320312 80.878906 269.136719 79.660156 C 269.953125 78.441406 270.824219 77.261719 271.757812 76.128906 C 272.6875 74.992188 273.671875 73.90625 274.710938 72.871094 C 275.746094 71.832031 276.832031 70.847656 277.96875 69.917969 C 279.101562 68.984375 280.277344 68.113281 281.5 67.296875 C 282.71875 66.480469 283.976562 65.730469 285.269531 65.035156 C 286.566406 64.34375 287.890625 63.71875 289.246094 63.15625 C 290.601562 62.59375 291.980469 62.101562 293.386719 61.675781 C 294.789062 61.25 296.210938 60.894531 297.652344 60.605469 C 299.089844 60.320312 300.542969 60.105469 302.003906 59.960938 C 303.460938 59.816406 304.925781 59.746094 306.394531 59.746094 C 307.863281 59.746094 309.324219 59.816406 310.785156 59.960938 C 312.246094 60.105469 313.695312 60.320312 315.136719 60.605469 C 316.574219 60.894531 317.996094 61.25 319.402344 61.675781 C 320.804688 62.101562 322.1875 62.59375 323.542969 63.15625 C 324.898438 63.71875 326.222656 64.34375 327.515625 65.035156 C 328.8125 65.730469 330.070312 66.480469 331.289062 67.296875 C 332.507812 68.113281 333.6875 68.984375 334.820312 69.917969 C 335.957031 70.847656 337.042969 71.832031 338.078125 72.871094 C 339.117188 73.90625 340.101562 74.992188 341.03125 76.128906 C 341.964844 77.261719 342.835938 78.441406 343.652344 79.660156 C 344.46875 80.878906 345.21875 82.136719 345.914062 83.433594 C 346.605469 84.726562 347.230469 86.050781 347.792969 87.40625 C 348.355469 88.761719 348.847656 90.144531 349.273438 91.546875 C 349.699219 92.953125 350.054688 94.375 350.34375 95.8125 C 350.628906 97.253906 350.84375 98.703125 350.988281 100.164062 C 351.132812 101.625 351.203125 103.085938 351.203125 104.554688 Z M 351.203125 104.554688 " fill-opacity="1" fill-rule="nonzero"/><path fill="#fdfdfb" d="M 301.066406 248.511719 C 300.402344 245.253906 299.597656 242.03125 298.652344 238.839844 C 297.710938 235.652344 296.632812 232.507812 295.421875 229.410156 C 294.210938 226.3125 292.867188 223.273438 291.398438 220.292969 C 289.925781 217.3125 288.328125 214.398438 286.605469 211.550781 C 284.886719 208.707031 283.046875 205.941406 281.089844 203.25 C 279.128906 200.5625 277.058594 197.964844 274.878906 195.453125 C 272.699219 192.941406 270.414062 190.53125 268.027344 188.214844 C 265.640625 185.898438 263.160156 183.691406 260.582031 181.589844 C 258.003906 179.484375 255.34375 177.496094 252.597656 175.621094 C 249.851562 173.746094 247.027344 171.992188 244.132812 170.359375 C 241.234375 168.726562 238.273438 167.21875 235.25 165.839844 C 232.222656 164.460938 229.144531 163.214844 226.011719 162.097656 C 222.878906 160.980469 219.703125 160 216.488281 159.15625 C 213.269531 158.3125 210.023438 157.605469 206.746094 157.039062 C 203.46875 156.472656 200.175781 156.050781 196.859375 155.765625 C 193.546875 155.480469 190.226562 155.339844 186.902344 155.339844 C 183.578125 155.339844 180.257812 155.480469 176.945312 155.765625 C 173.628906 156.050781 170.335938 156.472656 167.058594 157.039062 C 163.78125 157.605469 160.535156 158.3125 157.320312 159.15625 C 154.101562 160 150.925781 160.980469 147.792969 162.097656 C 144.660156 163.214844 141.582031 164.460938 138.558594 165.839844 C 135.53125 167.21875 132.570312 168.726562 129.671875 170.359375 C 126.777344 171.992188 123.953125 173.746094 121.207031 175.621094 C 118.460938 177.496094 115.800781 179.484375 113.222656 181.589844 C 110.648438 183.691406 108.164062 185.898438 105.777344 188.214844 C 103.390625 190.53125 101.105469 192.941406 98.925781 195.453125 C 96.746094 197.964844 94.675781 200.5625 92.71875 203.25 C 90.757812 205.941406 88.917969 208.707031 87.199219 211.550781 C 85.476562 214.398438 83.878906 217.3125 82.40625 220.292969 C 80.9375 223.273438 79.59375 226.3125 78.382812 229.410156 C 77.171875 232.507812 76.09375 235.652344 75.152344 238.839844 C 74.210938 242.03125 73.40625 245.253906 72.738281 248.511719 C 72.554688 249.484375 72.421875 250.464844 72.34375 251.453125 C 72.269531 252.441406 72.246094 253.433594 72.273438 254.425781 C 72.304688 255.414062 72.390625 256.402344 72.527344 257.382812 C 72.667969 258.363281 72.859375 259.335938 73.105469 260.296875 C 73.347656 261.257812 73.644531 262.203125 73.992188 263.128906 C 74.339844 264.058594 74.738281 264.964844 75.183594 265.851562 C 75.628906 266.734375 76.125 267.59375 76.664062 268.425781 C 77.207031 269.253906 77.789062 270.054688 78.417969 270.820312 C 79.046875 271.589844 79.710938 272.320312 80.421875 273.015625 C 81.128906 273.707031 81.871094 274.363281 82.652344 274.976562 C 83.429688 275.589844 84.238281 276.15625 85.082031 276.683594 C 85.921875 277.207031 86.789062 277.683594 87.683594 278.113281 C 88.574219 278.542969 89.488281 278.925781 90.425781 279.253906 C 91.359375 279.582031 92.308594 279.863281 93.273438 280.089844 C 94.242188 280.316406 95.214844 280.488281 96.199219 280.609375 C 97.183594 280.726562 98.171875 280.792969 99.164062 280.804688 L 274.644531 280.804688 C 275.632812 280.792969 276.621094 280.730469 277.605469 280.609375 C 278.589844 280.492188 279.566406 280.320312 280.53125 280.09375 C 281.5 279.867188 282.449219 279.589844 283.382812 279.261719 C 284.320312 278.933594 285.234375 278.550781 286.128906 278.121094 C 287.023438 277.695312 287.890625 277.214844 288.730469 276.691406 C 289.574219 276.167969 290.382812 275.597656 291.164062 274.984375 C 291.941406 274.371094 292.6875 273.71875 293.394531 273.023438 C 294.101562 272.328125 294.769531 271.597656 295.398438 270.832031 C 296.027344 270.0625 296.613281 269.265625 297.152344 268.433594 C 297.691406 267.601562 298.1875 266.742188 298.632812 265.855469 C 299.078125 264.972656 299.476562 264.066406 299.824219 263.136719 C 300.171875 262.207031 300.46875 261.261719 300.710938 260.300781 C 300.957031 259.339844 301.148438 258.367188 301.285156 257.386719 C 301.421875 256.402344 301.507812 255.417969 301.535156 254.425781 C 301.566406 253.433594 301.542969 252.445312 301.464844 251.457031 C 301.386719 250.46875 301.253906 249.484375 301.066406 248.511719 Z M 301.066406 248.511719 " fill-opacity="1" fill-rule="nonzero"/><g clip-path="url(#d66a8af942)"><path fill="#fdfdfb" d="M 94.65625 174.21875 C 90.402344 178.21875 86.429688 182.480469 82.730469 187 C 79.035156 191.519531 75.648438 196.257812 72.574219 201.222656 C 69.496094 206.183594 66.757812 211.324219 64.351562 216.644531 C 61.949219 221.964844 59.902344 227.421875 58.210938 233.007812 L 19.613281 233.007812 C 19.027344 233.003906 18.445312 232.941406 17.871094 232.824219 C 17.296875 232.707031 16.738281 232.535156 16.195312 232.308594 C 15.652344 232.082031 15.136719 231.804688 14.652344 231.476562 C 14.164062 231.152344 13.710938 230.78125 13.296875 230.363281 C 12.882812 229.949219 12.511719 229.496094 12.183594 229.011719 C 11.855469 228.523438 11.578125 228.007812 11.351562 227.464844 C 11.125 226.925781 10.953125 226.367188 10.835938 225.789062 C 10.71875 225.214844 10.65625 224.632812 10.652344 224.046875 C 10.652344 222.820312 10.695312 221.597656 10.773438 220.375 C 10.855469 219.152344 10.972656 217.9375 11.132812 216.722656 C 11.292969 215.507812 11.492188 214.296875 11.726562 213.097656 C 11.964844 211.894531 12.242188 210.703125 12.554688 209.519531 C 12.871094 208.335938 13.222656 207.164062 13.613281 206 C 14 204.839844 14.429688 203.695312 14.894531 202.558594 C 15.359375 201.425781 15.859375 200.308594 16.394531 199.207031 C 16.929688 198.109375 17.503906 197.023438 18.109375 195.960938 C 18.714844 194.898438 19.355469 193.851562 20.03125 192.832031 C 20.703125 191.808594 21.410156 190.808594 22.148438 189.832031 C 22.890625 188.855469 23.660156 187.902344 24.457031 186.976562 C 25.257812 186.046875 26.089844 185.148438 26.945312 184.273438 C 27.804688 183.402344 28.691406 182.554688 29.605469 181.738281 C 30.519531 180.921875 31.457031 180.136719 32.421875 179.382812 C 33.386719 178.625 34.371094 177.902344 35.382812 177.210938 C 36.394531 176.519531 37.425781 175.863281 38.480469 175.238281 C 39.53125 174.613281 40.605469 174.023438 41.695312 173.464844 C 42.789062 172.910156 43.898438 172.390625 45.023438 171.90625 C 46.148438 171.421875 47.289062 170.976562 48.441406 170.566406 C 49.59375 170.15625 50.761719 169.785156 51.941406 169.449219 C 53.117188 169.113281 54.304688 168.820312 55.503906 168.5625 C 56.699219 168.304688 57.90625 168.085938 59.117188 167.902344 C 60.328125 167.722656 61.542969 167.582031 62.765625 167.480469 C 63.984375 167.382812 65.207031 167.320312 66.433594 167.296875 C 67.65625 167.273438 68.882812 167.292969 70.105469 167.347656 C 71.328125 167.40625 72.546875 167.503906 73.765625 167.636719 C 74.984375 167.773438 76.195312 167.949219 77.402344 168.164062 C 78.605469 168.378906 79.804688 168.632812 80.992188 168.921875 C 82.183594 169.214844 83.363281 169.542969 84.53125 169.914062 C 85.699219 170.28125 86.855469 170.6875 87.996094 171.128906 C 89.136719 171.570312 90.265625 172.050781 91.375 172.566406 C 92.488281 173.082031 93.578125 173.632812 94.65625 174.21875 Z M 94.65625 174.21875 " fill-opacity="1" fill-rule="nonzero"/></g><g clip-path="url(#f373a7f412)"><path fill="#fdfdfb" d="M 363.152344 224.046875 C 363.148438 224.632812 363.085938 225.214844 362.96875 225.789062 C 362.851562 226.367188 362.679688 226.925781 362.453125 227.464844 C 362.226562 228.007812 361.949219 228.523438 361.621094 229.011719 C 361.296875 229.496094 360.925781 229.949219 360.507812 230.363281 C 360.09375 230.78125 359.640625 231.152344 359.152344 231.476562 C 358.667969 231.804688 358.152344 232.082031 357.609375 232.308594 C 357.070312 232.535156 356.511719 232.707031 355.933594 232.824219 C 355.359375 232.941406 354.777344 233.003906 354.191406 233.007812 L 315.59375 233.007812 C 313.902344 227.421875 311.855469 221.964844 309.453125 216.644531 C 307.046875 211.324219 304.308594 206.183594 301.230469 201.222656 C 298.15625 196.257812 294.769531 191.519531 291.074219 187 C 287.378906 182.480469 283.402344 178.21875 279.148438 174.21875 C 280.226562 173.632812 281.320312 173.082031 282.429688 172.566406 C 283.539062 172.050781 284.667969 171.570312 285.808594 171.128906 C 286.949219 170.6875 288.105469 170.28125 289.273438 169.914062 C 290.441406 169.542969 291.621094 169.214844 292.8125 168.921875 C 294 168.632812 295.199219 168.378906 296.40625 168.164062 C 297.609375 167.949219 298.820312 167.773438 300.039062 167.636719 C 301.257812 167.503906 302.476562 167.40625 303.699219 167.347656 C 304.921875 167.292969 306.148438 167.273438 307.371094 167.296875 C 308.597656 167.320312 309.820312 167.382812 311.039062 167.480469 C 312.261719 167.582031 313.476562 167.722656 314.6875 167.902344 C 315.898438 168.085938 317.105469 168.304688 318.300781 168.5625 C 319.5 168.820312 320.6875 169.113281 321.863281 169.449219 C 323.042969 169.785156 324.210938 170.15625 325.363281 170.566406 C 326.519531 170.976562 327.65625 171.421875 328.78125 171.90625 C 329.90625 172.390625 331.015625 172.910156 332.109375 173.464844 C 333.199219 174.023438 334.273438 174.613281 335.324219 175.238281 C 336.378906 175.863281 337.410156 176.519531 338.421875 177.210938 C 339.433594 177.902344 340.421875 178.628906 341.382812 179.382812 C 342.347656 180.136719 343.285156 180.921875 344.199219 181.738281 C 345.113281 182.554688 346 183.402344 346.859375 184.273438 C 347.714844 185.148438 348.546875 186.046875 349.347656 186.976562 C 350.148438 187.902344 350.917969 188.855469 351.65625 189.832031 C 352.394531 190.808594 353.101562 191.808594 353.773438 192.832031 C 354.449219 193.855469 355.089844 194.898438 355.695312 195.960938 C 356.300781 197.023438 356.875 198.109375 357.410156 199.207031 C 357.945312 200.308594 358.449219 201.425781 358.910156 202.558594 C 359.375 203.695312 359.804688 204.839844 360.195312 206 C 360.582031 207.164062 360.9375 208.335938 361.25 209.519531 C 361.5625 210.703125 361.839844 211.894531 362.078125 213.097656 C 362.3125 214.296875 362.511719 215.507812 362.671875 216.722656 C 362.832031 217.9375 362.949219 219.152344 363.03125 220.375 C 363.109375 221.597656 363.152344 222.820312 363.152344 224.046875 Z M 363.152344 224.046875 " fill-opacity="1" fill-rule="nonzero"/></g></svg>