<svg xmlns="http://www.w3.org/2000/svg" xmlns:xlink="http://www.w3.org/1999/xlink" width="128" zoomAndPan="magnify" viewBox="0 0 96 95.999999" height="128" preserveAspectRatio="xMidYMid meet" version="1.0"><defs><clipPath id="1e25ae824e"><path d="M 30 11.90625 L 66 11.90625 L 66 48 L 30 48 Z M 30 11.90625 " clip-rule="nonzero"/></clipPath><clipPath id="619b4f64f2"><path d="M 18 51 L 78 51 L 78 83.90625 L 18 83.90625 Z M 18 51 " clip-rule="nonzero"/></clipPath><clipPath id="d0b90f85c5"><path d="M 2.882812 54 L 25 54 L 25 72 L 2.882812 72 Z M 2.882812 54 " clip-rule="nonzero"/></clipPath><clipPath id="8536afbb4e"><path d="M 71 54 L 92.882812 54 L 92.882812 72 L 71 72 Z M 71 54 " clip-rule="nonzero"/></clipPath></defs><g clip-path="url(#1e25ae824e)"><path fill="#009ddb" d="M 65.429688 29.492188 C 65.429688 30.066406 65.398438 30.640625 65.34375 31.214844 C 65.289062 31.789062 65.203125 32.359375 65.089844 32.921875 C 64.976562 33.488281 64.839844 34.046875 64.671875 34.597656 C 64.503906 35.148438 64.308594 35.691406 64.089844 36.222656 C 63.871094 36.753906 63.625 37.273438 63.351562 37.78125 C 63.082031 38.289062 62.785156 38.78125 62.464844 39.261719 C 62.144531 39.742188 61.800781 40.203125 61.4375 40.648438 C 61.070312 41.09375 60.683594 41.519531 60.277344 41.925781 C 59.871094 42.335938 59.445312 42.71875 59 43.085938 C 58.554688 43.453125 58.089844 43.792969 57.613281 44.113281 C 57.132812 44.433594 56.640625 44.730469 56.132812 45 C 55.625 45.273438 55.105469 45.519531 54.574219 45.738281 C 54.039062 45.960938 53.5 46.152344 52.949219 46.320312 C 52.394531 46.488281 51.839844 46.628906 51.273438 46.738281 C 50.707031 46.851562 50.140625 46.9375 49.566406 46.992188 C 48.992188 47.050781 48.417969 47.078125 47.84375 47.078125 C 47.265625 47.078125 46.691406 47.050781 46.117188 46.992188 C 45.546875 46.9375 44.976562 46.851562 44.410156 46.738281 C 43.847656 46.628906 43.289062 46.488281 42.738281 46.320312 C 42.1875 46.152344 41.644531 45.960938 41.113281 45.738281 C 40.582031 45.519531 40.0625 45.273438 39.550781 45 C 39.042969 44.730469 38.550781 44.433594 38.074219 44.113281 C 37.59375 43.792969 37.132812 43.453125 36.6875 43.085938 C 36.242188 42.71875 35.816406 42.335938 35.40625 41.925781 C 35 41.519531 34.613281 41.09375 34.25 40.648438 C 33.882812 40.203125 33.539062 39.742188 33.21875 39.261719 C 32.902344 38.78125 32.605469 38.289062 32.332031 37.78125 C 32.0625 37.273438 31.816406 36.753906 31.59375 36.222656 C 31.375 35.691406 31.179688 35.148438 31.015625 34.597656 C 30.847656 34.046875 30.707031 33.488281 30.59375 32.921875 C 30.480469 32.359375 30.398438 31.789062 30.339844 31.214844 C 30.285156 30.640625 30.257812 30.066406 30.257812 29.492188 C 30.257812 28.914062 30.285156 28.339844 30.339844 27.769531 C 30.398438 27.195312 30.480469 26.625 30.59375 26.0625 C 30.707031 25.496094 30.847656 24.9375 31.015625 24.386719 C 31.179688 23.835938 31.375 23.292969 31.59375 22.761719 C 31.816406 22.230469 32.0625 21.710938 32.332031 21.203125 C 32.605469 20.695312 32.902344 20.199219 33.21875 19.722656 C 33.539062 19.242188 33.882812 18.78125 34.25 18.335938 C 34.613281 17.890625 35 17.464844 35.40625 17.058594 C 35.816406 16.648438 36.242188 16.261719 36.6875 15.898438 C 37.132812 15.53125 37.59375 15.191406 38.074219 14.871094 C 38.550781 14.550781 39.042969 14.253906 39.550781 13.984375 C 40.0625 13.710938 40.582031 13.464844 41.113281 13.246094 C 41.644531 13.023438 42.1875 12.832031 42.738281 12.664062 C 43.289062 12.496094 43.847656 12.355469 44.410156 12.242188 C 44.976562 12.132812 45.546875 12.046875 46.117188 11.992188 C 46.691406 11.933594 47.265625 11.90625 47.84375 11.90625 C 48.417969 11.90625 48.992188 11.933594 49.566406 11.992188 C 50.140625 12.046875 50.707031 12.132812 51.273438 12.242188 C 51.839844 12.355469 52.394531 12.496094 52.949219 12.664062 C 53.5 12.832031 54.039062 13.023438 54.574219 13.246094 C 55.105469 13.464844 55.625 13.710938 56.132812 13.984375 C 56.640625 14.253906 57.132812 14.550781 57.613281 14.871094 C 58.089844 15.191406 58.554688 15.53125 59 15.898438 C 59.445312 16.261719 59.871094 16.648438 60.277344 17.058594 C 60.683594 17.464844 61.070312 17.890625 61.4375 18.335938 C 61.800781 18.78125 62.144531 19.242188 62.464844 19.722656 C 62.785156 20.199219 63.082031 20.695312 63.351562 21.203125 C 63.625 21.710938 63.871094 22.230469 64.089844 22.761719 C 64.308594 23.292969 64.503906 23.835938 64.671875 24.386719 C 64.839844 24.9375 64.976562 25.496094 65.089844 26.0625 C 65.203125 26.625 65.289062 27.195312 65.34375 27.769531 C 65.398438 28.339844 65.429688 28.914062 65.429688 29.492188 Z M 65.429688 29.492188 " fill-opacity="1" fill-rule="nonzero"/></g><path fill="#009ddb" d="M 28.726562 38.667969 C 28.726562 39.421875 28.652344 40.167969 28.507812 40.90625 C 28.359375 41.644531 28.144531 42.359375 27.855469 43.054688 C 27.566406 43.75 27.214844 44.414062 26.792969 45.039062 C 26.375 45.664062 25.902344 46.246094 25.367188 46.777344 C 24.835938 47.308594 24.257812 47.785156 23.628906 48.203125 C 23.003906 48.621094 22.34375 48.976562 21.648438 49.261719 C 20.953125 49.550781 20.234375 49.769531 19.496094 49.914062 C 18.757812 50.0625 18.011719 50.136719 17.257812 50.136719 C 16.503906 50.136719 15.757812 50.0625 15.019531 49.914062 C 14.28125 49.769531 13.566406 49.550781 12.871094 49.261719 C 12.175781 48.976562 11.511719 48.621094 10.886719 48.203125 C 10.261719 47.785156 9.679688 47.308594 9.148438 46.777344 C 8.617188 46.246094 8.140625 45.664062 7.722656 45.039062 C 7.304688 44.414062 6.949219 43.75 6.664062 43.054688 C 6.375 42.359375 6.15625 41.644531 6.011719 40.90625 C 5.863281 40.167969 5.789062 39.421875 5.789062 38.667969 C 5.789062 37.914062 5.863281 37.167969 6.011719 36.429688 C 6.15625 35.691406 6.375 34.972656 6.664062 34.277344 C 6.949219 33.582031 7.304688 32.921875 7.722656 32.296875 C 8.140625 31.667969 8.617188 31.089844 9.148438 30.558594 C 9.679688 30.023438 10.261719 29.550781 10.886719 29.132812 C 11.511719 28.710938 12.175781 28.359375 12.871094 28.070312 C 13.566406 27.78125 14.28125 27.566406 15.019531 27.417969 C 15.757812 27.273438 16.503906 27.199219 17.257812 27.199219 C 18.011719 27.199219 18.757812 27.273438 19.496094 27.417969 C 20.234375 27.566406 20.953125 27.78125 21.648438 28.070312 C 22.34375 28.359375 23.003906 28.710938 23.628906 29.132812 C 24.257812 29.550781 24.835938 30.023438 25.367188 30.558594 C 25.902344 31.089844 26.375 31.667969 26.792969 32.296875 C 27.214844 32.921875 27.566406 33.582031 27.855469 34.277344 C 28.144531 34.972656 28.359375 35.691406 28.507812 36.429688 C 28.652344 37.167969 28.726562 37.914062 28.726562 38.667969 Z M 28.726562 38.667969 " fill-opacity="1" fill-rule="nonzero"/><path fill="#009ddb" d="M 89.894531 38.667969 C 89.894531 39.421875 89.820312 40.167969 89.675781 40.90625 C 89.527344 41.644531 89.3125 42.359375 89.023438 43.054688 C 88.734375 43.75 88.382812 44.414062 87.960938 45.039062 C 87.542969 45.664062 87.070312 46.246094 86.535156 46.777344 C 86.003906 47.308594 85.425781 47.785156 84.796875 48.203125 C 84.171875 48.621094 83.511719 48.976562 82.816406 49.261719 C 82.121094 49.550781 81.402344 49.769531 80.664062 49.914062 C 79.925781 50.0625 79.179688 50.136719 78.425781 50.136719 C 77.671875 50.136719 76.925781 50.0625 76.1875 49.914062 C 75.449219 49.769531 74.734375 49.550781 74.039062 49.261719 C 73.34375 48.976562 72.679688 48.621094 72.054688 48.203125 C 71.429688 47.785156 70.847656 47.308594 70.316406 46.777344 C 69.785156 46.246094 69.308594 45.664062 68.890625 45.039062 C 68.472656 44.414062 68.117188 43.75 67.832031 43.054688 C 67.542969 42.359375 67.324219 41.644531 67.179688 40.90625 C 67.03125 40.167969 66.957031 39.421875 66.957031 38.667969 C 66.957031 37.914062 67.03125 37.167969 67.179688 36.429688 C 67.324219 35.691406 67.542969 34.972656 67.832031 34.277344 C 68.117188 33.582031 68.472656 32.921875 68.890625 32.296875 C 69.308594 31.667969 69.785156 31.089844 70.316406 30.558594 C 70.847656 30.023438 71.429688 29.550781 72.054688 29.132812 C 72.679688 28.710938 73.34375 28.359375 74.039062 28.070312 C 74.734375 27.78125 75.449219 27.566406 76.1875 27.417969 C 76.925781 27.273438 77.671875 27.199219 78.425781 27.199219 C 79.179688 27.199219 79.925781 27.273438 80.664062 27.417969 C 81.402344 27.566406 82.121094 27.78125 82.816406 28.070312 C 83.511719 28.359375 84.171875 28.710938 84.796875 29.132812 C 85.425781 29.550781 86.003906 30.023438 86.535156 30.558594 C 87.070312 31.089844 87.542969 31.667969 87.960938 32.296875 C 88.382812 32.921875 88.734375 33.582031 89.023438 34.277344 C 89.3125 34.972656 89.527344 35.691406 89.675781 36.429688 C 89.820312 37.167969 89.894531 37.914062 89.894531 38.667969 Z M 89.894531 38.667969 " fill-opacity="1" fill-rule="nonzero"/><g clip-path="url(#619b4f64f2)"><path fill="#009ddb" d="M 77.0625 75.511719 C 76.890625 74.679688 76.6875 73.855469 76.445312 73.039062 C 76.203125 72.222656 75.929688 71.417969 75.617188 70.625 C 75.308594 69.832031 74.964844 69.054688 74.589844 68.289062 C 74.210938 67.527344 73.800781 66.78125 73.363281 66.054688 C 72.921875 65.324219 72.449219 64.617188 71.949219 63.929688 C 71.449219 63.242188 70.917969 62.574219 70.359375 61.933594 C 69.800781 61.289062 69.21875 60.671875 68.605469 60.078125 C 67.996094 59.488281 67.359375 58.921875 66.699219 58.382812 C 66.042969 57.84375 65.359375 57.335938 64.65625 56.855469 C 63.953125 56.375 63.230469 55.929688 62.492188 55.511719 C 61.75 55.09375 60.992188 54.707031 60.214844 54.351562 C 59.441406 54 58.652344 53.679688 57.851562 53.394531 C 57.050781 53.109375 56.238281 52.859375 55.414062 52.640625 C 54.589844 52.425781 53.761719 52.246094 52.921875 52.101562 C 52.082031 51.957031 51.238281 51.847656 50.390625 51.773438 C 49.542969 51.703125 48.695312 51.664062 47.84375 51.664062 C 46.992188 51.664062 46.140625 51.703125 45.292969 51.773438 C 44.445312 51.847656 43.601562 51.957031 42.761719 52.101562 C 41.925781 52.246094 41.09375 52.425781 40.269531 52.640625 C 39.445312 52.859375 38.632812 53.109375 37.832031 53.394531 C 37.03125 53.679688 36.242188 54 35.46875 54.351562 C 34.695312 54.707031 33.9375 55.09375 33.195312 55.511719 C 32.453125 55.929688 31.730469 56.375 31.027344 56.855469 C 30.324219 57.335938 29.644531 57.84375 28.984375 58.382812 C 28.324219 58.921875 27.691406 59.488281 27.078125 60.078125 C 26.46875 60.671875 25.882812 61.289062 25.324219 61.933594 C 24.765625 62.574219 24.238281 63.242188 23.734375 63.929688 C 23.234375 64.617188 22.761719 65.324219 22.324219 66.054688 C 21.882812 66.78125 21.472656 67.527344 21.097656 68.289062 C 20.71875 69.054688 20.378906 69.832031 20.066406 70.625 C 19.757812 71.417969 19.480469 72.222656 19.238281 73.039062 C 19 73.855469 18.792969 74.679688 18.621094 75.511719 C 18.527344 76.011719 18.488281 76.515625 18.503906 77.027344 C 18.519531 77.535156 18.589844 78.035156 18.714844 78.527344 C 18.839844 79.023438 19.019531 79.496094 19.25 79.949219 C 19.476562 80.40625 19.753906 80.828125 20.074219 81.222656 C 20.398438 81.617188 20.757812 81.972656 21.160156 82.285156 C 21.558594 82.601562 21.988281 82.867188 22.445312 83.089844 C 22.90625 83.308594 23.382812 83.480469 23.878906 83.59375 C 24.375 83.710938 24.875 83.773438 25.386719 83.777344 L 70.300781 83.777344 C 70.808594 83.773438 71.3125 83.710938 71.808594 83.597656 C 72.304688 83.480469 72.78125 83.3125 73.238281 83.09375 C 73.699219 82.871094 74.128906 82.605469 74.527344 82.289062 C 74.929688 81.972656 75.289062 81.621094 75.613281 81.226562 C 75.933594 80.832031 76.210938 80.40625 76.441406 79.953125 C 76.667969 79.496094 76.847656 79.023438 76.972656 78.53125 C 77.097656 78.035156 77.167969 77.535156 77.183594 77.027344 C 77.199219 76.519531 77.160156 76.011719 77.0625 75.511719 Z M 77.0625 75.511719 " fill-opacity="1" fill-rule="nonzero"/></g><g clip-path="url(#d0b90f85c5)"><path fill="#009ddb" d="M 24.230469 56.496094 C 22.046875 58.554688 20.160156 60.859375 18.582031 63.410156 C 17 65.960938 15.773438 68.671875 14.902344 71.542969 L 5.023438 71.542969 C 4.722656 71.542969 4.429688 71.484375 4.148438 71.367188 C 3.871094 71.25 3.621094 71.082031 3.40625 70.867188 C 3.191406 70.652344 3.027344 70.40625 2.910156 70.125 C 2.792969 69.847656 2.734375 69.554688 2.730469 69.25 C 2.730469 68.625 2.773438 68 2.855469 67.375 C 2.9375 66.753906 3.058594 66.140625 3.21875 65.53125 C 3.378906 64.925781 3.578125 64.332031 3.816406 63.75 C 4.054688 63.171875 4.328125 62.609375 4.640625 62.0625 C 4.949219 61.515625 5.296875 60.996094 5.675781 60.492188 C 6.050781 59.992188 6.460938 59.519531 6.902344 59.070312 C 7.34375 58.625 7.808594 58.207031 8.304688 57.820312 C 8.796875 57.433594 9.3125 57.078125 9.855469 56.757812 C 10.394531 56.4375 10.953125 56.152344 11.527344 55.90625 C 12.105469 55.65625 12.695312 55.449219 13.296875 55.277344 C 13.902344 55.105469 14.515625 54.972656 15.136719 54.882812 C 15.757812 54.789062 16.378906 54.738281 17.007812 54.726562 C 17.636719 54.714844 18.261719 54.742188 18.886719 54.8125 C 19.507812 54.882812 20.125 54.992188 20.734375 55.140625 C 21.34375 55.292969 21.941406 55.480469 22.527344 55.707031 C 23.113281 55.933594 23.679688 56.195312 24.230469 56.496094 Z M 24.230469 56.496094 " fill-opacity="1" fill-rule="nonzero"/></g><g clip-path="url(#8536afbb4e)"><path fill="#009ddb" d="M 92.953125 69.25 C 92.953125 69.554688 92.890625 69.847656 92.773438 70.125 C 92.65625 70.40625 92.492188 70.652344 92.277344 70.867188 C 92.0625 71.082031 91.816406 71.25 91.535156 71.367188 C 91.253906 71.484375 90.964844 71.542969 90.660156 71.542969 L 80.78125 71.542969 C 79.910156 68.671875 78.6875 65.960938 77.105469 63.410156 C 75.523438 60.859375 73.640625 58.554688 71.453125 56.496094 C 72.003906 56.195312 72.574219 55.933594 73.15625 55.707031 C 73.742188 55.480469 74.339844 55.292969 74.949219 55.140625 C 75.558594 54.992188 76.175781 54.882812 76.800781 54.8125 C 77.421875 54.742188 78.050781 54.714844 78.675781 54.726562 C 79.304688 54.738281 79.929688 54.789062 80.550781 54.882812 C 81.171875 54.972656 81.78125 55.105469 82.386719 55.277344 C 82.988281 55.449219 83.582031 55.65625 84.15625 55.90625 C 84.734375 56.152344 85.292969 56.4375 85.832031 56.757812 C 86.371094 57.078125 86.886719 57.433594 87.382812 57.820312 C 87.875 58.207031 88.34375 58.625 88.785156 59.070312 C 89.222656 59.519531 89.632812 59.992188 90.011719 60.492188 C 90.390625 60.996094 90.734375 61.515625 91.046875 62.0625 C 91.355469 62.609375 91.628906 63.171875 91.867188 63.75 C 92.105469 64.332031 92.304688 64.925781 92.46875 65.53125 C 92.628906 66.140625 92.75 66.753906 92.832031 67.375 C 92.914062 68 92.953125 68.625 92.953125 69.25 Z M 92.953125 69.25 " fill-opacity="1" fill-rule="nonzero"/></g></svg>