<svg xmlns="http://www.w3.org/2000/svg" xmlns:xlink="http://www.w3.org/1999/xlink" width="500" zoomAndPan="magnify" viewBox="0 0 375 374.999991" height="500" preserveAspectRatio="xMidYMid meet" version="1.0"><rect x="-37.5" width="450" fill="#fd9d24" y="-37.499999" height="449.999989" fill-opacity="1"/><path fill="#ffffff" d="M 20.585938 36.886719 L 20.585938 50.78125 L 30.09375 41.03125 L 30.09375 101.492188 L 43.5 101.492188 L 43.5 22.503906 L 32.773438 22.503906 Z M 50.8125 36.886719 L 50.8125 50.78125 L 51.058594 50.78125 L 60.320312 41.03125 L 60.320312 101.492188 L 73.730469 101.492188 L 73.730469 22.503906 L 63.003906 22.503906 Z M 50.8125 36.886719 " fill-opacity="1" fill-rule="nonzero"/><path fill="#ffffff" d="M 57.152344 288.230469 L 116.148438 288.230469 C 116.878906 288.230469 117.609375 287.5 117.609375 286.765625 C 117.609375 286.28125 117.367188 286.035156 117.125 285.792969 L 87.867188 247.761719 L 87.625 247.519531 C 87.382812 247.273438 86.894531 247.03125 86.648438 247.03125 C 86.40625 247.03125 85.917969 247.273438 85.675781 247.519531 L 85.429688 247.761719 L 85.1875 248.003906 L 56.421875 285.546875 L 55.933594 286.035156 C 55.691406 286.28125 55.691406 286.523438 55.691406 286.765625 C 55.691406 287.5 56.421875 288.230469 57.152344 288.230469 Z M 115.90625 293.59375 L 56.664062 293.59375 C 55.933594 293.59375 55.203125 294.324219 55.203125 295.054688 L 55.203125 341.375 C 55.203125 342.105469 55.933594 342.835938 56.664062 342.835938 L 75.679688 342.835938 L 75.679688 313.828125 C 75.679688 313.097656 76.410156 312.363281 77.140625 312.363281 L 94.695312 312.363281 C 95.425781 312.363281 96.15625 313.097656 96.15625 313.828125 L 96.15625 342.835938 L 115.660156 342.835938 C 116.390625 342.835938 117.125 342.105469 117.125 341.375 L 117.125 295.054688 C 117.367188 294.324219 116.878906 293.59375 115.90625 293.59375 Z M 320.195312 281.402344 L 261.6875 281.402344 C 260.957031 281.402344 260.226562 282.136719 260.226562 282.867188 L 260.226562 341.863281 C 260.226562 342.59375 260.957031 343.324219 261.6875 343.324219 L 320.195312 343.324219 C 320.925781 343.324219 321.660156 342.59375 321.660156 341.863281 L 321.660156 282.867188 C 321.660156 282.136719 321.171875 281.402344 320.195312 281.402344 M 288.261719 320.164062 C 288.261719 320.898438 287.527344 321.628906 286.796875 321.628906 L 269.246094 321.628906 C 268.515625 321.628906 267.78125 320.898438 267.78125 320.164062 L 267.78125 309.4375 C 267.78125 308.707031 268.515625 307.976562 269.246094 307.976562 L 286.796875 307.976562 C 287.527344 307.976562 288.261719 308.707031 288.261719 309.4375 Z M 288.261719 300.417969 C 288.261719 301.148438 287.527344 301.882812 286.796875 301.882812 L 269.246094 301.882812 C 268.515625 301.882812 267.78125 301.148438 267.78125 300.417969 L 267.78125 289.691406 C 267.78125 288.960938 268.515625 288.230469 269.246094 288.230469 L 286.796875 288.230469 C 287.527344 288.230469 288.261719 288.960938 288.261719 289.691406 Z M 315.078125 320.164062 C 315.078125 320.898438 314.34375 321.628906 313.613281 321.628906 L 296.0625 321.628906 C 295.328125 321.628906 294.597656 320.898438 294.597656 320.164062 L 294.597656 309.4375 C 294.597656 308.707031 295.328125 307.976562 296.0625 307.976562 L 313.613281 307.976562 C 314.34375 307.976562 315.078125 308.707031 315.078125 309.4375 Z M 315.078125 300.417969 C 315.078125 301.148438 314.34375 301.882812 313.613281 301.882812 L 296.0625 301.882812 C 295.328125 301.882812 294.597656 301.148438 294.597656 300.417969 L 294.597656 289.691406 C 294.597656 288.960938 295.328125 288.230469 296.0625 288.230469 L 313.613281 288.230469 C 314.34375 288.230469 315.078125 288.960938 315.078125 289.691406 Z M 184.164062 144.398438 L 127.117188 144.398438 C 126.386719 144.398438 125.65625 145.128906 125.65625 145.859375 L 125.65625 341.617188 C 125.65625 342.351562 126.386719 343.082031 127.117188 343.082031 L 184.40625 343.082031 C 185.140625 343.082031 185.871094 342.351562 185.871094 341.617188 L 185.871094 145.859375 C 185.625 144.882812 185.140625 144.398438 184.164062 144.398438 M 150.277344 320.652344 C 150.277344 321.140625 150.035156 321.382812 149.546875 321.382812 L 136.382812 321.382812 C 135.894531 321.382812 135.652344 321.140625 135.652344 320.652344 L 135.652344 306.027344 C 135.652344 305.539062 135.894531 305.292969 136.382812 305.292969 L 149.546875 305.292969 C 150.035156 305.292969 150.277344 305.539062 150.277344 306.027344 Z M 150.277344 287.011719 C 150.277344 287.5 150.035156 287.742188 149.546875 287.742188 L 136.382812 287.742188 C 135.894531 287.742188 135.652344 287.5 135.652344 287.011719 L 135.652344 272.382812 C 135.652344 271.894531 135.894531 271.652344 136.382812 271.652344 L 149.546875 271.652344 C 150.035156 271.652344 150.277344 271.894531 150.277344 272.382812 Z M 150.277344 253.367188 C 150.277344 253.855469 150.035156 254.101562 149.546875 254.101562 L 136.382812 254.101562 C 135.894531 254.101562 135.652344 253.855469 135.652344 253.367188 L 135.652344 238.742188 C 135.652344 238.253906 135.894531 238.011719 136.382812 238.011719 L 149.546875 238.011719 C 150.035156 238.011719 150.277344 238.253906 150.277344 238.742188 Z M 150.277344 219.96875 C 150.277344 220.457031 150.035156 220.703125 149.546875 220.703125 L 136.382812 220.703125 C 135.894531 220.703125 135.652344 220.457031 135.652344 219.96875 L 135.652344 205.34375 C 135.652344 204.855469 135.894531 204.613281 136.382812 204.613281 L 149.546875 204.613281 C 150.035156 204.613281 150.277344 204.855469 150.277344 205.34375 Z M 150.277344 186.328125 C 150.277344 186.816406 150.035156 187.058594 149.546875 187.058594 L 136.382812 187.058594 C 135.894531 187.058594 135.652344 186.816406 135.652344 186.328125 L 135.652344 171.699219 C 135.652344 171.214844 135.894531 170.96875 136.382812 170.96875 L 149.546875 170.96875 C 150.035156 170.96875 150.277344 171.210938 150.277344 171.699219 Z M 175.875 320.652344 C 175.875 321.140625 175.632812 321.382812 175.144531 321.382812 L 161.980469 321.382812 C 161.492188 321.382812 161.25 321.140625 161.25 320.652344 L 161.25 306.027344 C 161.25 305.539062 161.492188 305.292969 161.980469 305.292969 L 175.144531 305.292969 C 175.632812 305.292969 175.875 305.539062 175.875 306.027344 Z M 175.875 287.011719 C 175.875 287.5 175.632812 287.742188 175.144531 287.742188 L 161.980469 287.742188 C 161.492188 287.742188 161.25 287.5 161.25 287.011719 L 161.25 272.382812 C 161.25 271.894531 161.492188 271.652344 161.980469 271.652344 L 175.144531 271.652344 C 175.632812 271.652344 175.875 271.894531 175.875 272.382812 Z M 175.875 253.367188 C 175.875 253.855469 175.632812 254.101562 175.144531 254.101562 L 161.980469 254.101562 C 161.492188 254.101562 161.25 253.855469 161.25 253.367188 L 161.25 238.742188 C 161.25 238.253906 161.492188 238.011719 161.980469 238.011719 L 175.144531 238.011719 C 175.632812 238.011719 175.875 238.253906 175.875 238.742188 Z M 175.875 219.96875 C 175.875 220.457031 175.632812 220.703125 175.144531 220.703125 L 161.980469 220.703125 C 161.492188 220.703125 161.25 220.457031 161.25 219.96875 L 161.25 205.34375 C 161.25 204.855469 161.492188 204.613281 161.980469 204.613281 L 175.144531 204.613281 C 175.632812 204.613281 175.875 204.855469 175.875 205.34375 Z M 175.875 186.328125 C 175.875 186.816406 175.632812 187.058594 175.144531 187.058594 L 161.980469 187.058594 C 161.492188 187.058594 161.25 186.816406 161.25 186.328125 L 161.25 171.699219 C 161.25 171.214844 161.492188 170.96875 161.980469 170.96875 L 175.144531 170.96875 C 175.632812 170.96875 175.875 171.210938 175.875 171.699219 Z M 321.660156 275.554688 C 321.660156 276.285156 321.171875 276.773438 320.441406 276.773438 L 261.445312 276.773438 C 260.710938 276.773438 260.226562 276.285156 260.226562 275.554688 L 260.226562 263.851562 C 260.226562 263.121094 260.710938 262.632812 261.445312 262.632812 L 320.441406 262.632812 C 321.171875 262.632812 321.660156 263.121094 321.660156 263.851562 Z M 253.398438 181.207031 C 253.15625 180.476562 252.667969 180.234375 251.9375 180.234375 C 251.691406 180.234375 251.449219 180.234375 251.203125 180.476562 L 250.71875 180.964844 L 194.402344 252.394531 L 194.160156 252.636719 C 193.914062 252.878906 193.671875 253.367188 193.671875 253.855469 L 193.671875 341.617188 C 193.671875 342.351562 194.402344 343.082031 195.132812 343.082031 L 252.425781 343.082031 C 253.15625 343.082031 253.886719 342.351562 253.886719 341.617188 L 253.886719 181.695312 C 253.644531 181.695312 253.644531 181.453125 253.398438 181.207031 Z M 229.75 219.96875 L 230.238281 219.480469 C 234.140625 214.605469 240.476562 206.5625 243.648438 202.660156 L 244.136719 202.171875 C 244.378906 201.929688 244.867188 201.6875 245.355469 201.6875 C 246.085938 201.6875 246.816406 202.171875 246.816406 202.90625 L 246.816406 220.945312 C 246.816406 221.921875 246.085938 222.40625 245.355469 222.652344 L 231.214844 222.652344 C 230.238281 222.652344 229.75 221.921875 229.75 220.945312 C 229.507812 220.703125 229.507812 220.214844 229.75 219.96875 Z M 220.730469 319.921875 C 220.730469 320.652344 220 321.382812 219.269531 321.382812 L 202.203125 321.382812 C 201.472656 321.382812 200.742188 320.652344 200.742188 319.921875 L 200.742188 309.195312 C 200.742188 308.464844 201.472656 307.734375 202.203125 307.734375 L 219.269531 307.734375 C 220 307.734375 220.730469 308.464844 220.730469 309.195312 Z M 220.730469 300.417969 C 220.730469 301.148438 220 301.882812 219.269531 301.882812 L 202.203125 301.882812 C 201.472656 301.882812 200.742188 301.148438 200.742188 300.417969 L 200.742188 289.691406 C 200.742188 288.960938 201.472656 288.230469 202.203125 288.230469 L 219.269531 288.230469 C 220 288.230469 220.730469 288.960938 220.730469 289.691406 Z M 220.730469 280.671875 C 220.730469 281.402344 220 282.136719 219.269531 282.136719 L 202.203125 282.136719 C 201.472656 282.136719 200.742188 281.402344 200.742188 280.671875 L 200.742188 269.945312 C 200.742188 269.214844 201.472656 268.484375 202.203125 268.484375 L 219.269531 268.484375 C 220 268.484375 220.730469 269.214844 220.730469 269.945312 Z M 220.976562 237.277344 L 220.976562 260.683594 C 220.976562 261.414062 220.246094 262.144531 219.511719 262.144531 L 202.449219 262.144531 C 201.714844 262.144531 200.984375 261.414062 200.984375 260.683594 L 200.984375 257.023438 C 200.984375 257.023438 200.984375 256.78125 201.230469 256.78125 C 201.230469 256.78125 201.230469 256.539062 201.472656 256.539062 C 203.667969 253.367188 213.417969 241.179688 217.5625 236.304688 L 218.050781 235.816406 C 218.292969 235.570312 218.78125 235.328125 219.269531 235.328125 C 220 235.328125 220.730469 235.816406 220.730469 236.546875 L 220.730469 237.277344 Z M 247.0625 319.921875 C 247.0625 320.652344 246.328125 321.382812 245.597656 321.382812 L 228.53125 321.382812 C 227.800781 321.382812 227.070312 320.652344 227.070312 319.921875 L 227.070312 309.195312 C 227.070312 308.464844 227.800781 307.734375 228.53125 307.734375 L 245.597656 307.734375 C 246.328125 307.734375 247.0625 308.464844 247.0625 309.195312 Z M 247.0625 300.417969 C 247.0625 301.148438 246.328125 301.882812 245.597656 301.882812 L 228.53125 301.882812 C 227.800781 301.882812 227.070312 301.148438 227.070312 300.417969 L 227.070312 289.691406 C 227.070312 288.960938 227.800781 288.230469 228.53125 288.230469 L 245.597656 288.230469 C 246.328125 288.230469 247.0625 288.960938 247.0625 289.691406 Z M 247.0625 280.671875 C 247.0625 281.402344 246.328125 282.136719 245.597656 282.136719 L 228.53125 282.136719 C 227.800781 282.136719 227.070312 281.402344 227.070312 280.671875 L 227.070312 269.945312 C 227.070312 269.214844 227.800781 268.484375 228.53125 268.484375 L 245.597656 268.484375 C 246.328125 268.484375 247.0625 269.214844 247.0625 269.945312 Z M 247.0625 260.925781 C 247.0625 261.65625 246.328125 262.386719 245.597656 262.386719 L 228.53125 262.386719 C 227.800781 262.386719 227.070312 261.65625 227.070312 260.925781 L 227.070312 250.199219 C 227.070312 249.46875 227.800781 248.738281 228.53125 248.738281 L 245.597656 248.738281 C 246.328125 248.738281 247.0625 249.46875 247.0625 250.199219 Z M 247.0625 241.179688 C 247.0625 241.910156 246.328125 242.640625 245.597656 242.640625 L 228.53125 242.640625 C 227.800781 242.640625 227.070312 241.910156 227.070312 241.179688 L 227.070312 230.453125 C 227.070312 229.722656 227.800781 228.988281 228.53125 228.988281 L 245.597656 228.988281 C 246.328125 228.988281 247.0625 229.722656 247.0625 230.453125 Z M 247.0625 241.179688 " fill-opacity="1" fill-rule="nonzero"/><path fill="#ffffff" d="M 99.570312 47.613281 L 99.570312 43.226562 L 104.691406 43.226562 L 104.691406 47.613281 C 104.691406 49.320312 105.421875 50.539062 107.371094 50.539062 C 109.078125 50.539062 109.808594 49.320312 109.808594 47.613281 L 109.808594 46.394531 C 109.808594 44.445312 109.078125 43.46875 107.371094 41.761719 L 104.203125 38.59375 C 101.035156 35.667969 99.816406 33.71875 99.816406 30.0625 L 99.816406 29.085938 C 99.816406 25.1875 102.253906 22.015625 107.371094 22.015625 C 112.734375 22.015625 114.929688 24.699219 114.929688 29.328125 L 114.929688 32.011719 L 110.054688 32.011719 L 110.054688 29.328125 C 110.054688 27.378906 109.320312 26.648438 107.617188 26.648438 C 106.152344 26.648438 105.179688 27.378906 105.179688 29.328125 L 105.179688 30.0625 C 105.179688 31.769531 106.152344 32.988281 107.617188 34.449219 L 111.027344 37.863281 C 113.953125 40.789062 115.417969 42.738281 115.417969 46.152344 L 115.417969 47.613281 C 115.417969 52.003906 112.980469 55.171875 107.617188 55.171875 C 102.253906 55.171875 99.570312 51.757812 99.570312 47.613281 Z M 132.96875 22.503906 L 132.96875 46.640625 C 132.96875 51.515625 130.773438 54.925781 125.410156 54.925781 C 119.804688 54.925781 117.367188 51.757812 117.367188 46.640625 L 117.367188 22.503906 L 122.730469 22.503906 L 122.730469 47.371094 C 122.730469 49.320312 123.460938 50.539062 125.410156 50.539062 C 127.363281 50.539062 128.09375 49.320312 128.09375 47.371094 L 128.09375 22.503906 Z M 135.894531 47.613281 L 135.894531 43.226562 L 141.015625 43.226562 L 141.015625 47.613281 C 141.015625 49.320312 141.746094 50.539062 143.695312 50.539062 C 145.402344 50.539062 146.132812 49.320312 146.132812 47.613281 L 146.132812 46.394531 C 146.132812 44.445312 145.402344 43.46875 143.695312 41.761719 L 140.527344 38.59375 C 137.359375 35.667969 136.136719 33.71875 136.136719 30.0625 L 136.136719 29.085938 C 136.136719 25.1875 138.332031 22.015625 143.695312 22.015625 C 149.058594 22.015625 151.253906 24.699219 151.253906 29.328125 L 151.253906 32.011719 L 146.378906 32.011719 L 146.378906 29.328125 C 146.378906 27.378906 145.644531 26.648438 143.941406 26.648438 C 142.476562 26.648438 141.5 27.378906 141.5 29.328125 L 141.5 30.0625 C 141.5 31.769531 142.476562 32.988281 143.941406 34.449219 L 147.351562 37.863281 C 150.277344 40.789062 151.742188 42.738281 151.742188 46.152344 L 151.742188 47.613281 C 151.742188 52.003906 149.304688 55.171875 143.941406 55.171875 C 137.84375 54.925781 135.894531 51.757812 135.894531 47.613281 Z M 152.472656 22.503906 L 166.855469 22.503906 L 166.855469 26.890625 L 162.46875 26.890625 L 162.46875 54.441406 L 157.105469 54.441406 L 157.105469 26.890625 L 152.714844 26.890625 L 152.714844 22.503906 Z M 165.878906 54.441406 L 171.976562 22.503906 L 178.070312 22.503906 L 184.164062 54.441406 L 178.558594 54.441406 L 177.582031 48.589844 L 171.976562 48.589844 L 171 54.441406 Z M 172.707031 44.199219 L 177.09375 44.199219 L 174.898438 31.28125 Z M 186.359375 22.503906 L 191.722656 22.503906 L 191.722656 54.441406 L 186.359375 54.441406 Z M 199.277344 34.207031 L 199.277344 54.441406 L 194.648438 54.441406 L 194.648438 22.503906 L 200.011719 22.503906 L 205.859375 40.789062 L 205.859375 22.503906 L 210.25 22.503906 L 210.25 54.441406 L 205.617188 54.441406 Z M 212.199219 54.441406 L 218.292969 22.503906 L 224.386719 22.503906 L 230.484375 54.441406 L 224.875 54.441406 L 223.902344 48.589844 L 218.292969 48.589844 L 217.320312 54.441406 Z M 219.027344 44.199219 L 223.414062 44.199219 L 221.21875 31.28125 Z M 232.191406 22.503906 L 239.992188 22.503906 C 245.355469 22.503906 247.0625 24.941406 247.0625 29.574219 L 247.0625 32.742188 C 247.0625 35.425781 246.085938 37.132812 243.890625 37.863281 C 246.574219 38.59375 247.792969 40.300781 247.792969 43.226562 L 247.792969 47.371094 C 247.792969 52.003906 245.839844 54.441406 240.476562 54.441406 L 232.191406 54.441406 Z M 237.554688 35.914062 L 239.503906 35.914062 C 241.210938 35.914062 241.941406 34.9375 241.941406 33.230469 L 241.941406 29.328125 C 241.941406 27.625 241.210938 26.648438 239.257812 26.648438 L 237.308594 26.648438 Z M 237.554688 40.054688 L 237.554688 50.050781 L 239.992188 50.050781 C 241.699219 50.050781 242.671875 49.078125 242.671875 47.371094 L 242.671875 42.496094 C 242.671875 40.789062 241.941406 39.8125 239.992188 39.8125 L 237.554688 39.8125 Z M 250.230469 22.503906 L 255.59375 22.503906 L 255.59375 50.050781 L 261.929688 50.050781 L 261.929688 54.441406 L 250.230469 54.441406 Z M 264.125 22.503906 L 277.046875 22.503906 L 277.046875 26.890625 L 269.488281 26.890625 L 269.488281 36.15625 L 274.851562 36.15625 L 274.851562 40.542969 L 269.488281 40.542969 L 269.488281 50.296875 L 277.046875 50.296875 L 277.046875 54.683594 L 264.125 54.683594 Z M 286.066406 46.152344 L 286.066406 30.550781 C 286.066406 25.429688 288.503906 22.015625 294.109375 22.015625 C 299.960938 22.015625 301.667969 25.429688 301.667969 30.0625 L 301.667969 33.960938 L 296.792969 33.960938 L 296.792969 29.574219 C 296.792969 27.625 296.0625 26.40625 294.109375 26.40625 C 292.160156 26.40625 291.429688 27.867188 291.429688 29.816406 L 291.429688 47.125 C 291.429688 49.078125 292.160156 50.539062 294.109375 50.539062 C 296.0625 50.539062 296.792969 49.320312 296.792969 47.371094 L 296.792969 41.519531 L 301.667969 41.519531 L 301.667969 47.125 C 301.667969 51.757812 299.71875 55.171875 294.109375 55.171875 C 288.261719 54.925781 286.066406 51.027344 286.066406 46.152344 Z M 304.105469 22.503906 L 309.46875 22.503906 L 309.46875 54.441406 L 304.105469 54.441406 Z M 311.417969 22.503906 L 325.804688 22.503906 L 325.804688 26.890625 L 321.414062 26.890625 L 321.414062 54.441406 L 316.050781 54.441406 L 316.050781 26.890625 L 311.664062 26.890625 L 311.664062 22.503906 Z M 327.996094 22.503906 L 333.359375 22.503906 L 333.359375 54.441406 L 327.996094 54.441406 Z M 336.285156 22.503906 L 349.207031 22.503906 L 349.207031 26.890625 L 341.648438 26.890625 L 341.648438 36.15625 L 347.011719 36.15625 L 347.011719 40.542969 L 341.648438 40.542969 L 341.648438 50.296875 L 349.207031 50.296875 L 349.207031 54.683594 L 336.285156 54.683594 Z M 350.425781 47.613281 L 350.425781 43.226562 L 355.546875 43.226562 L 355.546875 47.613281 C 355.546875 49.320312 356.277344 50.539062 358.226562 50.539062 C 359.933594 50.539062 360.664062 49.320312 360.664062 47.613281 L 360.664062 46.394531 C 360.664062 44.445312 359.933594 43.46875 358.226562 41.761719 L 355.058594 38.59375 C 351.886719 35.667969 350.667969 33.71875 350.667969 30.0625 L 350.667969 29.085938 C 350.667969 25.1875 353.105469 22.015625 358.226562 22.015625 C 363.589844 22.015625 365.785156 24.699219 365.785156 29.328125 L 365.785156 32.011719 L 360.910156 32.011719 L 360.910156 29.328125 C 360.910156 27.378906 360.175781 26.648438 358.46875 26.648438 C 357.007812 26.648438 356.03125 27.378906 356.03125 29.328125 L 356.03125 30.0625 C 356.03125 31.769531 357.007812 32.988281 358.46875 34.449219 L 361.882812 37.863281 C 364.808594 40.789062 366.273438 42.738281 366.273438 46.152344 L 366.273438 47.613281 C 366.273438 52.003906 363.832031 55.171875 358.46875 55.171875 C 353.105469 55.171875 350.425781 51.757812 350.425781 47.613281 Z M 350.425781 47.613281 " fill-opacity="1" fill-rule="nonzero"/><path fill="#ffffff" d="M 99.570312 101.492188 L 105.664062 69.554688 L 111.761719 69.554688 L 117.855469 101.492188 L 112.492188 101.492188 L 111.515625 95.640625 L 105.910156 95.640625 L 104.933594 101.492188 Z M 106.398438 91.496094 L 110.785156 91.496094 L 108.589844 78.574219 Z M 124.679688 81.5 L 124.679688 101.734375 L 120.046875 101.734375 L 120.046875 69.796875 L 125.410156 69.796875 L 131.261719 88.082031 L 131.261719 69.796875 L 135.652344 69.796875 L 135.652344 101.734375 L 131.019531 101.734375 Z M 154.910156 78.085938 L 154.910156 92.957031 C 154.910156 97.832031 152.960938 101.492188 147.109375 101.492188 L 138.820312 101.492188 L 138.820312 69.554688 L 147.109375 69.554688 C 152.714844 69.554688 154.910156 73.210938 154.910156 78.085938 Z M 146.378906 97.101562 C 148.570312 97.101562 149.546875 95.882812 149.546875 93.933594 L 149.546875 77.113281 C 149.546875 75.160156 148.816406 73.941406 146.378906 73.941406 L 144.183594 73.941406 L 144.183594 97.101562 Z M 162.710938 93.203125 L 162.710938 77.597656 C 162.710938 72.480469 165.148438 69.066406 170.757812 69.066406 C 176.605469 69.066406 178.3125 72.480469 178.3125 77.113281 L 178.3125 81.011719 L 173.4375 81.011719 L 173.4375 76.867188 C 173.4375 74.917969 172.707031 73.699219 170.757812 73.699219 C 168.804688 73.699219 168.074219 75.160156 168.074219 77.113281 L 168.074219 94.421875 C 168.074219 96.371094 168.804688 97.832031 170.757812 97.832031 C 172.707031 97.832031 173.4375 96.613281 173.4375 94.664062 L 173.4375 88.8125 L 178.3125 88.8125 L 178.3125 94.421875 C 178.3125 99.050781 176.363281 102.464844 170.757812 102.464844 C 164.90625 101.976562 162.710938 98.320312 162.710938 93.203125 Z M 181.238281 93.203125 L 181.238281 77.597656 C 181.238281 72.480469 183.675781 69.066406 189.285156 69.066406 C 194.890625 69.066406 197.574219 72.722656 197.574219 77.597656 L 197.574219 93.203125 C 197.574219 98.078125 195.132812 101.734375 189.285156 101.734375 C 183.675781 101.976562 181.238281 98.320312 181.238281 93.203125 Z M 191.964844 94.175781 L 191.964844 76.867188 C 191.964844 74.917969 191.234375 73.457031 189.285156 73.457031 C 187.332031 73.457031 186.601562 74.917969 186.601562 76.867188 L 186.601562 94.175781 C 186.601562 96.128906 187.332031 97.589844 189.285156 97.589844 C 191.234375 97.347656 191.964844 96.128906 191.964844 94.175781 Z M 215.367188 80.769531 L 211.46875 101.492188 L 209.03125 101.492188 L 205.128906 80.769531 L 205.128906 101.492188 L 200.742188 101.492188 L 200.742188 69.554688 L 207.078125 69.554688 L 210.492188 87.59375 L 213.664062 69.554688 L 220.488281 69.554688 L 220.488281 101.492188 L 215.613281 101.492188 Z M 238.039062 80.769531 L 234.140625 101.492188 L 231.703125 101.492188 L 227.800781 80.769531 L 227.800781 101.492188 L 223.414062 101.492188 L 223.414062 69.554688 L 229.75 69.554688 L 233.164062 87.59375 L 236.335938 69.554688 L 243.160156 69.554688 L 243.160156 101.492188 L 238.285156 101.492188 L 238.285156 80.769531 Z M 261.6875 69.554688 L 261.6875 93.6875 C 261.6875 98.566406 259.492188 101.976562 254.128906 101.976562 C 248.523438 101.976562 246.085938 98.808594 246.085938 93.6875 L 246.085938 69.554688 L 251.449219 69.554688 L 251.449219 94.421875 C 251.449219 96.371094 252.179688 97.589844 254.128906 97.589844 C 256.082031 97.589844 256.8125 96.371094 256.8125 94.421875 L 256.8125 69.554688 Z M 269 81.5 L 269 101.734375 L 264.371094 101.734375 L 264.371094 69.796875 L 269.734375 69.796875 L 275.582031 88.082031 L 275.582031 69.796875 L 279.972656 69.796875 L 279.972656 101.734375 L 275.339844 101.734375 Z M 283.140625 69.554688 L 288.503906 69.554688 L 288.503906 101.492188 L 283.140625 101.492188 Z M 290.941406 69.554688 L 305.324219 69.554688 L 305.324219 73.941406 L 300.9375 73.941406 L 300.9375 101.492188 L 295.328125 101.492188 L 295.328125 73.941406 L 290.941406 73.941406 Z M 307.761719 69.554688 L 313.125 69.554688 L 313.125 101.492188 L 307.761719 101.492188 Z M 316.050781 69.554688 L 328.972656 69.554688 L 328.972656 73.941406 L 321.414062 73.941406 L 321.414062 83.207031 L 326.777344 83.207031 L 326.777344 87.59375 L 321.414062 87.59375 L 321.414062 97.347656 L 328.972656 97.347656 L 328.972656 101.734375 L 316.050781 101.734375 Z M 331.167969 94.664062 L 331.167969 90.277344 L 336.285156 90.277344 L 336.285156 94.664062 C 336.285156 96.371094 337.015625 97.589844 338.96875 97.589844 C 340.675781 97.589844 341.40625 96.371094 341.40625 94.664062 L 341.40625 93.445312 C 341.40625 91.496094 340.675781 90.519531 338.96875 88.8125 L 335.796875 85.644531 C 332.628906 82.71875 331.410156 80.769531 331.410156 77.113281 L 331.410156 76.136719 C 331.410156 72.234375 333.605469 69.066406 338.96875 69.066406 C 344.332031 69.066406 346.523438 71.75 346.523438 76.378906 L 346.523438 79.0625 L 341.648438 79.0625 L 341.648438 76.378906 C 341.648438 74.429688 340.917969 73.699219 339.210938 73.699219 C 337.75 73.699219 336.773438 74.429688 336.773438 76.378906 L 336.773438 77.113281 C 336.773438 78.820312 337.75 80.039062 339.210938 81.5 L 342.625 84.914062 C 345.550781 87.839844 347.011719 89.789062 347.011719 93.203125 L 347.011719 94.664062 C 347.011719 99.050781 344.574219 102.222656 339.210938 102.222656 C 333.359375 101.976562 331.167969 98.808594 331.167969 94.664062 Z M 331.167969 94.664062 " fill-opacity="1" fill-rule="nonzero"/><path stroke-linecap="butt" transform="matrix(0.75, 0, 0, 0.75, -7.689465, -10.400221)" fill="none" stroke-linejoin="miter" d="M -0.00258813 0.00237864 L -0.00258813 523.361788 L 523.356821 523.361788 L 523.356821 0.00237864 L -0.00258813 0.00237864 " stroke="#ffffff" stroke-width="18" stroke-opacity="1" stroke-miterlimit="4"/></svg>