<svg xmlns="http://www.w3.org/2000/svg" xmlns:xlink="http://www.w3.org/1999/xlink" width="434" zoomAndPan="magnify" viewBox="0 0 325.5 281.999989" height="376" preserveAspectRatio="xMidYMid meet" version="1.0"><defs><clipPath id="2c9c9f7b22"><path d="M 21.714844 0.214844 L 303.285156 0.214844 L 303.285156 281.78125 L 21.714844 281.78125 Z M 21.714844 0.214844 " clip-rule="nonzero"/></clipPath></defs><g clip-path="url(#2c9c9f7b22)"><path fill="#fd9d24" d="M 295.761719 42.835938 C 300.707031 38.027344 303.152344 32.179688 303.089844 25.289062 C 303.152344 18.394531 300.707031 12.480469 295.761719 7.542969 C 290.953125 2.726562 285.105469 0.285156 278.214844 0.214844 C 271.320312 0.285156 265.40625 2.726562 260.46875 7.542969 L 162.5 105.707031 L 64.335938 7.542969 C 59.53125 2.726562 53.679688 0.285156 46.789062 0.214844 C 39.894531 0.285156 33.980469 2.726562 29.046875 7.542969 C 24.226562 12.480469 21.785156 18.394531 21.714844 25.289062 C 21.785156 32.179688 24.226562 38.027344 29.046875 42.835938 L 127.207031 141 L 29.046875 238.96875 C 24.226562 243.90625 21.785156 249.820312 21.714844 256.710938 C 21.785156 263.605469 24.226562 269.453125 29.046875 274.261719 C 33.980469 279.207031 39.894531 281.652344 46.789062 281.589844 C 53.679688 281.652344 59.53125 279.207031 64.335938 274.261719 L 162.5 176.292969 L 260.46875 274.261719 C 265.40625 279.207031 271.320312 281.652344 278.214844 281.589844 C 285.105469 281.652344 290.953125 279.207031 295.761719 274.261719 C 300.707031 269.453125 303.152344 263.605469 303.089844 256.710938 C 303.152344 249.820312 300.707031 243.90625 295.761719 238.96875 L 197.792969 141 Z M 295.761719 42.835938 " fill-opacity="1" fill-rule="nonzero"/></g></svg>